M48
; DRILL file KiCad 10.0.1 date 2026-08-30T15:58:51
; FORMAT={-:-/ absolute / metric / decimal}
; #@! TF.CreationDate,2026-08-30T15:58:51-03:00
; #@! TF.GenerationSoftware,Kicad,Pcbnew,10.0.1
; #@! TF.FileFunction,Plated,1,2,PTH
FMAT,2
METRIC
; #@! TA.AperFunction,Plated,PTH,ViaDrill
T1C0.300
; #@! TA.AperFunction,Plated,PTH,ComponentDrill
T2C0.700
%
G90
G05
T1
X131.86Y-135.13
X147.03Y-135.18
T2
X110.522Y-101.63
X111.66Y-108.47
X111.66Y-118.63
X112.56Y-91.32
X112.56Y-96.32
X112.99Y-126.29
X112.99Y-131.29
X115.5Y-108.42
X115.5Y-118.58
X115.522Y-101.63
X119.1Y-89.41
X119.1Y-94.41
X120.69Y-97.69
X120.69Y-100.23
X120.69Y-102.77
X120.69Y-105.31
X122.07Y-108.75
X122.23Y-127.09
X122.23Y-137.25
X122.55Y-114.73
X122.55Y-119.73
X125.14Y-89.68
X126.3Y-134.55
X126.3Y-137.09
X126.34Y-125.46
X126.34Y-128.0
X126.34Y-130.54
X127.68Y-89.68
X128.31Y-97.69
X128.31Y-100.23
X128.31Y-102.77
X128.31Y-105.31
X129.99Y-113.32
X129.99Y-123.48
X130.22Y-89.68
X131.89Y-127.38
X131.89Y-129.92
X131.89Y-132.46
X131.92Y-94.0
X132.23Y-108.75
X132.5Y-98.5
X132.5Y-103.5
X133.31Y-113.36
X133.31Y-123.52
X135.01Y-89.7
X136.0Y-97.19
X136.0Y-104.81
X137.55Y-89.7
X138.2Y-117.71
X138.2Y-120.25
X138.2Y-122.79
X138.2Y-125.33
X139.4Y-132.66
X139.4Y-137.66
X139.5Y-97.19
X139.5Y-104.81
X140.09Y-89.7
X141.09Y-113.23
X142.08Y-94.0
X144.14Y-97.902
X144.14Y-108.062
X145.51Y-129.82
X145.82Y-117.71
X145.82Y-120.25
X145.82Y-122.79
X145.82Y-125.33
X146.09Y-113.23
X147.94Y-97.04
X147.99Y-93.04
X148.405Y-100.97
X148.405Y-103.51
X148.405Y-106.05
X149.88Y-110.62
X149.88Y-113.16
X149.88Y-115.7
X150.1Y-133.1
X150.29Y-122.82
X152.045Y-100.97
X152.045Y-103.51
X152.045Y-106.05
X154.54Y-88.19
X155.1Y-133.1
X155.29Y-122.82
X155.67Y-129.82
X155.802Y-100.27
X156.22Y-103.64
X157.08Y-88.19
X158.1Y-97.04
X158.15Y-93.04
X158.52Y-110.38
X158.52Y-112.92
X158.52Y-115.46
X158.52Y-118.0
X159.62Y-88.19
X162.56Y-93.81
X162.56Y-97.04
X163.13Y-122.96
X163.13Y-127.96
X165.963Y-100.27
X166.14Y-110.38
X166.14Y-112.92
X166.14Y-115.46
X166.14Y-118.0
X166.38Y-103.64
X167.56Y-93.81
X167.56Y-97.04
X170.83Y-87.15
X170.83Y-89.65
X174.36Y-115.08
X174.36Y-120.08
X174.39Y-127.61
X174.39Y-132.61
X175.14Y-105.12
X175.14Y-110.12
M30
