%TF.GenerationSoftware,KiCad,Pcbnew,10.0.1*%
%TF.CreationDate,2026-08-04T14:37:23-03:00*%
%TF.ProjectId,PCB_ovdr_simple,5043425f-6f76-4647-925f-73696d706c65,rev?*%
%TF.SameCoordinates,Original*%
%TF.FileFunction,Copper,L2,Bot*%
%TF.FilePolarity,Positive*%
%FSLAX46Y46*%
G04 Gerber Fmt 4.6, Leading zero omitted, Abs format (unit mm)*
G04 Created by KiCad (PCBNEW 10.0.1) date 2026-08-04 14:37:23*
%MOMM*%
%LPD*%
G01*
G04 APERTURE LIST*
%ADD10C,0.600000*%
%TA.AperFunction,ComponentPad*%
%ADD11O,2.000000X3.000000*%
%TD*%
%TA.AperFunction,ComponentPad*%
%ADD12O,3.000000X2.000000*%
%TD*%
%TA.AperFunction,ComponentPad*%
%ADD13R,3.500000X3.500000*%
%TD*%
%TA.AperFunction,ComponentPad*%
%ADD14O,3.000000X3.000000*%
%TD*%
%TA.AperFunction,ViaPad*%
%ADD15C,0.600000*%
%TD*%
%TA.AperFunction,Conductor*%
%ADD16C,1.200000*%
%TD*%
G04 APERTURE END LIST*
D10*
G36*
X176119923Y-139366803D02*
G01*
X176137999Y-139556961D01*
X176190410Y-139725482D01*
X176276727Y-139876782D01*
X176393011Y-140007171D01*
X176538072Y-140114879D01*
X176716364Y-140200465D01*
X176907721Y-140257382D01*
X177132694Y-140293886D01*
X177396702Y-140306894D01*
X177700981Y-140288925D01*
X177981334Y-140236552D01*
X178240989Y-140151189D01*
X178240989Y-139345554D01*
X178047751Y-139468695D01*
X177833225Y-139566472D01*
X177611794Y-139630528D01*
X177417219Y-139650369D01*
X177281961Y-139635828D01*
X177191905Y-139598162D01*
X177132128Y-139534271D01*
X177111854Y-139445389D01*
X177121999Y-139377470D01*
X177151788Y-139319359D01*
X177199414Y-139268958D01*
X177272688Y-139217876D01*
X177371958Y-139169036D01*
X177572923Y-139088733D01*
X177806736Y-138978841D01*
X177984555Y-138854925D01*
X178115902Y-138717900D01*
X178207530Y-138566637D01*
X178262931Y-138398022D01*
X178282021Y-138207260D01*
X178260985Y-138000960D01*
X178200369Y-137822094D01*
X178100716Y-137664873D01*
X177958339Y-137525640D01*
X177791408Y-137418510D01*
X177594790Y-137338957D01*
X177362994Y-137288426D01*
X177089323Y-137270467D01*
X176806489Y-137282740D01*
X176571833Y-137313332D01*
X176275628Y-137382575D01*
X176275628Y-138126294D01*
X176528645Y-138013023D01*
X176770675Y-137948067D01*
X177005242Y-137926992D01*
X177143497Y-137942036D01*
X177243012Y-137982313D01*
X177294169Y-138024991D01*
X177323266Y-138074621D01*
X177333138Y-138133804D01*
X177315081Y-138217761D01*
X177260415Y-138286395D01*
X177165908Y-138346396D01*
X176955966Y-138443199D01*
X176657747Y-138582537D01*
X176448806Y-138717104D01*
X176309516Y-138846566D01*
X176204342Y-139001439D01*
X176141465Y-139173105D01*
X176119923Y-139366803D01*
G37*
G36*
X173186627Y-140062712D02*
G01*
X173375255Y-140145823D01*
X173682684Y-140231973D01*
X174009755Y-140288738D01*
X174311732Y-140306894D01*
X174627526Y-140289072D01*
X174898844Y-140238746D01*
X175132024Y-140159533D01*
X175332501Y-140053474D01*
X175504614Y-139920929D01*
X175652137Y-139759032D01*
X175767776Y-139573850D01*
X175852677Y-139362020D01*
X175905936Y-139118914D01*
X175924651Y-138838872D01*
X175910747Y-138606645D01*
X175870211Y-138392624D01*
X175804102Y-138194321D01*
X175712526Y-138009607D01*
X175595472Y-137839101D01*
X175457905Y-137691499D01*
X175298533Y-137565058D01*
X175115169Y-137458961D01*
X174921077Y-137378908D01*
X174706873Y-137319967D01*
X174469935Y-137283224D01*
X174207318Y-137270467D01*
X173953014Y-137281903D01*
X173681062Y-137317374D01*
X173389593Y-137378911D01*
X173389593Y-138149741D01*
X173592261Y-138070223D01*
X173778855Y-138021514D01*
X173970040Y-137994946D01*
X174186802Y-137985610D01*
X174366835Y-138000544D01*
X174520714Y-138042996D01*
X174653163Y-138111126D01*
X174767672Y-138205429D01*
X174859539Y-138321217D01*
X174926637Y-138457546D01*
X174968862Y-138618438D01*
X174983827Y-138809197D01*
X174970987Y-138993513D01*
X174935020Y-139147563D01*
X174878551Y-139276485D01*
X174802477Y-139384389D01*
X174705081Y-139473447D01*
X174590589Y-139537591D01*
X174455587Y-139577611D01*
X174295245Y-139591751D01*
X174153765Y-139584784D01*
X174071946Y-139568304D01*
X174071946Y-139146252D01*
X174635598Y-139146252D01*
X174635598Y-138478004D01*
X173186627Y-138478004D01*
X173186627Y-140062712D01*
G37*
G36*
X172705408Y-139451067D02*
G01*
X172705408Y-138864884D01*
X171584516Y-138864884D01*
X171584516Y-139451067D01*
X172705408Y-139451067D01*
G37*
G36*
X171105312Y-140260000D02*
G01*
X171105312Y-140024610D01*
X171088953Y-139784083D01*
X171043946Y-139590469D01*
X170965614Y-139413340D01*
X170850322Y-139244438D01*
X170688711Y-139077510D01*
X170389986Y-138828797D01*
X170177820Y-138655071D01*
X170079675Y-138563733D01*
X170010419Y-138481251D01*
X169964820Y-138407112D01*
X169936470Y-138328592D01*
X169926901Y-138243164D01*
X169941328Y-138136697D01*
X169980898Y-138058857D01*
X170045263Y-138002196D01*
X170140824Y-137964725D01*
X170279344Y-137950439D01*
X170453106Y-137965971D01*
X170622568Y-138012724D01*
X170790161Y-138092360D01*
X170957850Y-138208360D01*
X170957850Y-137492117D01*
X170715217Y-137384940D01*
X170501910Y-137319743D01*
X170287620Y-137282863D01*
X170066303Y-137270467D01*
X169825132Y-137286913D01*
X169625645Y-137332743D01*
X169460665Y-137404253D01*
X169324415Y-137499994D01*
X169211831Y-137623161D01*
X169130682Y-137768194D01*
X169080013Y-137939463D01*
X169062098Y-138143147D01*
X169078489Y-138350975D01*
X169125030Y-138528802D01*
X169199485Y-138681885D01*
X169304106Y-138817463D01*
X169468612Y-138970094D01*
X169709830Y-139142772D01*
X169968696Y-139318124D01*
X170087918Y-139412233D01*
X170163000Y-139498159D01*
X170183173Y-139556580D01*
X169035537Y-139556580D01*
X169035537Y-140260000D01*
X171105312Y-140260000D01*
G37*
G36*
X167697229Y-137287779D02*
G01*
X167893790Y-137337094D01*
X168064594Y-137416123D01*
X168213684Y-137524863D01*
X168343658Y-137665591D01*
X168444630Y-137823363D01*
X168527434Y-138012330D01*
X168590566Y-138237656D01*
X168631320Y-138505403D01*
X168645908Y-138822386D01*
X168631962Y-139141835D01*
X168593392Y-139406141D01*
X168534381Y-139623393D01*
X168458027Y-139800804D01*
X168366189Y-139944560D01*
X168246557Y-140071804D01*
X168105958Y-140171253D01*
X167941341Y-140244396D01*
X167748190Y-140290549D01*
X167520804Y-140306894D01*
X167301213Y-140289693D01*
X167111864Y-140240696D01*
X166947549Y-140162089D01*
X166804293Y-140053669D01*
X166679631Y-139912869D01*
X166583708Y-139756147D01*
X166504817Y-139568336D01*
X166444555Y-139344306D01*
X166405614Y-139078094D01*
X166391710Y-138763951D01*
X167252442Y-138763951D01*
X167271719Y-139186307D01*
X167318312Y-139442176D01*
X167378718Y-139584086D01*
X167445614Y-139652912D01*
X167520804Y-139673817D01*
X167596948Y-139653797D01*
X167662191Y-139589628D01*
X167718640Y-139460776D01*
X167762592Y-139219012D01*
X167781106Y-138805167D01*
X167761880Y-138387108D01*
X167715388Y-138133610D01*
X167655055Y-137992809D01*
X167588123Y-137924374D01*
X167512744Y-137903545D01*
X167435208Y-137923526D01*
X167369708Y-137987014D01*
X167313991Y-138113471D01*
X167270724Y-138352251D01*
X167252442Y-138763951D01*
X166391710Y-138763951D01*
X166391669Y-138763035D01*
X166409876Y-138400297D01*
X166459857Y-138106679D01*
X166535861Y-137870932D01*
X166633972Y-137683277D01*
X166752374Y-137535711D01*
X166891511Y-137422420D01*
X167054065Y-137340188D01*
X167244702Y-137288677D01*
X167469696Y-137270467D01*
X167697229Y-137287779D01*
G37*
G36*
X166075863Y-140260000D02*
G01*
X166075863Y-140024610D01*
X166059505Y-139784083D01*
X166014497Y-139590469D01*
X165936165Y-139413340D01*
X165820874Y-139244438D01*
X165659262Y-139077510D01*
X165360537Y-138828797D01*
X165148371Y-138655071D01*
X165050226Y-138563733D01*
X164980971Y-138481251D01*
X164935371Y-138407112D01*
X164907021Y-138328592D01*
X164897452Y-138243164D01*
X164911880Y-138136697D01*
X164951449Y-138058857D01*
X165015814Y-138002196D01*
X165111375Y-137964725D01*
X165249895Y-137950439D01*
X165423657Y-137965971D01*
X165593119Y-138012724D01*
X165760712Y-138092360D01*
X165928401Y-138208360D01*
X165928401Y-137492117D01*
X165685768Y-137384940D01*
X165472461Y-137319743D01*
X165258172Y-137282863D01*
X165036854Y-137270467D01*
X164795683Y-137286913D01*
X164596196Y-137332743D01*
X164431217Y-137404253D01*
X164294966Y-137499994D01*
X164182382Y-137623161D01*
X164101233Y-137768194D01*
X164050564Y-137939463D01*
X164032650Y-138143147D01*
X164049040Y-138350975D01*
X164095581Y-138528802D01*
X164170036Y-138681885D01*
X164274657Y-138817463D01*
X164439163Y-138970094D01*
X164680382Y-139142772D01*
X164939248Y-139318124D01*
X165058469Y-139412233D01*
X165133552Y-139498159D01*
X165153724Y-139556580D01*
X164006088Y-139556580D01*
X164006088Y-140260000D01*
X166075863Y-140260000D01*
G37*
G36*
X162339203Y-137283759D02*
G01*
X162536493Y-137322155D01*
X162715218Y-137384182D01*
X162877869Y-137469403D01*
X163025842Y-137578307D01*
X163157143Y-137710254D01*
X163272713Y-137867365D01*
X163372644Y-138052655D01*
X163468584Y-138314316D01*
X163528160Y-138606158D01*
X163548866Y-138933211D01*
X163527808Y-139264773D01*
X163469301Y-139538222D01*
X163378521Y-139763349D01*
X163257972Y-139948224D01*
X163133822Y-140075485D01*
X162991806Y-140174222D01*
X162829435Y-140246173D01*
X162642998Y-140291120D01*
X162427791Y-140306894D01*
X162229356Y-140291041D01*
X162046305Y-140244545D01*
X161875680Y-140167676D01*
X161721304Y-140062354D01*
X161593619Y-139934944D01*
X161490265Y-139783543D01*
X161414921Y-139615757D01*
X161369448Y-139436682D01*
X161356618Y-139276495D01*
X162183975Y-139276495D01*
X162202457Y-139437178D01*
X162251570Y-139549619D01*
X162303002Y-139606303D01*
X162363426Y-139639118D01*
X162436034Y-139650369D01*
X162504629Y-139639325D01*
X162564177Y-139606488D01*
X162617384Y-139548703D01*
X162669305Y-139436846D01*
X162688093Y-139288951D01*
X162670163Y-139132126D01*
X162622513Y-139022238D01*
X162572323Y-138967132D01*
X162511367Y-138934758D01*
X162436034Y-138923503D01*
X162356353Y-138934647D01*
X162294636Y-138965989D01*
X162246441Y-139018025D01*
X162201137Y-139123700D01*
X162183975Y-139276495D01*
X161356618Y-139276495D01*
X161353977Y-139243522D01*
X161367940Y-139038749D01*
X161407519Y-138862743D01*
X161470390Y-138710947D01*
X161555844Y-138579670D01*
X161665818Y-138468506D01*
X161791475Y-138390218D01*
X161935950Y-138342305D01*
X162104108Y-138325596D01*
X162293683Y-138342486D01*
X162451825Y-138390119D01*
X162584623Y-138466242D01*
X162696336Y-138571793D01*
X162708609Y-138571793D01*
X162677232Y-138378025D01*
X162612260Y-138218720D01*
X162514986Y-138087093D01*
X162387984Y-137986039D01*
X162238269Y-137924908D01*
X162059045Y-137903545D01*
X161878407Y-137918638D01*
X161719877Y-137962035D01*
X161579474Y-138032505D01*
X161579474Y-137346488D01*
X161718393Y-137306822D01*
X161896034Y-137280268D01*
X162120411Y-137270467D01*
X162339203Y-137283759D01*
G37*
G36*
X117879993Y-137253263D02*
G01*
X118081778Y-137290619D01*
X118269401Y-137351600D01*
X118444762Y-137436106D01*
X118607302Y-137544038D01*
X118749752Y-137671412D01*
X118873621Y-137819379D01*
X118979654Y-137989865D01*
X119084281Y-138235060D01*
X119148200Y-138502472D01*
X119170163Y-138796599D01*
X119148434Y-139076912D01*
X119085221Y-139330991D01*
X118981669Y-139563400D01*
X118877369Y-139724122D01*
X118755354Y-139864453D01*
X118614738Y-139986006D01*
X118453921Y-140089682D01*
X118221524Y-140192975D01*
X117971778Y-140255542D01*
X117700676Y-140276894D01*
X117423129Y-140254756D01*
X117169165Y-140190052D01*
X116934425Y-140083454D01*
X116772317Y-139976616D01*
X116630377Y-139851356D01*
X116507061Y-139706680D01*
X116401548Y-139540868D01*
X116296897Y-139301602D01*
X116232888Y-139039384D01*
X116212805Y-138775167D01*
X117149481Y-138775167D01*
X117167462Y-138998187D01*
X117217075Y-139176702D01*
X117300627Y-139328717D01*
X117407768Y-139436088D01*
X117493355Y-139486463D01*
X117584871Y-139516428D01*
X117684373Y-139526580D01*
X117805565Y-139513560D01*
X117910190Y-139476021D01*
X118001880Y-139414056D01*
X118082794Y-139324897D01*
X118160231Y-139182864D01*
X118210770Y-138999159D01*
X118229340Y-138762711D01*
X118210519Y-138520775D01*
X118159547Y-138334742D01*
X118081878Y-138192648D01*
X118000481Y-138104090D01*
X117906585Y-138041998D01*
X117797730Y-138004041D01*
X117669902Y-137990781D01*
X117554613Y-138004108D01*
X117454817Y-138042720D01*
X117366891Y-138107079D01*
X117288883Y-138200891D01*
X117215258Y-138347478D01*
X117167133Y-138535417D01*
X117149481Y-138775167D01*
X116212805Y-138775167D01*
X116210856Y-138749521D01*
X116231877Y-138460573D01*
X116292843Y-138199647D01*
X116392206Y-137962205D01*
X116493425Y-137797146D01*
X116612269Y-137654231D01*
X116749477Y-137531518D01*
X116906582Y-137427862D01*
X117135112Y-137324929D01*
X117385333Y-137262081D01*
X117661842Y-137240467D01*
X117879993Y-137253263D01*
G37*
G36*
X114119465Y-140230000D02*
G01*
X115113412Y-140230000D01*
X116062295Y-137287362D01*
X115109382Y-137287362D01*
X114660585Y-139103613D01*
X114616454Y-139310653D01*
X114601051Y-139432791D01*
X114580535Y-139432791D01*
X114560184Y-139287662D01*
X114516971Y-139091339D01*
X114080448Y-137287362D01*
X113158309Y-137287362D01*
X114119465Y-140230000D01*
G37*
G36*
X112845434Y-140230000D02*
G01*
X111601444Y-140230000D01*
X111302795Y-140208185D01*
X111036732Y-140145278D01*
X110798007Y-140043337D01*
X110632789Y-139939324D01*
X110489517Y-139816961D01*
X110366333Y-139675364D01*
X110262199Y-139512841D01*
X110159640Y-139277085D01*
X110096488Y-139015081D01*
X110075235Y-138729921D01*
X111015261Y-138729921D01*
X111028463Y-138914778D01*
X111065717Y-139071668D01*
X111124712Y-139205248D01*
X111204854Y-139319218D01*
X111306959Y-139414552D01*
X111423402Y-139482202D01*
X111557043Y-139523787D01*
X111712086Y-139538304D01*
X111960114Y-139538304D01*
X111960114Y-137979057D01*
X111732602Y-137979057D01*
X111588981Y-137990191D01*
X111462904Y-138022140D01*
X111351400Y-138073763D01*
X111251976Y-138145307D01*
X111169407Y-138233827D01*
X111102456Y-138341209D01*
X111054640Y-138459168D01*
X111025342Y-138588048D01*
X111015261Y-138729921D01*
X110075235Y-138729921D01*
X110074621Y-138721678D01*
X110092200Y-138432743D01*
X110141600Y-138187853D01*
X110219096Y-137980231D01*
X110322820Y-137804189D01*
X110452868Y-137655388D01*
X110611293Y-137531088D01*
X110801957Y-137430341D01*
X111030294Y-137354058D01*
X111303042Y-137304948D01*
X111628005Y-137287362D01*
X112845434Y-137287362D01*
X112845434Y-140230000D01*
G37*
G36*
X109659530Y-140230000D02*
G01*
X108774211Y-140230000D01*
X108774211Y-139198318D01*
X108739406Y-139198318D01*
X108664408Y-139209426D01*
X108591725Y-139243595D01*
X108519038Y-139304747D01*
X108430195Y-139425664D01*
X108354174Y-139597472D01*
X108134722Y-140230000D01*
X107136746Y-140230000D01*
X107425624Y-139480968D01*
X107536621Y-139247259D01*
X107648007Y-139097384D01*
X107786002Y-138986997D01*
X107958501Y-138910539D01*
X107958501Y-138902295D01*
X107742242Y-138823838D01*
X107575418Y-138724225D01*
X107449254Y-138604808D01*
X107355521Y-138459817D01*
X107298183Y-138292186D01*
X107290850Y-138220308D01*
X108218803Y-138220308D01*
X108231156Y-138317945D01*
X108267039Y-138401874D01*
X108327430Y-138475481D01*
X108405312Y-138530685D01*
X108499438Y-138564849D01*
X108614293Y-138576964D01*
X108774211Y-138576964D01*
X108774211Y-137896992D01*
X108591761Y-137896992D01*
X108466227Y-137908330D01*
X108374814Y-137938513D01*
X108309111Y-137984187D01*
X108259905Y-138047381D01*
X108229575Y-138124717D01*
X108218803Y-138220308D01*
X107290850Y-138220308D01*
X107278162Y-138095928D01*
X107298057Y-137899338D01*
X107354207Y-137737114D01*
X107444724Y-137602027D01*
X107572353Y-137489595D01*
X107720469Y-137409054D01*
X107914218Y-137345576D01*
X108164308Y-137303081D01*
X108483134Y-137287362D01*
X109659530Y-137287362D01*
X109659530Y-140230000D01*
G37*
D11*
%TO.P,RV3,3,3_3*%
%TO.N,Net-(C15-Pad1)*%
X159620000Y-88190000D03*
%TO.P,RV3,2,2_2*%
%TO.N,Net-(U2B--)*%
X157080000Y-88190000D03*
%TO.P,RV3,1,1_1*%
%TO.N,Net-(JP3-C)*%
X154540000Y-88190000D03*
%TD*%
D12*
%TO.P,C15,2*%
%TO.N,GND*%
X170830000Y-89650000D03*
%TO.P,C15,1*%
%TO.N,Net-(C15-Pad1)*%
X170830000Y-87150000D03*
%TD*%
%TO.P,U2,1*%
%TO.N,Net-(U2A--)*%
X158520000Y-110380000D03*
%TO.P,U2,2,-_2*%
X158520000Y-112920000D03*
%TO.P,U2,3,+_3*%
%TO.N,Net-(U2A-+)*%
X158520000Y-115460000D03*
%TO.P,U2,4,V-_4*%
%TO.N,GND*%
X158520000Y-118000000D03*
%TO.P,U2,5,+_5*%
%TO.N,Net-(U2B-+)*%
X166140000Y-118000000D03*
%TO.P,U2,6,-_6*%
%TO.N,Net-(U2B--)*%
X166140000Y-115460000D03*
%TO.P,U2,7*%
%TO.N,Net-(U2B-+)*%
X166140000Y-112920000D03*
%TO.P,U2,8,V+_8*%
%TO.N,/9V*%
X166140000Y-110380000D03*
%TD*%
%TO.P,U1,1*%
%TO.N,Net-(U1A--)*%
X120690000Y-97690000D03*
%TO.P,U1,2,-_2*%
X120690000Y-100230000D03*
%TO.P,U1,3,+_3*%
%TO.N,Net-(U1A-+)*%
X120690000Y-102770000D03*
%TO.P,U1,4,V-_4*%
%TO.N,GND*%
X120690000Y-105310000D03*
%TO.P,U1,5,+_5*%
%TO.N,Net-(U1B-+)*%
X128310000Y-105310000D03*
%TO.P,U1,6,-_6*%
%TO.N,Net-(D1-K)*%
X128310000Y-102770000D03*
%TO.P,U1,7*%
%TO.N,Net-(D1-A)*%
X128310000Y-100230000D03*
%TO.P,U1,8,V+_8*%
%TO.N,/9V*%
X128310000Y-97690000D03*
%TD*%
%TO.P,R5,1*%
%TO.N,Net-(Pot_Gain1-Pad4)*%
X155802500Y-100270000D03*
D11*
%TO.P,R5,2*%
%TO.N,Net-(U2A--)*%
X165962500Y-100270000D03*
%TD*%
%TO.P,C6,1*%
%TO.N,GND*%
X175140000Y-105120000D03*
%TO.P,C6,2*%
%TO.N,/9V*%
X175140000Y-110120000D03*
%TD*%
D13*
%TO.P,J1,1,Pin_1_1*%
%TO.N,Net-(J1-Pin_1)*%
X112560000Y-91320000D03*
D14*
%TO.P,J1,2,Pin_2_2*%
%TO.N,GND*%
X112560000Y-96320000D03*
%TD*%
D12*
%TO.P,RV2,1,1_1*%
%TO.N,Net-(U2A-+)*%
X149880000Y-115700000D03*
%TO.P,RV2,2,2_2*%
%TO.N,Net-(C11-Pad2)*%
X149880000Y-113160000D03*
%TO.P,RV2,3,3_3*%
%TO.N,Net-(D1-A)*%
X149880000Y-110620000D03*
%TD*%
%TO.P,C7,1*%
%TO.N,GND*%
X110522500Y-101630000D03*
D11*
%TO.P,C7,2*%
%TO.N,/9V*%
X115522500Y-101630000D03*
%TD*%
%TO.P,R2,1*%
%TO.N,Net-(U1A-+)*%
X115500000Y-108420000D03*
%TO.P,R2,2*%
%TO.N,/V_ref*%
X115500000Y-118580000D03*
%TD*%
D12*
%TO.P,C5,1*%
%TO.N,GND*%
X162560000Y-97040000D03*
%TO.P,C5,2*%
%TO.N,Net-(C5-Pad2)*%
X167560000Y-97040000D03*
%TD*%
D11*
%TO.P,JP2,1,A_1*%
%TO.N,Net-(JP2-A)*%
X125140000Y-89680000D03*
%TO.P,JP2,2,C_2*%
%TO.N,Net-(J1-Pin_1)*%
X127680000Y-89680000D03*
%TO.P,JP2,3,B_3*%
%TO.N,Net-(JP2-B)*%
X130220000Y-89680000D03*
%TD*%
%TO.P,R13,1*%
%TO.N,Net-(JP1-C)*%
X122230000Y-127090000D03*
%TO.P,R13,2*%
%TO.N,Net-(D3-A)*%
X122230000Y-137250000D03*
%TD*%
D12*
%TO.P,C3,1*%
%TO.N,/V_ref*%
X122550000Y-114730000D03*
D11*
%TO.P,C3,2*%
%TO.N,GND*%
X122550000Y-119730000D03*
%TD*%
D12*
%TO.P,JP1,1,A_1*%
%TO.N,/9V*%
X126340000Y-125460000D03*
%TO.P,JP1,2,C_2*%
%TO.N,Net-(JP1-C)*%
X126340000Y-128000000D03*
%TO.P,JP1,3,B_3*%
%TO.N,GND*%
X126340000Y-130540000D03*
%TD*%
%TO.P,C1,1*%
%TO.N,Net-(JP2-A)*%
X119100000Y-89410000D03*
%TO.P,C1,2*%
%TO.N,Net-(U1A-+)*%
X119100000Y-94410000D03*
%TD*%
%TO.P,R8,1*%
%TO.N,Net-(C10-Pad2)*%
X158100000Y-97040000D03*
%TO.P,R8,2*%
%TO.N,Net-(JP3-A)*%
X147940000Y-97040000D03*
%TD*%
%TO.P,JP4,1,A_1*%
%TO.N,/9V*%
X131890000Y-127380000D03*
%TO.P,JP4,2,C_2*%
%TO.N,Net-(JP4-C)*%
X131890000Y-129920000D03*
%TO.P,JP4,3,B_3*%
%TO.N,GND*%
X131890000Y-132460000D03*
%TD*%
%TO.P,R14,1*%
%TO.N,Net-(Pot_Gain1-Pad3)*%
X142080000Y-94000000D03*
D11*
%TO.P,R14,2*%
%TO.N,Net-(D1-A)*%
X131920000Y-94000000D03*
%TD*%
D12*
%TO.P,R7,1*%
%TO.N,Net-(C10-Pad2)*%
X158150000Y-93040000D03*
%TO.P,R7,2*%
%TO.N,Net-(Pot_Gain1-Pad6)*%
X147990000Y-93040000D03*
%TD*%
%TO.P,C10,1*%
%TO.N,GND*%
X167560000Y-93810000D03*
%TO.P,C10,2*%
%TO.N,Net-(C10-Pad2)*%
X162560000Y-93810000D03*
%TD*%
%TO.P,R4,1*%
%TO.N,Net-(C5-Pad2)*%
X166380000Y-103640000D03*
%TO.P,R4,2*%
%TO.N,Net-(D1-K)*%
X156220000Y-103640000D03*
%TD*%
D11*
%TO.P,JP3,1,A_1*%
%TO.N,Net-(JP3-A)*%
X140090000Y-89700000D03*
%TO.P,JP3,2,C_2*%
%TO.N,Net-(JP3-C)*%
X137550000Y-89700000D03*
%TO.P,JP3,3,B_3*%
%TO.N,Net-(JP2-B)*%
X135010000Y-89700000D03*
%TD*%
D12*
%TO.P,U3,1,GAIN_1*%
%TO.N,unconnected-(U3-GAIN-Pad1)*%
X145820000Y-125330000D03*
%TO.P,U3,2,-_2*%
%TO.N,GND*%
X145820000Y-122790000D03*
%TO.P,U3,3,+_3*%
%TO.N,Net-(U3-+)*%
X145820000Y-120250000D03*
%TO.P,U3,4,GND_4*%
%TO.N,GND*%
X145820000Y-117710000D03*
%TO.P,U3,5*%
%TO.N,Net-(C12-Pad1)*%
X138200000Y-117710000D03*
%TO.P,U3,6,V+_6*%
%TO.N,Net-(JP4-C)*%
X138200000Y-120250000D03*
%TO.P,U3,7,BYPASS_7*%
%TO.N,unconnected-(U3-BYPASS-Pad7)*%
X138200000Y-122790000D03*
%TO.P,U3,8,GAIN_8*%
%TO.N,unconnected-(U3-GAIN-Pad8)*%
X138200000Y-125330000D03*
%TD*%
D11*
%TO.P,R6,1*%
%TO.N,Net-(JP3-A)*%
X144140000Y-97902500D03*
D12*
%TO.P,R6,2*%
%TO.N,Net-(U2A--)*%
X144140000Y-108062500D03*
%TD*%
D11*
%TO.P,D2,1,K_1*%
%TO.N,Net-(D1-A)*%
X139500000Y-97190000D03*
%TO.P,D2,2,A_2*%
%TO.N,Net-(D1-K)*%
X139500000Y-104810000D03*
%TD*%
D14*
%TO.P,J3,1,Pin_1_1*%
%TO.N,GND*%
X112990000Y-131290000D03*
D13*
%TO.P,J3,2,Pin_2_2*%
%TO.N,/9V*%
X112990000Y-126290000D03*
%TD*%
D11*
%TO.P,R_Vrf_2,1*%
%TO.N,/9V*%
X129990000Y-123480000D03*
%TO.P,R_Vrf_2,2*%
%TO.N,/V_ref*%
X129990000Y-113320000D03*
%TD*%
D12*
%TO.P,R9,1*%
%TO.N,Net-(C13-Pad2)*%
X155670000Y-129820000D03*
%TO.P,R9,2*%
%TO.N,Net-(C12-Pad1)*%
X145510000Y-129820000D03*
%TD*%
%TO.P,C11,1*%
%TO.N,GND*%
X141090000Y-113230000D03*
%TO.P,C11,2*%
%TO.N,Net-(C11-Pad2)*%
X146090000Y-113230000D03*
%TD*%
D11*
%TO.P,R_Vrf_1,1*%
%TO.N,/V_ref*%
X133310000Y-113360000D03*
%TO.P,R_Vrf_1,2*%
%TO.N,GND*%
X133310000Y-123520000D03*
%TD*%
D12*
%TO.P,Pot_Gain1,1,1_1*%
%TO.N,Net-(D1-K)*%
X148405000Y-106050000D03*
%TO.P,Pot_Gain1,2,2_2*%
X152045000Y-106050000D03*
%TO.P,Pot_Gain1,3,3_3*%
%TO.N,Net-(Pot_Gain1-Pad3)*%
X148405000Y-103510000D03*
%TO.P,Pot_Gain1,4,4_4*%
%TO.N,Net-(Pot_Gain1-Pad4)*%
X152045000Y-103510000D03*
%TO.P,Pot_Gain1,5,5_5*%
%TO.N,Net-(JP3-A)*%
X148405000Y-100970000D03*
%TO.P,Pot_Gain1,6,6_6*%
%TO.N,Net-(Pot_Gain1-Pad6)*%
X152045000Y-100970000D03*
%TD*%
%TO.P,C13,1*%
%TO.N,GND*%
X150100000Y-133100000D03*
%TO.P,C13,2*%
%TO.N,Net-(C13-Pad2)*%
X155100000Y-133100000D03*
%TD*%
D11*
%TO.P,C14,1*%
%TO.N,Net-(U2B--)*%
X155290000Y-122820000D03*
%TO.P,C14,2*%
%TO.N,Net-(U3-+)*%
X150290000Y-122820000D03*
%TD*%
D12*
%TO.P,C12,1*%
%TO.N,Net-(C12-Pad1)*%
X139400000Y-132660000D03*
%TO.P,C12,2*%
%TO.N,Net-(J5-Pin_1)*%
X139400000Y-137660000D03*
%TD*%
%TO.P,C8,1*%
%TO.N,Net-(U2B-+)*%
X163130000Y-122960000D03*
%TO.P,C8,2*%
%TO.N,Net-(J2-Pin_1)*%
X163130000Y-127960000D03*
%TD*%
D11*
%TO.P,R1,1*%
%TO.N,Net-(U1A-+)*%
X111660000Y-108470000D03*
%TO.P,R1,2*%
%TO.N,GND*%
X111660000Y-118630000D03*
%TD*%
D12*
%TO.P,R3,1*%
%TO.N,Net-(U1A--)*%
X122070000Y-108750000D03*
%TO.P,R3,2*%
%TO.N,Net-(U1B-+)*%
X132230000Y-108750000D03*
%TD*%
D11*
%TO.P,D1,1,K_1*%
%TO.N,Net-(D1-K)*%
X136000000Y-104810000D03*
%TO.P,D1,2,A_2*%
%TO.N,Net-(D1-A)*%
X136000000Y-97190000D03*
%TD*%
D12*
%TO.P,C4,1*%
%TO.N,Net-(D1-K)*%
X132500000Y-103500000D03*
D11*
%TO.P,C4,2*%
%TO.N,Net-(D1-A)*%
X132500000Y-98500000D03*
%TD*%
D13*
%TO.P,J5,1,Pin_1_1*%
%TO.N,Net-(J5-Pin_1)*%
X174390000Y-132610000D03*
D14*
%TO.P,J5,2,Pin_2_2*%
%TO.N,GND*%
X174390000Y-127610000D03*
%TD*%
D13*
%TO.P,J2,1,Pin_1_1*%
%TO.N,Net-(J2-Pin_1)*%
X174360000Y-120080000D03*
D14*
%TO.P,J2,2,Pin_2_2*%
%TO.N,GND*%
X174360000Y-115080000D03*
%TD*%
D12*
%TO.P,D3,1,K_1*%
%TO.N,GND*%
X126300000Y-134550000D03*
%TO.P,D3,2,A_2*%
%TO.N,Net-(D3-A)*%
X126300000Y-137090000D03*
%TD*%
D15*
%TO.N,/9V*%
X147030000Y-135180000D03*
X131860000Y-135130000D03*
%TD*%
%TO.N,Net-(J5-Pin_1)*%
D16*
X161360000Y-133440000D02*
X173560000Y-133440000D01*
X173560000Y-133440000D02*
X174390000Y-132610000D01*
X157140000Y-137660000D02*
X161360000Y-133440000D01*
X139400000Y-137660000D02*
X157140000Y-137660000D01*
%TO.N,/9V*%
X159530000Y-127200000D02*
X161240000Y-125490000D01*
X171260000Y-119180000D02*
X171260000Y-110380000D01*
X156800000Y-135450000D02*
X159530000Y-132720000D01*
X164950000Y-125490000D02*
X171260000Y-119180000D01*
X147300000Y-135450000D02*
X156800000Y-135450000D01*
X147030000Y-135180000D02*
X147300000Y-135450000D01*
X159530000Y-132720000D02*
X159530000Y-127200000D01*
X161240000Y-125490000D02*
X164950000Y-125490000D01*
%TO.N,Net-(J1-Pin_1)*%
X127690000Y-89670000D02*
X127680000Y-89680000D01*
X126400000Y-86970000D02*
X127690000Y-88260000D01*
X114000000Y-86970000D02*
X126400000Y-86970000D01*
X112560000Y-88410000D02*
X114000000Y-86970000D01*
X127690000Y-88260000D02*
X127690000Y-89670000D01*
X112560000Y-91320000D02*
X112560000Y-88410000D01*
%TO.N,Net-(U2B--)*%
X163280000Y-109050000D02*
X163280000Y-114840000D01*
X164470000Y-107860000D02*
X163280000Y-109050000D01*
X164580000Y-107740000D02*
X164470000Y-107850000D01*
X170000000Y-107740000D02*
X164580000Y-107740000D01*
X172240000Y-93080000D02*
X172240000Y-105500000D01*
X171250000Y-92090000D02*
X172240000Y-93080000D01*
X158430000Y-90870000D02*
X168210000Y-90870000D01*
X169430000Y-92090000D02*
X171250000Y-92090000D01*
X157550000Y-90000000D02*
X157560000Y-90000000D01*
X157080000Y-89530000D02*
X157550000Y-90000000D01*
X157080000Y-88190000D02*
X157080000Y-89530000D01*
X157560000Y-90000000D02*
X158430000Y-90870000D01*
X164470000Y-107850000D02*
X164470000Y-107860000D01*
X168210000Y-90870000D02*
X169430000Y-92090000D01*
X172240000Y-105500000D02*
X170000000Y-107740000D01*
%TO.N,/9V*%
X129160000Y-128420000D02*
X130200000Y-127380000D01*
X129160000Y-134060000D02*
X129160000Y-128420000D01*
X130230000Y-135130000D02*
X129160000Y-134060000D01*
X130200000Y-127380000D02*
X131890000Y-127380000D01*
X131860000Y-135130000D02*
X130230000Y-135130000D01*
%TO.N,Net-(C12-Pad1)*%
X142670000Y-132660000D02*
X145510000Y-129820000D01*
X139400000Y-132660000D02*
X142670000Y-132660000D01*
%TO.N,Net-(JP4-C)*%
X131890000Y-129920000D02*
X133960000Y-129920000D01*
X133960000Y-129920000D02*
X134320000Y-129560000D01*
%TO.N,/9V*%
X129990000Y-125830000D02*
X129990000Y-123480000D01*
X129970000Y-125850000D02*
X129990000Y-125830000D01*
X131890000Y-127380000D02*
X131500000Y-127380000D01*
X131500000Y-127380000D02*
X129970000Y-125850000D01*
%TO.N,/V_ref*%
X123960000Y-113320000D02*
X122550000Y-114730000D01*
X129990000Y-113320000D02*
X123960000Y-113320000D01*
X130030000Y-113360000D02*
X129990000Y-113320000D01*
X133310000Y-113360000D02*
X130030000Y-113360000D01*
%TO.N,Net-(U2B--)*%
X159940000Y-121080000D02*
X157030000Y-121080000D01*
X163280000Y-117740000D02*
X159940000Y-121080000D01*
X157030000Y-121080000D02*
X155290000Y-122820000D01*
X163280000Y-116120000D02*
X163280000Y-117740000D01*
%TO.N,Net-(JP4-C)*%
X134320000Y-128640000D02*
X134320000Y-129560000D01*
X135520000Y-127440000D02*
X134320000Y-128640000D01*
X135520000Y-121350000D02*
X135520000Y-127440000D01*
X136620000Y-120250000D02*
X135520000Y-121350000D01*
X138200000Y-120250000D02*
X136620000Y-120250000D01*
%TO.N,Net-(D3-A)*%
X126110000Y-137190000D02*
X126370000Y-137190000D01*
X126050000Y-137250000D02*
X126110000Y-137190000D01*
X122230000Y-137250000D02*
X126050000Y-137250000D01*
%TO.N,Net-(JP4-C)*%
X131860000Y-130200000D02*
X131255000Y-129595000D01*
%TO.N,Net-(JP1-C)*%
X122230000Y-127090000D02*
X122230000Y-127270000D01*
%TO.N,Net-(U2A--)*%
X158520000Y-112920000D02*
X158520000Y-110380000D01*
X163660000Y-100390000D02*
X165842500Y-100390000D01*
X161750000Y-102300000D02*
X163660000Y-100390000D01*
X161750000Y-104940000D02*
X161750000Y-102300000D01*
X158520000Y-110380000D02*
X158520000Y-108170000D01*
X158520000Y-108170000D02*
X161750000Y-104940000D01*
X154162500Y-108062500D02*
X156480000Y-110380000D01*
X144140000Y-108062500D02*
X154162500Y-108062500D01*
X156480000Y-110380000D02*
X158520000Y-110380000D01*
X165842500Y-100390000D02*
X165962500Y-100270000D01*
%TO.N,Net-(U2A-+)*%
X149880000Y-115700000D02*
X158280000Y-115700000D01*
X158280000Y-115700000D02*
X158520000Y-115460000D01*
%TO.N,Net-(U2B-+)*%
X163130000Y-121010000D02*
X166140000Y-118000000D01*
X163130000Y-122960000D02*
X163130000Y-121010000D01*
X169170000Y-113990000D02*
X168100000Y-112920000D01*
X168260000Y-118000000D02*
X169170000Y-117090000D01*
X168100000Y-112920000D02*
X166140000Y-112920000D01*
X166140000Y-118000000D02*
X168260000Y-118000000D01*
X169170000Y-117090000D02*
X169170000Y-113990000D01*
%TO.N,/9V*%
X171260000Y-110380000D02*
X166140000Y-110380000D01*
X174880000Y-110380000D02*
X171260000Y-110380000D01*
X115920000Y-100950000D02*
X115522500Y-100552500D01*
X175430000Y-110120000D02*
X175140000Y-110120000D01*
X112755000Y-105465000D02*
X110475000Y-105465000D01*
X115130000Y-124150000D02*
X125030000Y-124150000D01*
X112990000Y-126290000D02*
X115130000Y-124150000D01*
X129970000Y-125850000D02*
X126730000Y-125850000D01*
X109080000Y-106860000D02*
X109080000Y-125090000D01*
X115522500Y-101630000D02*
X115522500Y-101347500D01*
X115522500Y-93107500D02*
X116635000Y-91995000D01*
X175140000Y-110120000D02*
X174880000Y-110380000D01*
X110475000Y-105465000D02*
X109080000Y-106860000D01*
X122615000Y-91995000D02*
X128310000Y-97690000D01*
X115522500Y-100552500D02*
X115522500Y-93107500D01*
X110280000Y-126290000D02*
X112990000Y-126290000D01*
X109080000Y-125090000D02*
X110280000Y-126290000D01*
X115522500Y-102697500D02*
X112755000Y-105465000D01*
X115522500Y-101347500D02*
X115522500Y-102697500D01*
X125030000Y-124150000D02*
X126340000Y-125460000D01*
X126730000Y-125850000D02*
X126340000Y-125460000D01*
X116635000Y-91995000D02*
X122615000Y-91995000D01*
%TO.N,Net-(U1A--)*%
X122500000Y-98000000D02*
X121000000Y-98000000D01*
X121000000Y-98000000D02*
X120690000Y-97690000D01*
X122070000Y-108750000D02*
X122750000Y-108750000D01*
X123500000Y-99000000D02*
X122500000Y-98000000D01*
X123500000Y-108000000D02*
X123500000Y-99000000D01*
X120690000Y-100230000D02*
X120690000Y-97690000D01*
X122750000Y-108750000D02*
X123500000Y-108000000D01*
%TO.N,Net-(U1A-+)*%
X118080000Y-95920000D02*
X119100000Y-94900000D01*
X119330000Y-102770000D02*
X120690000Y-102770000D01*
X118065000Y-102995000D02*
X120465000Y-102995000D01*
X118080000Y-101090000D02*
X118080000Y-95920000D01*
X119100000Y-94900000D02*
X119100000Y-94410000D01*
X118065000Y-102995000D02*
X118585000Y-102475000D01*
X115510000Y-105550000D02*
X118065000Y-102995000D01*
X118080000Y-101970000D02*
X118080000Y-101090000D01*
X119100000Y-94410000D02*
X119130000Y-94380000D01*
X115500000Y-108420000D02*
X115790000Y-108420000D01*
X115790000Y-108420000D02*
X115510000Y-108140000D01*
X120465000Y-102995000D02*
X120690000Y-102770000D01*
X118880000Y-102770000D02*
X118080000Y-101970000D01*
X118065000Y-101105000D02*
X118080000Y-101090000D01*
X120210000Y-103250000D02*
X120690000Y-102770000D01*
X115450000Y-108470000D02*
X115500000Y-108420000D01*
X120690000Y-102770000D02*
X118880000Y-102770000D01*
X111660000Y-108470000D02*
X115450000Y-108470000D01*
X118065000Y-102995000D02*
X118065000Y-101105000D01*
X115510000Y-108140000D02*
X115510000Y-105550000D01*
X118585000Y-102475000D02*
X118080000Y-101970000D01*
%TO.N,Net-(U1B-+)*%
X128310000Y-105310000D02*
X128310000Y-107720000D01*
X128310000Y-107720000D02*
X129340000Y-108750000D01*
X129340000Y-108750000D02*
X132230000Y-108750000D01*
%TO.N,Net-(D1-K)*%
X156220000Y-103640000D02*
X156220000Y-104150000D01*
X136500000Y-104810000D02*
X140250000Y-104810000D01*
X131770000Y-102770000D02*
X132500000Y-103500000D01*
X132500000Y-103500000D02*
X135190000Y-103500000D01*
X139500000Y-104810000D02*
X143770000Y-104810000D01*
X143770000Y-104810000D02*
X145010000Y-106050000D01*
X135190000Y-103500000D02*
X136500000Y-104810000D01*
X156220000Y-104150000D02*
X154320000Y-106050000D01*
X128310000Y-102770000D02*
X131770000Y-102770000D01*
X152045000Y-106050000D02*
X148405000Y-106050000D01*
X156530000Y-104040000D02*
X156530000Y-103950000D01*
X145010000Y-106050000D02*
X148405000Y-106050000D01*
X154320000Y-106050000D02*
X152045000Y-106050000D01*
X156530000Y-103950000D02*
X156220000Y-103640000D01*
%TO.N,Net-(D1-A)*%
X131920000Y-97920000D02*
X132500000Y-98500000D01*
X131920000Y-94000000D02*
X131920000Y-97920000D01*
X126770000Y-100230000D02*
X125500000Y-101500000D01*
X128310000Y-100230000D02*
X126770000Y-100230000D01*
X130770000Y-100230000D02*
X132500000Y-98500000D01*
X125500000Y-108500000D02*
X127620000Y-110620000D01*
X128310000Y-100230000D02*
X130770000Y-100230000D01*
X135190000Y-98500000D02*
X136500000Y-97190000D01*
X132500000Y-98500000D02*
X135190000Y-98500000D01*
X125500000Y-101500000D02*
X125500000Y-108500000D01*
X127620000Y-110620000D02*
X149880000Y-110620000D01*
X136500000Y-97190000D02*
X140000000Y-97190000D01*
%TO.N,Net-(Pot_Gain1-Pad4)*%
X153020000Y-103510000D02*
X156140000Y-100390000D01*
X152045000Y-103510000D02*
X153020000Y-103510000D01*
X156140000Y-100390000D02*
X156562500Y-100390000D01*
%TO.N,Net-(J1-Pin_1)*%
X112490000Y-91250000D02*
X112560000Y-91320000D01*
%TO.N,Net-(C11-Pad2)*%
X149880000Y-113160000D02*
X147580000Y-113160000D01*
X147580000Y-113160000D02*
X147510000Y-113230000D01*
X147510000Y-113230000D02*
X146090000Y-113230000D01*
%TO.N,/V_ref*%
X120860000Y-114730000D02*
X117010000Y-118580000D01*
X122550000Y-114730000D02*
X120860000Y-114730000D01*
X117010000Y-118580000D02*
X115500000Y-118580000D01*
%TO.N,Net-(C5-Pad2)*%
X166690000Y-104040000D02*
X167070000Y-104040000D01*
X167070000Y-104040000D02*
X168620000Y-102490000D01*
X168620000Y-102490000D02*
X168620000Y-98060000D01*
%TO.N,Net-(JP2-A)*%
X119910000Y-89410000D02*
X119100000Y-89410000D01*
X120040000Y-89280000D02*
X119910000Y-89410000D01*
X124740000Y-89280000D02*
X120040000Y-89280000D01*
X125140000Y-89680000D02*
X124740000Y-89280000D01*
%TO.N,Net-(JP2-B)*%
X134990000Y-89680000D02*
X135010000Y-89700000D01*
X130220000Y-89680000D02*
X134990000Y-89680000D01*
%TO.N,Net-(JP3-A)*%
X148240000Y-97360000D02*
X146317500Y-97360000D01*
X148405000Y-100970000D02*
X147207500Y-100970000D01*
X147207500Y-100970000D02*
X144140000Y-97902500D01*
X144140000Y-97902500D02*
X145500000Y-96542500D01*
X146317500Y-97360000D02*
X145500000Y-96542500D01*
%TO.N,Net-(Pot_Gain1-Pad3)*%
X142080000Y-99580000D02*
X142080000Y-94000000D01*
X148405000Y-103510000D02*
X146010000Y-103510000D01*
X146010000Y-103510000D02*
X142080000Y-99580000D01*
%TO.N,Net-(Pot_Gain1-Pad6)*%
X152045000Y-100970000D02*
X152045000Y-97095000D01*
X152045000Y-97095000D02*
X147990000Y-93040000D01*
%TO.N,Net-(U3-+)*%
X150290000Y-122820000D02*
X150290000Y-122410000D01*
X150290000Y-122410000D02*
X148130000Y-120250000D01*
X148130000Y-120250000D02*
X145820000Y-120250000D01*
%TO.N,Net-(C12-Pad1)*%
X142540000Y-127520000D02*
X145490000Y-130470000D01*
X142540000Y-118870000D02*
X142540000Y-127520000D01*
X138200000Y-117710000D02*
X141380000Y-117710000D01*
X141380000Y-117710000D02*
X142540000Y-118870000D01*
X145490000Y-129840000D02*
X145510000Y-129820000D01*
X145490000Y-130240000D02*
X145490000Y-129840000D01*
X145430000Y-130300000D02*
X145490000Y-130240000D01*
%TO.N,Net-(C13-Pad2)*%
X155100000Y-133100000D02*
X155100000Y-131020000D01*
X155100000Y-131020000D02*
X155650000Y-130470000D01*
%TO.N,Net-(J2-Pin_1)*%
X166030000Y-127960000D02*
X163130000Y-127960000D01*
X173910000Y-120080000D02*
X166030000Y-127960000D01*
X174360000Y-120080000D02*
X173910000Y-120080000D01*
%TO.N,Net-(U2B--)*%
X163900000Y-115460000D02*
X163280000Y-114840000D01*
X163940000Y-115460000D02*
X163280000Y-116120000D01*
X166140000Y-115460000D02*
X163940000Y-115460000D01*
X163280000Y-114840000D02*
X163280000Y-116120000D01*
X166140000Y-115460000D02*
X163900000Y-115460000D01*
%TO.N,Net-(JP1-C)*%
X123140000Y-128000000D02*
X122230000Y-127090000D01*
X126340000Y-128000000D02*
X123140000Y-128000000D01*
%TO.N,Net-(JP3-A)*%
X143915000Y-91415000D02*
X141325000Y-91415000D01*
X141325000Y-91415000D02*
X139910000Y-90000000D01*
X145500000Y-93000000D02*
X143915000Y-91415000D01*
X145500000Y-96542500D02*
X145500000Y-93000000D01*
%TO.N,Net-(C10-Pad2)*%
X161920000Y-92800000D02*
X162370000Y-93250000D01*
X158400000Y-94040000D02*
X159640000Y-92800000D01*
X159640000Y-92800000D02*
X161920000Y-92800000D01*
X158400000Y-97360000D02*
X158400000Y-94040000D01*
%TO.N,Net-(C15-Pad1)*%
X160660000Y-87150000D02*
X159620000Y-88190000D01*
X170830000Y-87150000D02*
X160660000Y-87150000D01*
%TO.N,Net-(JP3-C)*%
X138460000Y-87000000D02*
X143970000Y-87000000D01*
X137550000Y-87910000D02*
X138460000Y-87000000D01*
X137550000Y-89700000D02*
X137550000Y-87910000D01*
X143970000Y-87000000D02*
X145160000Y-88190000D01*
X145160000Y-88190000D02*
X154540000Y-88190000D01*
%TD*%
%TA.AperFunction,Conductor*%
%TO.N,GND*%
G36*
X179612539Y-84630185D02*
G01*
X179658294Y-84682989D01*
X179669500Y-84734500D01*
X179669500Y-141485500D01*
X179649815Y-141552539D01*
X179597011Y-141598294D01*
X179545500Y-141609500D01*
X106794500Y-141609500D01*
X106727461Y-141589815D01*
X106681706Y-141537011D01*
X106670500Y-141485500D01*
X106670500Y-140906379D01*
X106690185Y-140839340D01*
X106721289Y-140812388D01*
X160848489Y-140812388D01*
X178787496Y-140812388D01*
X178787496Y-136764972D01*
X160848489Y-136764972D01*
X160848489Y-140812388D01*
X106721289Y-140812388D01*
X106742989Y-140793585D01*
X106794500Y-140782379D01*
X119675649Y-140782379D01*
X119675649Y-136734976D01*
X106794500Y-136734976D01*
X106727461Y-136715291D01*
X106681706Y-136662487D01*
X106670500Y-136610976D01*
X106670500Y-133799999D01*
X124498654Y-133799999D01*
X124498655Y-133800000D01*
X125550000Y-133800000D01*
X125550000Y-133070897D01*
X125448752Y-133086934D01*
X125224197Y-133159897D01*
X125013828Y-133267085D01*
X124822813Y-133405866D01*
X124655866Y-133572813D01*
X124517083Y-133763830D01*
X124498654Y-133799999D01*
X106670500Y-133799999D01*
X106670500Y-132040000D01*
X110919398Y-132040000D01*
X111012644Y-132265116D01*
X111012648Y-132265126D01*
X111156841Y-132514876D01*
X111332402Y-132743671D01*
X111332408Y-132743678D01*
X111536321Y-132947591D01*
X111536328Y-132947597D01*
X111765123Y-133123158D01*
X112014873Y-133267351D01*
X112014883Y-133267355D01*
X112239999Y-133360601D01*
X112240000Y-133360601D01*
X113740000Y-133360601D01*
X113965116Y-133267355D01*
X113965126Y-133267351D01*
X114214876Y-133123158D01*
X114443671Y-132947597D01*
X114443678Y-132947591D01*
X114647591Y-132743678D01*
X114647597Y-132743671D01*
X114823158Y-132514876D01*
X114967351Y-132265126D01*
X114967355Y-132265116D01*
X115060602Y-132040000D01*
X113740000Y-132040000D01*
X113740000Y-133360601D01*
X112240000Y-133360601D01*
X112240000Y-132040000D01*
X110919398Y-132040000D01*
X106670500Y-132040000D01*
X106670500Y-131243922D01*
X112640000Y-131243922D01*
X112640000Y-131336078D01*
X112663852Y-131425095D01*
X112709930Y-131504905D01*
X112775095Y-131570070D01*
X112854905Y-131616148D01*
X112943922Y-131640000D01*
X113036078Y-131640000D01*
X113125095Y-131616148D01*
X113204905Y-131570070D01*
X113270070Y-131504905D01*
X113316148Y-131425095D01*
X113340000Y-131336078D01*
X113340000Y-131290000D01*
X124538655Y-131290000D01*
X124557083Y-131326169D01*
X124695866Y-131517186D01*
X124862813Y-131684133D01*
X125053828Y-131822914D01*
X125264195Y-131930102D01*
X125488744Y-132003063D01*
X125488750Y-132003065D01*
X125590000Y-132019101D01*
X125590000Y-131290000D01*
X124538655Y-131290000D01*
X113340000Y-131290000D01*
X113340000Y-131243922D01*
X113316148Y-131154905D01*
X113270070Y-131075095D01*
X113204905Y-131009930D01*
X113125095Y-130963852D01*
X113036078Y-130940000D01*
X112943922Y-130940000D01*
X112854905Y-130963852D01*
X112775095Y-131009930D01*
X112709930Y-131075095D01*
X112663852Y-131154905D01*
X112640000Y-131243922D01*
X106670500Y-131243922D01*
X106670500Y-130539999D01*
X110919398Y-130539999D01*
X110919398Y-130540000D01*
X112240000Y-130540000D01*
X113740000Y-130540000D01*
X115060602Y-130540000D01*
X115060601Y-130539999D01*
X114967355Y-130314883D01*
X114967351Y-130314873D01*
X114823158Y-130065123D01*
X114647597Y-129836328D01*
X114647591Y-129836321D01*
X114443678Y-129632408D01*
X114443671Y-129632402D01*
X114214876Y-129456841D01*
X113965133Y-129312652D01*
X113965121Y-129312647D01*
X113740000Y-129219397D01*
X113740000Y-130540000D01*
X112240000Y-130540000D01*
X112240000Y-129219397D01*
X112014878Y-129312647D01*
X112014866Y-129312652D01*
X111765123Y-129456841D01*
X111536328Y-129632402D01*
X111536321Y-129632408D01*
X111332408Y-129836321D01*
X111332402Y-129836328D01*
X111156841Y-130065123D01*
X111012648Y-130314873D01*
X111012644Y-130314883D01*
X110919398Y-130539999D01*
X106670500Y-130539999D01*
X106670500Y-106773389D01*
X107979500Y-106773389D01*
X107979500Y-125003389D01*
X107979500Y-125176611D01*
X108006598Y-125347701D01*
X108041690Y-125455703D01*
X108060128Y-125512447D01*
X108111101Y-125612488D01*
X108138768Y-125666788D01*
X108240586Y-125806928D01*
X109563072Y-127129414D01*
X109703212Y-127231232D01*
X109717353Y-127238437D01*
X109857549Y-127309871D01*
X109857551Y-127309871D01*
X109857554Y-127309873D01*
X110022299Y-127363402D01*
X110193389Y-127390500D01*
X110366610Y-127390500D01*
X110615501Y-127390500D01*
X110682540Y-127410185D01*
X110728295Y-127462989D01*
X110739501Y-127514500D01*
X110739501Y-128087876D01*
X110745908Y-128147483D01*
X110796202Y-128282328D01*
X110796206Y-128282335D01*
X110882452Y-128397544D01*
X110882455Y-128397547D01*
X110997664Y-128483793D01*
X110997671Y-128483797D01*
X111132517Y-128534091D01*
X111132516Y-128534091D01*
X111139444Y-128534835D01*
X111192127Y-128540500D01*
X114787872Y-128540499D01*
X114847483Y-128534091D01*
X114982331Y-128483796D01*
X115097546Y-128397546D01*
X115183796Y-128282331D01*
X115234091Y-128147483D01*
X115240500Y-128087873D01*
X115240499Y-125647203D01*
X115260184Y-125580165D01*
X115276818Y-125559523D01*
X115549523Y-125286819D01*
X115610846Y-125253334D01*
X115637204Y-125250500D01*
X121148111Y-125250500D01*
X121215150Y-125270185D01*
X121260905Y-125322989D01*
X121270849Y-125392147D01*
X121241824Y-125455703D01*
X121235792Y-125462181D01*
X121085485Y-125612487D01*
X121085485Y-125612488D01*
X121085483Y-125612490D01*
X121035440Y-125681368D01*
X120946657Y-125803566D01*
X120839433Y-126014003D01*
X120766446Y-126238631D01*
X120729500Y-126471902D01*
X120729500Y-127708097D01*
X120766446Y-127941368D01*
X120839433Y-128165996D01*
X120917648Y-128319500D01*
X120946657Y-128376433D01*
X121085483Y-128567510D01*
X121252490Y-128734517D01*
X121443567Y-128873343D01*
X121542991Y-128924002D01*
X121654003Y-128980566D01*
X121654005Y-128980566D01*
X121654008Y-128980568D01*
X121755113Y-129013419D01*
X121878631Y-129053553D01*
X122111903Y-129090500D01*
X122111908Y-129090500D01*
X122348097Y-129090500D01*
X122456052Y-129073401D01*
X122581368Y-129053553D01*
X122662972Y-129027037D01*
X122732810Y-129025043D01*
X122739606Y-129027038D01*
X122842591Y-129060500D01*
X122842590Y-129060500D01*
X122861701Y-129066709D01*
X122882299Y-129073402D01*
X123053389Y-129100500D01*
X124767111Y-129100500D01*
X124790064Y-129107239D01*
X124813868Y-129109653D01*
X124826230Y-129117859D01*
X124834150Y-129120185D01*
X124844330Y-129127479D01*
X124849827Y-129131854D01*
X124862490Y-129144517D01*
X124899754Y-129171591D01*
X124901885Y-129173287D01*
X124920472Y-129199714D01*
X124940217Y-129225319D01*
X124940458Y-129228128D01*
X124942081Y-129230436D01*
X124943430Y-129262736D01*
X124946196Y-129294933D01*
X124944880Y-129297426D01*
X124944998Y-129300245D01*
X124928676Y-129328136D01*
X124913591Y-129356728D01*
X124910253Y-129359619D01*
X124909710Y-129360549D01*
X124908431Y-129361198D01*
X124897554Y-129370624D01*
X124862819Y-129395861D01*
X124862813Y-129395866D01*
X124695866Y-129562813D01*
X124557083Y-129753830D01*
X124538654Y-129789999D01*
X124538655Y-129790000D01*
X126216000Y-129790000D01*
X126283039Y-129809685D01*
X126328794Y-129862489D01*
X126340000Y-129914000D01*
X126340000Y-130190000D01*
X126293922Y-130190000D01*
X126204905Y-130213852D01*
X126125095Y-130259930D01*
X126059930Y-130325095D01*
X126013852Y-130404905D01*
X125990000Y-130493922D01*
X125990000Y-130586078D01*
X126013852Y-130675095D01*
X126059930Y-130754905D01*
X126125095Y-130820070D01*
X126204905Y-130866148D01*
X126293922Y-130890000D01*
X126386078Y-130890000D01*
X126475095Y-130866148D01*
X126554905Y-130820070D01*
X126620070Y-130754905D01*
X126666148Y-130675095D01*
X126690000Y-130586078D01*
X126690000Y-130540000D01*
X126966000Y-130540000D01*
X127033039Y-130559685D01*
X127078794Y-130612489D01*
X127090000Y-130664000D01*
X127090000Y-132019100D01*
X127191249Y-132003065D01*
X127191255Y-132003063D01*
X127415804Y-131930102D01*
X127626171Y-131822914D01*
X127817186Y-131684133D01*
X127847819Y-131653501D01*
X127909142Y-131620016D01*
X127978834Y-131625000D01*
X128034767Y-131666872D01*
X128059184Y-131732336D01*
X128059500Y-131741182D01*
X128059500Y-133388818D01*
X128039815Y-133455857D01*
X127987011Y-133501612D01*
X127917853Y-133511556D01*
X127854297Y-133482531D01*
X127847819Y-133476499D01*
X127777186Y-133405866D01*
X127586171Y-133267085D01*
X127375802Y-133159897D01*
X127151247Y-133086934D01*
X127050000Y-133070897D01*
X127050000Y-134426000D01*
X127030315Y-134493039D01*
X126977511Y-134538794D01*
X126926000Y-134550000D01*
X126650000Y-134550000D01*
X126650000Y-134503922D01*
X126626148Y-134414905D01*
X126580070Y-134335095D01*
X126514905Y-134269930D01*
X126435095Y-134223852D01*
X126346078Y-134200000D01*
X126253922Y-134200000D01*
X126164905Y-134223852D01*
X126085095Y-134269930D01*
X126019930Y-134335095D01*
X125973852Y-134414905D01*
X125950000Y-134503922D01*
X125950000Y-134596078D01*
X125973852Y-134685095D01*
X126019930Y-134764905D01*
X126085095Y-134830070D01*
X126164905Y-134876148D01*
X126253922Y-134900000D01*
X126300000Y-134900000D01*
X126300000Y-135176000D01*
X126280315Y-135243039D01*
X126227511Y-135288794D01*
X126176000Y-135300000D01*
X124498655Y-135300000D01*
X124517083Y-135336169D01*
X124655866Y-135527186D01*
X124822815Y-135694135D01*
X124857551Y-135719372D01*
X124900217Y-135774702D01*
X124906196Y-135844315D01*
X124873591Y-135906111D01*
X124857552Y-135920008D01*
X124822496Y-135945478D01*
X124822487Y-135945485D01*
X124654792Y-136113181D01*
X124593469Y-136146666D01*
X124567111Y-136149500D01*
X123684068Y-136149500D01*
X123617029Y-136129815D01*
X123573583Y-136081795D01*
X123568201Y-136071232D01*
X123513343Y-135963567D01*
X123374517Y-135772490D01*
X123207510Y-135605483D01*
X123016433Y-135466657D01*
X122959596Y-135437697D01*
X122805996Y-135359433D01*
X122581368Y-135286446D01*
X122348097Y-135249500D01*
X122348092Y-135249500D01*
X122111908Y-135249500D01*
X122111903Y-135249500D01*
X121878631Y-135286446D01*
X121654003Y-135359433D01*
X121443566Y-135466657D01*
X121360256Y-135527186D01*
X121252490Y-135605483D01*
X121252488Y-135605485D01*
X121252487Y-135605485D01*
X121085485Y-135772487D01*
X121085485Y-135772488D01*
X121085483Y-135772490D01*
X121031400Y-135846929D01*
X120946657Y-135963566D01*
X120839433Y-136174003D01*
X120766446Y-136398631D01*
X120729500Y-136631902D01*
X120729500Y-137868097D01*
X120766446Y-138101368D01*
X120839433Y-138325996D01*
X120918191Y-138480566D01*
X120946657Y-138536433D01*
X121085483Y-138727510D01*
X121252490Y-138894517D01*
X121443567Y-139033343D01*
X121542991Y-139084002D01*
X121654003Y-139140566D01*
X121654005Y-139140566D01*
X121654008Y-139140568D01*
X121774412Y-139179689D01*
X121878631Y-139213553D01*
X122111903Y-139250500D01*
X122111908Y-139250500D01*
X122348097Y-139250500D01*
X122581368Y-139213553D01*
X122805992Y-139140568D01*
X123016433Y-139033343D01*
X123207510Y-138894517D01*
X123374517Y-138727510D01*
X123513343Y-138536433D01*
X123573583Y-138418204D01*
X123621558Y-138367409D01*
X123684068Y-138350500D01*
X124941837Y-138350500D01*
X125008876Y-138370185D01*
X125012867Y-138372914D01*
X125013561Y-138373339D01*
X125013567Y-138373343D01*
X125101614Y-138418205D01*
X125224003Y-138480566D01*
X125224005Y-138480566D01*
X125224008Y-138480568D01*
X125282001Y-138499411D01*
X125448631Y-138553553D01*
X125681903Y-138590500D01*
X125681908Y-138590500D01*
X126918097Y-138590500D01*
X127151368Y-138553553D01*
X127375992Y-138480568D01*
X127586433Y-138373343D01*
X127777510Y-138234517D01*
X127944517Y-138067510D01*
X128083343Y-137876433D01*
X128190568Y-137665992D01*
X128263553Y-137441368D01*
X128300500Y-137208097D01*
X128300500Y-136971902D01*
X128263553Y-136738631D01*
X128193548Y-136523181D01*
X128190568Y-136514008D01*
X128190566Y-136514005D01*
X128190566Y-136514003D01*
X128131781Y-136398632D01*
X128083343Y-136303567D01*
X127944517Y-136112490D01*
X127777510Y-135945483D01*
X127742447Y-135920008D01*
X127699782Y-135864679D01*
X127693803Y-135795066D01*
X127726409Y-135733271D01*
X127742450Y-135719371D01*
X127777182Y-135694137D01*
X127944133Y-135527186D01*
X128082914Y-135336171D01*
X128190102Y-135125802D01*
X128245130Y-134956447D01*
X128284568Y-134898771D01*
X128348926Y-134871573D01*
X128417773Y-134883488D01*
X128450742Y-134907084D01*
X129513073Y-135969415D01*
X129551395Y-135997257D01*
X129653212Y-136071232D01*
X129742249Y-136116598D01*
X129747055Y-136119046D01*
X129747057Y-136119048D01*
X129807550Y-136149871D01*
X129807552Y-136149871D01*
X129807555Y-136149873D01*
X129972300Y-136203403D01*
X130116292Y-136226208D01*
X130143389Y-136230500D01*
X131946610Y-136230500D01*
X131946611Y-136230500D01*
X132117701Y-136203402D01*
X132282445Y-136149873D01*
X132436788Y-136071232D01*
X132576928Y-135969414D01*
X132699414Y-135846928D01*
X132801232Y-135706788D01*
X132879873Y-135552445D01*
X132933402Y-135387701D01*
X132960500Y-135216611D01*
X132960500Y-135043389D01*
X132933402Y-134872299D01*
X132879873Y-134707555D01*
X132801232Y-134553212D01*
X132699414Y-134413072D01*
X132576928Y-134290586D01*
X132436788Y-134188768D01*
X132436787Y-134188767D01*
X132432846Y-134185904D01*
X132433758Y-134184648D01*
X132391478Y-134137913D01*
X132380057Y-134068983D01*
X132407715Y-134004821D01*
X132465671Y-133965798D01*
X132503144Y-133960000D01*
X132508052Y-133960000D01*
X132741247Y-133923065D01*
X132965802Y-133850102D01*
X133176171Y-133742914D01*
X133367186Y-133604133D01*
X133534133Y-133437186D01*
X133672916Y-133246169D01*
X133691345Y-133210000D01*
X132014000Y-133210000D01*
X131946961Y-133190315D01*
X131901206Y-133137511D01*
X131890000Y-133086000D01*
X131890000Y-132810000D01*
X131936078Y-132810000D01*
X132025095Y-132786148D01*
X132104905Y-132740070D01*
X132170070Y-132674905D01*
X132216148Y-132595095D01*
X132240000Y-132506078D01*
X132240000Y-132413922D01*
X132216148Y-132324905D01*
X132170070Y-132245095D01*
X132104905Y-132179930D01*
X132025095Y-132133852D01*
X131936078Y-132110000D01*
X131890000Y-132110000D01*
X131890000Y-131834000D01*
X131909685Y-131766961D01*
X131962489Y-131721206D01*
X132014000Y-131710000D01*
X133691345Y-131710000D01*
X133691345Y-131709999D01*
X133672916Y-131673830D01*
X133534133Y-131482813D01*
X133367183Y-131315863D01*
X133332446Y-131290625D01*
X133316870Y-131270426D01*
X133298309Y-131252933D01*
X133295892Y-131243221D01*
X133289781Y-131235295D01*
X133287598Y-131209881D01*
X133281441Y-131185130D01*
X133284659Y-131175652D01*
X133283803Y-131165681D01*
X133295706Y-131143123D01*
X133303908Y-131118971D01*
X133313694Y-131109033D01*
X133316410Y-131103887D01*
X133328114Y-131093286D01*
X133330220Y-131091609D01*
X133367510Y-131064517D01*
X133380177Y-131051849D01*
X133385670Y-131047478D01*
X133411787Y-131036845D01*
X133436531Y-131023334D01*
X133448004Y-131022100D01*
X133450383Y-131021132D01*
X133452805Y-131021584D01*
X133462889Y-131020500D01*
X134046610Y-131020500D01*
X134046611Y-131020500D01*
X134217701Y-130993402D01*
X134382445Y-130939873D01*
X134536788Y-130861232D01*
X134676928Y-130759414D01*
X135159414Y-130276928D01*
X135261232Y-130136788D01*
X135339873Y-129982445D01*
X135393402Y-129817701D01*
X135420500Y-129646611D01*
X135420500Y-129473389D01*
X135420500Y-129147204D01*
X135440185Y-129080165D01*
X135456819Y-129059523D01*
X135907944Y-128608398D01*
X136359414Y-128156928D01*
X136461232Y-128016788D01*
X136539873Y-127862446D01*
X136593402Y-127697701D01*
X136620500Y-127526611D01*
X136620500Y-127353390D01*
X136620500Y-126643780D01*
X136640185Y-126576741D01*
X136692989Y-126530986D01*
X136762147Y-126521042D01*
X136817386Y-126543463D01*
X136913562Y-126613340D01*
X136913564Y-126613341D01*
X136913567Y-126613343D01*
X137008760Y-126661846D01*
X137124003Y-126720566D01*
X137124005Y-126720566D01*
X137124008Y-126720568D01*
X137243782Y-126759485D01*
X137348631Y-126793553D01*
X137581903Y-126830500D01*
X137581908Y-126830500D01*
X138818097Y-126830500D01*
X139051368Y-126793553D01*
X139086010Y-126782297D01*
X139275992Y-126720568D01*
X139486433Y-126613343D01*
X139677510Y-126474517D01*
X139844517Y-126307510D01*
X139983343Y-126116433D01*
X140090568Y-125905992D01*
X140163553Y-125681368D01*
X140174462Y-125612490D01*
X140200500Y-125448097D01*
X140200500Y-125211902D01*
X140163553Y-124978631D01*
X140125118Y-124860342D01*
X140090568Y-124754008D01*
X140090566Y-124754005D01*
X140090566Y-124754003D01*
X140003331Y-124582796D01*
X139983343Y-124543567D01*
X139844517Y-124352490D01*
X139677510Y-124185483D01*
X139642872Y-124160317D01*
X139600207Y-124104989D01*
X139594228Y-124035375D01*
X139626833Y-123973580D01*
X139642873Y-123959682D01*
X139677510Y-123934517D01*
X139844517Y-123767510D01*
X139983343Y-123576433D01*
X140090568Y-123365992D01*
X140163553Y-123141368D01*
X140165333Y-123130127D01*
X140200500Y-122908097D01*
X140200500Y-122671902D01*
X140163553Y-122438631D01*
X140125645Y-122321964D01*
X140090568Y-122214008D01*
X140090566Y-122214005D01*
X140090566Y-122214003D01*
X140003340Y-122042813D01*
X139983343Y-122003567D01*
X139844517Y-121812490D01*
X139677510Y-121645483D01*
X139642872Y-121620317D01*
X139600207Y-121564989D01*
X139594228Y-121495375D01*
X139626833Y-121433580D01*
X139642873Y-121419682D01*
X139677510Y-121394517D01*
X139844517Y-121227510D01*
X139983343Y-121036433D01*
X140090568Y-120825992D01*
X140163553Y-120601368D01*
X140172710Y-120543553D01*
X140200500Y-120368097D01*
X140200500Y-120131902D01*
X140163553Y-119898631D01*
X140114676Y-119748205D01*
X140090568Y-119674008D01*
X140090566Y-119674005D01*
X140090566Y-119674003D01*
X139983342Y-119463566D01*
X139973435Y-119449930D01*
X139844517Y-119272490D01*
X139677510Y-119105483D01*
X139642872Y-119080317D01*
X139627310Y-119060136D01*
X139608754Y-119042660D01*
X139606329Y-119032928D01*
X139600207Y-119024989D01*
X139598026Y-118999597D01*
X139591864Y-118974862D01*
X139595085Y-118965364D01*
X139594228Y-118955375D01*
X139606121Y-118932833D01*
X139614310Y-118908696D01*
X139624109Y-118898741D01*
X139626833Y-118893580D01*
X139638508Y-118883003D01*
X139640644Y-118881301D01*
X139677510Y-118854517D01*
X139690162Y-118841864D01*
X139695639Y-118837503D01*
X139721770Y-118826854D01*
X139746531Y-118813334D01*
X139757966Y-118812104D01*
X139760343Y-118811136D01*
X139762768Y-118811588D01*
X139772889Y-118810500D01*
X140872796Y-118810500D01*
X140939835Y-118830185D01*
X140960477Y-118846819D01*
X141403181Y-119289523D01*
X141436666Y-119350846D01*
X141439500Y-119377204D01*
X141439500Y-127433389D01*
X141439500Y-127606611D01*
X141447297Y-127655842D01*
X141461433Y-127745095D01*
X141466598Y-127777701D01*
X141520127Y-127942445D01*
X141598768Y-128096788D01*
X141700586Y-128236928D01*
X141700588Y-128236930D01*
X143501287Y-130037629D01*
X143511485Y-130056306D01*
X143525653Y-130072192D01*
X143532824Y-130095385D01*
X143534772Y-130098952D01*
X143536079Y-130105911D01*
X143544198Y-130157170D01*
X143535244Y-130226464D01*
X143509406Y-130264250D01*
X142250477Y-131523181D01*
X142189154Y-131556666D01*
X142162796Y-131559500D01*
X140972889Y-131559500D01*
X140905850Y-131539815D01*
X140885208Y-131523181D01*
X140877512Y-131515485D01*
X140877510Y-131515483D01*
X140686433Y-131376657D01*
X140475996Y-131269433D01*
X140251368Y-131196446D01*
X140018097Y-131159500D01*
X140018092Y-131159500D01*
X138781908Y-131159500D01*
X138781903Y-131159500D01*
X138548631Y-131196446D01*
X138324003Y-131269433D01*
X138113566Y-131376657D01*
X138004550Y-131455862D01*
X137922490Y-131515483D01*
X137922488Y-131515485D01*
X137922487Y-131515485D01*
X137755485Y-131682487D01*
X137755485Y-131682488D01*
X137755483Y-131682490D01*
X137735496Y-131710000D01*
X137616657Y-131873566D01*
X137509433Y-132084003D01*
X137436446Y-132308631D01*
X137399500Y-132541902D01*
X137399500Y-132778097D01*
X137436446Y-133011368D01*
X137509433Y-133235996D01*
X137589882Y-133393885D01*
X137616657Y-133446433D01*
X137755483Y-133637510D01*
X137922490Y-133804517D01*
X138113567Y-133943343D01*
X138172536Y-133973389D01*
X138324003Y-134050566D01*
X138324005Y-134050566D01*
X138324008Y-134050568D01*
X138444412Y-134089689D01*
X138548631Y-134123553D01*
X138781903Y-134160500D01*
X138781908Y-134160500D01*
X140018097Y-134160500D01*
X140251368Y-134123553D01*
X140475992Y-134050568D01*
X140686433Y-133943343D01*
X140877510Y-133804517D01*
X140885208Y-133796819D01*
X140946531Y-133763334D01*
X140972889Y-133760500D01*
X142756610Y-133760500D01*
X142756611Y-133760500D01*
X142927701Y-133733402D01*
X143092445Y-133679873D01*
X143246788Y-133601232D01*
X143386928Y-133499414D01*
X143832420Y-133053922D01*
X149750000Y-133053922D01*
X149750000Y-133146078D01*
X149773852Y-133235095D01*
X149819930Y-133314905D01*
X149885095Y-133380070D01*
X149964905Y-133426148D01*
X150053922Y-133450000D01*
X150146078Y-133450000D01*
X150235095Y-133426148D01*
X150314905Y-133380070D01*
X150380070Y-133314905D01*
X150426148Y-133235095D01*
X150450000Y-133146078D01*
X150450000Y-133053922D01*
X150426148Y-132964905D01*
X150380070Y-132885095D01*
X150314905Y-132819930D01*
X150235095Y-132773852D01*
X150146078Y-132750000D01*
X150053922Y-132750000D01*
X149964905Y-132773852D01*
X149885095Y-132819930D01*
X149819930Y-132885095D01*
X149773852Y-132964905D01*
X149750000Y-133053922D01*
X143832420Y-133053922D01*
X144536342Y-132349999D01*
X148298654Y-132349999D01*
X148298655Y-132350000D01*
X149350000Y-132350000D01*
X150850000Y-132350000D01*
X151901345Y-132350000D01*
X151901345Y-132349999D01*
X151882916Y-132313830D01*
X151744133Y-132122813D01*
X151577186Y-131955866D01*
X151386171Y-131817085D01*
X151175802Y-131709897D01*
X150951247Y-131636934D01*
X150850000Y-131620897D01*
X150850000Y-132350000D01*
X149350000Y-132350000D01*
X149350000Y-131620897D01*
X149248752Y-131636934D01*
X149024197Y-131709897D01*
X148813828Y-131817085D01*
X148622813Y-131955866D01*
X148455866Y-132122813D01*
X148317083Y-132313830D01*
X148298654Y-132349999D01*
X144536342Y-132349999D01*
X145283137Y-131603203D01*
X145344458Y-131569720D01*
X145390213Y-131568413D01*
X145403389Y-131570500D01*
X145403391Y-131570500D01*
X145576610Y-131570500D01*
X145576611Y-131570500D01*
X145747701Y-131543402D01*
X145912445Y-131489873D01*
X146066788Y-131411232D01*
X146185312Y-131325118D01*
X146238792Y-131302966D01*
X146361368Y-131283553D01*
X146585992Y-131210568D01*
X146796433Y-131103343D01*
X146987510Y-130964517D01*
X147154517Y-130797510D01*
X147293343Y-130606433D01*
X147400568Y-130395992D01*
X147473553Y-130171368D01*
X147479030Y-130136788D01*
X147510500Y-129938097D01*
X147510500Y-129701902D01*
X147473553Y-129468631D01*
X147422870Y-129312647D01*
X147400568Y-129244008D01*
X147400566Y-129244005D01*
X147400566Y-129244003D01*
X147308685Y-129063678D01*
X147293343Y-129033567D01*
X147154517Y-128842490D01*
X146987510Y-128675483D01*
X146796433Y-128536657D01*
X146791397Y-128534091D01*
X146585996Y-128429433D01*
X146361368Y-128356446D01*
X146128097Y-128319500D01*
X146128092Y-128319500D01*
X144947204Y-128319500D01*
X144880165Y-128299815D01*
X144859523Y-128283181D01*
X143676819Y-127100477D01*
X143643334Y-127039154D01*
X143640500Y-127012796D01*
X143640500Y-125799657D01*
X143660185Y-125732618D01*
X143712989Y-125686863D01*
X143782147Y-125676919D01*
X143845703Y-125705944D01*
X143882431Y-125761338D01*
X143929433Y-125905996D01*
X143995670Y-126035992D01*
X144036657Y-126116433D01*
X144175483Y-126307510D01*
X144342490Y-126474517D01*
X144533567Y-126613343D01*
X144632991Y-126664002D01*
X144744003Y-126720566D01*
X144744005Y-126720566D01*
X144744008Y-126720568D01*
X144863782Y-126759485D01*
X144968631Y-126793553D01*
X145201903Y-126830500D01*
X145201908Y-126830500D01*
X146438097Y-126830500D01*
X146671368Y-126793553D01*
X146706010Y-126782297D01*
X146895992Y-126720568D01*
X147106433Y-126613343D01*
X147297510Y-126474517D01*
X147464517Y-126307510D01*
X147603343Y-126116433D01*
X147710568Y-125905992D01*
X147783553Y-125681368D01*
X147794462Y-125612490D01*
X147820500Y-125448097D01*
X147820500Y-125211902D01*
X147783553Y-124978631D01*
X147745118Y-124860342D01*
X147710568Y-124754008D01*
X147710566Y-124754005D01*
X147710566Y-124754003D01*
X147623331Y-124582796D01*
X147603343Y-124543567D01*
X147464517Y-124352490D01*
X147297510Y-124185483D01*
X147262447Y-124160008D01*
X147219782Y-124104679D01*
X147213803Y-124035066D01*
X147246409Y-123973271D01*
X147262450Y-123959371D01*
X147297182Y-123934137D01*
X147464133Y-123767186D01*
X147602916Y-123576169D01*
X147621345Y-123540000D01*
X145944000Y-123540000D01*
X145876961Y-123520315D01*
X145831206Y-123467511D01*
X145820000Y-123416000D01*
X145820000Y-123140000D01*
X145866078Y-123140000D01*
X145955095Y-123116148D01*
X146034905Y-123070070D01*
X146100070Y-123004905D01*
X146146148Y-122925095D01*
X146170000Y-122836078D01*
X146170000Y-122743922D01*
X146146148Y-122654905D01*
X146100070Y-122575095D01*
X146034905Y-122509930D01*
X145955095Y-122463852D01*
X145866078Y-122440000D01*
X145820000Y-122440000D01*
X145820000Y-122164000D01*
X145839685Y-122096961D01*
X145892489Y-122051206D01*
X145944000Y-122040000D01*
X147621345Y-122040000D01*
X147621345Y-122039999D01*
X147602916Y-122003830D01*
X147464133Y-121812813D01*
X147297183Y-121645863D01*
X147262446Y-121620625D01*
X147246870Y-121600426D01*
X147228309Y-121582933D01*
X147225892Y-121573221D01*
X147219781Y-121565295D01*
X147217598Y-121539881D01*
X147211441Y-121515130D01*
X147214659Y-121505652D01*
X147213803Y-121495681D01*
X147225706Y-121473123D01*
X147233908Y-121448971D01*
X147243694Y-121439033D01*
X147246410Y-121433887D01*
X147258114Y-121423286D01*
X147260220Y-121421609D01*
X147297510Y-121394517D01*
X147310177Y-121381849D01*
X147315670Y-121377478D01*
X147341787Y-121366845D01*
X147366531Y-121353334D01*
X147378004Y-121352100D01*
X147380383Y-121351132D01*
X147382805Y-121351584D01*
X147392889Y-121350500D01*
X147622796Y-121350500D01*
X147689835Y-121370185D01*
X147710477Y-121386819D01*
X148753181Y-122429523D01*
X148786666Y-122490846D01*
X148789500Y-122517204D01*
X148789500Y-123438097D01*
X148826446Y-123671368D01*
X148899433Y-123895996D01*
X148995387Y-124084315D01*
X149006657Y-124106433D01*
X149145483Y-124297510D01*
X149312490Y-124464517D01*
X149503567Y-124603343D01*
X149564045Y-124634158D01*
X149714003Y-124710566D01*
X149714005Y-124710566D01*
X149714008Y-124710568D01*
X149813429Y-124742872D01*
X149938631Y-124783553D01*
X150171903Y-124820500D01*
X150171908Y-124820500D01*
X150408097Y-124820500D01*
X150641368Y-124783553D01*
X150865992Y-124710568D01*
X151076433Y-124603343D01*
X151267510Y-124464517D01*
X151434517Y-124297510D01*
X151573343Y-124106433D01*
X151680568Y-123895992D01*
X151753553Y-123671368D01*
X151768631Y-123576169D01*
X151790500Y-123438097D01*
X151790500Y-122201902D01*
X151753553Y-121968631D01*
X151702819Y-121812490D01*
X151680568Y-121744008D01*
X151680566Y-121744005D01*
X151680566Y-121744003D01*
X151601808Y-121589433D01*
X151573343Y-121533567D01*
X151434517Y-121342490D01*
X151267510Y-121175483D01*
X151076433Y-121036657D01*
X151036227Y-121016171D01*
X150865996Y-120929433D01*
X150641368Y-120856446D01*
X150408097Y-120819500D01*
X150408092Y-120819500D01*
X150307204Y-120819500D01*
X150240165Y-120799815D01*
X150219523Y-120783181D01*
X148846930Y-119410588D01*
X148846928Y-119410586D01*
X148706788Y-119308768D01*
X148552445Y-119230127D01*
X148387701Y-119176598D01*
X148387699Y-119176597D01*
X148387698Y-119176597D01*
X148256271Y-119155781D01*
X148216611Y-119149500D01*
X148216610Y-119149500D01*
X147392889Y-119149500D01*
X147369936Y-119142760D01*
X147346131Y-119140347D01*
X147333767Y-119132139D01*
X147325850Y-119129815D01*
X147315669Y-119122521D01*
X147310176Y-119118149D01*
X147297510Y-119105483D01*
X147260236Y-119078402D01*
X147258113Y-119076712D01*
X147239515Y-119050269D01*
X147219782Y-119024679D01*
X147219540Y-119021869D01*
X147217918Y-119019562D01*
X147216568Y-118987262D01*
X147213803Y-118955066D01*
X147215118Y-118952572D01*
X147215001Y-118949754D01*
X147231327Y-118921853D01*
X147246409Y-118893271D01*
X147249744Y-118890380D01*
X147250289Y-118889450D01*
X147251569Y-118888799D01*
X147262450Y-118879371D01*
X147297182Y-118854137D01*
X147401319Y-118750000D01*
X156718655Y-118750000D01*
X156737083Y-118786169D01*
X156875866Y-118977186D01*
X157042813Y-119144133D01*
X157233828Y-119282914D01*
X157444195Y-119390102D01*
X157668744Y-119463063D01*
X157668750Y-119463065D01*
X157770000Y-119479101D01*
X157770000Y-118750000D01*
X156718655Y-118750000D01*
X147401319Y-118750000D01*
X147464133Y-118687186D01*
X147464140Y-118687177D01*
X147475507Y-118671534D01*
X147602914Y-118496172D01*
X147621345Y-118460000D01*
X144018655Y-118460000D01*
X144037083Y-118496169D01*
X144175866Y-118687186D01*
X144342815Y-118854135D01*
X144377551Y-118879372D01*
X144420217Y-118934702D01*
X144426196Y-119004315D01*
X144393591Y-119066111D01*
X144377552Y-119080008D01*
X144342496Y-119105478D01*
X144342487Y-119105485D01*
X144175485Y-119272487D01*
X144175485Y-119272488D01*
X144175483Y-119272490D01*
X144118554Y-119350846D01*
X144036657Y-119463566D01*
X143929433Y-119674003D01*
X143882431Y-119818661D01*
X143842993Y-119876336D01*
X143778634Y-119903534D01*
X143709788Y-119891619D01*
X143658312Y-119844375D01*
X143640500Y-119780342D01*
X143640500Y-118783389D01*
X143613402Y-118612299D01*
X143559873Y-118447555D01*
X143481232Y-118293212D01*
X143379414Y-118153072D01*
X143256928Y-118030586D01*
X142890264Y-117663922D01*
X145470000Y-117663922D01*
X145470000Y-117756078D01*
X145493852Y-117845095D01*
X145539930Y-117924905D01*
X145605095Y-117990070D01*
X145684905Y-118036148D01*
X145773922Y-118060000D01*
X145866078Y-118060000D01*
X145955095Y-118036148D01*
X146034905Y-117990070D01*
X146071053Y-117953922D01*
X158170000Y-117953922D01*
X158170000Y-118046078D01*
X158193852Y-118135095D01*
X158239930Y-118214905D01*
X158305095Y-118280070D01*
X158384905Y-118326148D01*
X158473922Y-118350000D01*
X158566078Y-118350000D01*
X158655095Y-118326148D01*
X158734905Y-118280070D01*
X158800070Y-118214905D01*
X158846148Y-118135095D01*
X158870000Y-118046078D01*
X158870000Y-117953922D01*
X158846148Y-117864905D01*
X158800070Y-117785095D01*
X158734905Y-117719930D01*
X158655095Y-117673852D01*
X158566078Y-117650000D01*
X158473922Y-117650000D01*
X158384905Y-117673852D01*
X158305095Y-117719930D01*
X158239930Y-117785095D01*
X158193852Y-117864905D01*
X158170000Y-117953922D01*
X146071053Y-117953922D01*
X146100070Y-117924905D01*
X146146148Y-117845095D01*
X146170000Y-117756078D01*
X146170000Y-117663922D01*
X146146148Y-117574905D01*
X146100070Y-117495095D01*
X146034905Y-117429930D01*
X145955095Y-117383852D01*
X145866078Y-117360000D01*
X145773922Y-117360000D01*
X145684905Y-117383852D01*
X145605095Y-117429930D01*
X145539930Y-117495095D01*
X145493852Y-117574905D01*
X145470000Y-117663922D01*
X142890264Y-117663922D01*
X142186341Y-116959999D01*
X144018654Y-116959999D01*
X144018655Y-116960000D01*
X145070000Y-116960000D01*
X146570000Y-116960000D01*
X147621345Y-116960000D01*
X147621345Y-116959999D01*
X147602916Y-116923830D01*
X147464133Y-116732813D01*
X147297186Y-116565866D01*
X147106171Y-116427085D01*
X146895802Y-116319897D01*
X146671247Y-116246934D01*
X146570000Y-116230897D01*
X146570000Y-116960000D01*
X145070000Y-116960000D01*
X145070000Y-116230897D01*
X144968752Y-116246934D01*
X144744197Y-116319897D01*
X144533828Y-116427085D01*
X144342813Y-116565866D01*
X144175866Y-116732813D01*
X144037083Y-116923830D01*
X144018654Y-116959999D01*
X142186341Y-116959999D01*
X142096928Y-116870586D01*
X141956788Y-116768768D01*
X141802445Y-116690127D01*
X141637701Y-116636598D01*
X141637699Y-116636597D01*
X141637698Y-116636597D01*
X141506271Y-116615781D01*
X141466611Y-116609500D01*
X141466610Y-116609500D01*
X139772889Y-116609500D01*
X139705850Y-116589815D01*
X139685208Y-116573181D01*
X139677512Y-116565485D01*
X139677510Y-116565483D01*
X139486433Y-116426657D01*
X139275996Y-116319433D01*
X139051368Y-116246446D01*
X138818097Y-116209500D01*
X138818092Y-116209500D01*
X137581908Y-116209500D01*
X137581903Y-116209500D01*
X137348631Y-116246446D01*
X137124003Y-116319433D01*
X136913566Y-116426657D01*
X136804550Y-116505862D01*
X136722490Y-116565483D01*
X136722488Y-116565485D01*
X136722487Y-116565485D01*
X136555485Y-116732487D01*
X136555485Y-116732488D01*
X136555483Y-116732490D01*
X136508863Y-116796657D01*
X136416657Y-116923566D01*
X136309433Y-117134003D01*
X136236446Y-117358631D01*
X136199500Y-117591902D01*
X136199500Y-117828097D01*
X136236446Y-118061368D01*
X136309433Y-118285996D01*
X136364218Y-118393516D01*
X136416657Y-118496433D01*
X136555483Y-118687510D01*
X136722490Y-118854517D01*
X136757127Y-118879683D01*
X136772690Y-118899865D01*
X136791244Y-118917340D01*
X136793668Y-118927071D01*
X136799792Y-118935013D01*
X136801972Y-118960402D01*
X136808135Y-118985137D01*
X136804912Y-118994635D01*
X136805771Y-119004626D01*
X136793877Y-119027166D01*
X136785690Y-119051303D01*
X136775888Y-119061259D01*
X136773165Y-119066421D01*
X136761492Y-119076996D01*
X136759343Y-119078707D01*
X136722490Y-119105483D01*
X136709839Y-119118133D01*
X136704362Y-119122496D01*
X136678231Y-119133144D01*
X136653469Y-119146666D01*
X136642034Y-119147895D01*
X136639658Y-119148864D01*
X136637231Y-119148411D01*
X136627111Y-119149500D01*
X136533389Y-119149500D01*
X136493728Y-119155781D01*
X136362302Y-119176597D01*
X136197552Y-119230128D01*
X136043211Y-119308768D01*
X135985297Y-119350846D01*
X135903072Y-119410586D01*
X135903070Y-119410588D01*
X135903069Y-119410588D01*
X134680588Y-120633069D01*
X134680588Y-120633070D01*
X134680586Y-120633072D01*
X134666385Y-120652618D01*
X134578768Y-120773211D01*
X134500128Y-120927552D01*
X134446597Y-121092302D01*
X134419500Y-121263389D01*
X134419500Y-121728633D01*
X134399815Y-121795672D01*
X134347011Y-121841427D01*
X134277853Y-121851371D01*
X134222615Y-121828951D01*
X134096172Y-121737085D01*
X134060000Y-121718654D01*
X134060000Y-125321343D01*
X134096167Y-125302917D01*
X134096171Y-125302914D01*
X134222615Y-125211048D01*
X134288421Y-125187568D01*
X134356475Y-125203393D01*
X134405170Y-125253499D01*
X134419500Y-125311366D01*
X134419500Y-126932795D01*
X134399815Y-126999834D01*
X134383181Y-127020476D01*
X134096937Y-127306720D01*
X134035614Y-127340205D01*
X133965922Y-127335221D01*
X133909989Y-127293349D01*
X133886783Y-127238437D01*
X133853553Y-127028631D01*
X133811074Y-126897895D01*
X133780568Y-126804008D01*
X133780566Y-126804005D01*
X133780566Y-126804003D01*
X133698928Y-126643780D01*
X133673343Y-126593567D01*
X133534517Y-126402490D01*
X133367510Y-126235483D01*
X133176433Y-126096657D01*
X132965996Y-125989433D01*
X132741368Y-125916446D01*
X132508097Y-125879500D01*
X132508092Y-125879500D01*
X131607204Y-125879500D01*
X131540165Y-125859815D01*
X131519523Y-125843181D01*
X131126819Y-125450477D01*
X131093334Y-125389154D01*
X131090500Y-125362796D01*
X131090500Y-125052889D01*
X131110185Y-124985850D01*
X131126819Y-124965208D01*
X131134517Y-124957510D01*
X131273343Y-124766433D01*
X131380568Y-124555992D01*
X131453553Y-124331368D01*
X131458890Y-124297671D01*
X131463273Y-124270000D01*
X131830898Y-124270000D01*
X131846934Y-124371247D01*
X131919897Y-124595802D01*
X132027085Y-124806171D01*
X132165866Y-124997186D01*
X132332813Y-125164133D01*
X132332819Y-125164138D01*
X132523827Y-125302914D01*
X132523832Y-125302917D01*
X132560000Y-125321344D01*
X132560000Y-124270000D01*
X131830898Y-124270000D01*
X131463273Y-124270000D01*
X131472216Y-124213539D01*
X131490500Y-124098097D01*
X131490500Y-123473922D01*
X132960000Y-123473922D01*
X132960000Y-123566078D01*
X132983852Y-123655095D01*
X133029930Y-123734905D01*
X133095095Y-123800070D01*
X133174905Y-123846148D01*
X133263922Y-123870000D01*
X133356078Y-123870000D01*
X133445095Y-123846148D01*
X133524905Y-123800070D01*
X133590070Y-123734905D01*
X133636148Y-123655095D01*
X133660000Y-123566078D01*
X133660000Y-123473922D01*
X133636148Y-123384905D01*
X133590070Y-123305095D01*
X133524905Y-123239930D01*
X133445095Y-123193852D01*
X133356078Y-123170000D01*
X133263922Y-123170000D01*
X133174905Y-123193852D01*
X133095095Y-123239930D01*
X133029930Y-123305095D01*
X132983852Y-123384905D01*
X132960000Y-123473922D01*
X131490500Y-123473922D01*
X131490500Y-122861907D01*
X131484886Y-122826460D01*
X131484886Y-122826457D01*
X131475944Y-122770000D01*
X131830898Y-122770000D01*
X132560000Y-122770000D01*
X132560000Y-121718655D01*
X132559999Y-121718654D01*
X132523830Y-121737083D01*
X132332813Y-121875866D01*
X132165866Y-122042813D01*
X132027085Y-122233828D01*
X131919897Y-122444197D01*
X131846934Y-122668752D01*
X131830898Y-122770000D01*
X131475944Y-122770000D01*
X131453553Y-122628631D01*
X131400659Y-122465842D01*
X131380568Y-122404008D01*
X131380566Y-122404005D01*
X131380566Y-122404003D01*
X131285190Y-122216819D01*
X131273343Y-122193567D01*
X131134517Y-122002490D01*
X130967510Y-121835483D01*
X130776433Y-121696657D01*
X130737177Y-121676655D01*
X130565996Y-121589433D01*
X130341368Y-121516446D01*
X130108097Y-121479500D01*
X130108092Y-121479500D01*
X129871908Y-121479500D01*
X129871903Y-121479500D01*
X129638631Y-121516446D01*
X129414003Y-121589433D01*
X129203566Y-121696657D01*
X129094550Y-121775862D01*
X129012490Y-121835483D01*
X129012488Y-121835485D01*
X129012487Y-121835485D01*
X128845485Y-122002487D01*
X128845485Y-122002488D01*
X128845483Y-122002490D01*
X128785862Y-122084550D01*
X128706657Y-122193566D01*
X128599433Y-122404003D01*
X128526446Y-122628631D01*
X128489500Y-122861902D01*
X128489500Y-124098097D01*
X128526446Y-124331368D01*
X128599434Y-124555999D01*
X128606164Y-124569206D01*
X128619060Y-124637876D01*
X128592783Y-124702616D01*
X128535676Y-124742872D01*
X128495679Y-124749500D01*
X128238020Y-124749500D01*
X128170981Y-124729815D01*
X128127534Y-124681793D01*
X128123342Y-124673566D01*
X128121098Y-124670477D01*
X127984517Y-124482490D01*
X127817510Y-124315483D01*
X127626433Y-124176657D01*
X127594366Y-124160318D01*
X127415996Y-124069433D01*
X127191368Y-123996446D01*
X126958097Y-123959500D01*
X126958092Y-123959500D01*
X126447204Y-123959500D01*
X126380165Y-123939815D01*
X126359523Y-123923181D01*
X125746930Y-123310588D01*
X125746928Y-123310586D01*
X125606788Y-123208768D01*
X125452445Y-123130127D01*
X125287701Y-123076598D01*
X125287699Y-123076597D01*
X125287698Y-123076597D01*
X125156271Y-123055781D01*
X125116611Y-123049500D01*
X115216611Y-123049500D01*
X115043389Y-123049500D01*
X115003728Y-123055781D01*
X114872302Y-123076597D01*
X114707552Y-123130128D01*
X114553211Y-123208768D01*
X114510321Y-123239930D01*
X114413072Y-123310586D01*
X114413070Y-123310588D01*
X114413069Y-123310588D01*
X113720476Y-124003181D01*
X113659153Y-124036666D01*
X113632795Y-124039500D01*
X111192129Y-124039500D01*
X111192123Y-124039501D01*
X111132516Y-124045908D01*
X110997671Y-124096202D01*
X110997664Y-124096206D01*
X110882455Y-124182452D01*
X110882452Y-124182455D01*
X110796206Y-124297664D01*
X110796202Y-124297671D01*
X110745908Y-124432517D01*
X110739501Y-124492116D01*
X110739500Y-124492135D01*
X110739500Y-124893796D01*
X110719815Y-124960835D01*
X110667011Y-125006590D01*
X110597853Y-125016534D01*
X110534297Y-124987509D01*
X110527819Y-124981477D01*
X110216819Y-124670477D01*
X110183334Y-124609154D01*
X110180500Y-124582796D01*
X110180500Y-120027227D01*
X110200185Y-119960188D01*
X110252989Y-119914433D01*
X110322147Y-119904489D01*
X110385703Y-119933514D01*
X110404818Y-119954342D01*
X110515861Y-120107180D01*
X110515866Y-120107186D01*
X110682813Y-120274133D01*
X110682819Y-120274138D01*
X110873827Y-120412914D01*
X110873832Y-120412917D01*
X110910000Y-120431344D01*
X110910000Y-120431343D01*
X112410000Y-120431343D01*
X112446167Y-120412917D01*
X112446172Y-120412914D01*
X112637180Y-120274138D01*
X112637186Y-120274133D01*
X112804133Y-120107186D01*
X112942914Y-119916171D01*
X113050102Y-119705802D01*
X113123065Y-119481247D01*
X113139102Y-119380000D01*
X112410000Y-119380000D01*
X112410000Y-120431343D01*
X110910000Y-120431343D01*
X110910000Y-118583922D01*
X111310000Y-118583922D01*
X111310000Y-118676078D01*
X111333852Y-118765095D01*
X111379930Y-118844905D01*
X111445095Y-118910070D01*
X111524905Y-118956148D01*
X111613922Y-118980000D01*
X111706078Y-118980000D01*
X111795095Y-118956148D01*
X111874905Y-118910070D01*
X111940070Y-118844905D01*
X111986148Y-118765095D01*
X112010000Y-118676078D01*
X112010000Y-118583922D01*
X111986148Y-118494905D01*
X111940070Y-118415095D01*
X111874905Y-118349930D01*
X111795095Y-118303852D01*
X111706078Y-118280000D01*
X111613922Y-118280000D01*
X111524905Y-118303852D01*
X111445095Y-118349930D01*
X111379930Y-118415095D01*
X111333852Y-118494905D01*
X111310000Y-118583922D01*
X110910000Y-118583922D01*
X110910000Y-117880000D01*
X112410000Y-117880000D01*
X113139102Y-117880000D01*
X113123065Y-117778752D01*
X113050102Y-117554197D01*
X112942914Y-117343828D01*
X112804133Y-117152813D01*
X112637186Y-116985866D01*
X112446169Y-116847083D01*
X112410000Y-116828654D01*
X112410000Y-117880000D01*
X110910000Y-117880000D01*
X110910000Y-116828655D01*
X110909999Y-116828654D01*
X110873830Y-116847083D01*
X110682813Y-116985866D01*
X110515866Y-117152813D01*
X110404818Y-117305658D01*
X110349488Y-117348323D01*
X110279875Y-117354302D01*
X110218080Y-117321696D01*
X110183722Y-117260857D01*
X110180500Y-117232772D01*
X110180500Y-109868078D01*
X110200185Y-109801039D01*
X110252989Y-109755284D01*
X110322147Y-109745340D01*
X110385703Y-109774365D01*
X110404817Y-109795192D01*
X110515483Y-109947510D01*
X110682490Y-110114517D01*
X110873567Y-110253343D01*
X110972991Y-110304002D01*
X111084003Y-110360566D01*
X111084005Y-110360566D01*
X111084008Y-110360568D01*
X111204412Y-110399689D01*
X111308631Y-110433553D01*
X111541903Y-110470500D01*
X111541908Y-110470500D01*
X111778097Y-110470500D01*
X112011368Y-110433553D01*
X112235992Y-110360568D01*
X112446433Y-110253343D01*
X112637510Y-110114517D01*
X112804517Y-109947510D01*
X112943343Y-109756433D01*
X113003583Y-109638204D01*
X113051558Y-109587409D01*
X113114068Y-109570500D01*
X114071408Y-109570500D01*
X114138447Y-109590185D01*
X114181893Y-109638205D01*
X114216657Y-109706433D01*
X114355483Y-109897510D01*
X114522490Y-110064517D01*
X114713567Y-110203343D01*
X114806118Y-110250500D01*
X114924003Y-110310566D01*
X114924005Y-110310566D01*
X114924008Y-110310568D01*
X115044412Y-110349689D01*
X115148631Y-110383553D01*
X115381903Y-110420500D01*
X115381908Y-110420500D01*
X115618097Y-110420500D01*
X115851368Y-110383553D01*
X115922114Y-110360566D01*
X116075992Y-110310568D01*
X116286433Y-110203343D01*
X116477510Y-110064517D01*
X116644517Y-109897510D01*
X116783343Y-109706433D01*
X116890568Y-109495992D01*
X116963553Y-109271368D01*
X116963986Y-109268632D01*
X117000500Y-109038097D01*
X117000500Y-107801902D01*
X116963553Y-107568631D01*
X116926005Y-107453072D01*
X116890568Y-107344008D01*
X116890566Y-107344005D01*
X116890566Y-107344003D01*
X116805240Y-107176542D01*
X116783343Y-107133567D01*
X116644517Y-106942490D01*
X116644508Y-106942481D01*
X116641353Y-106938786D01*
X116642844Y-106937512D01*
X116613334Y-106883469D01*
X116610500Y-106857111D01*
X116610500Y-106060000D01*
X118888655Y-106060000D01*
X118907083Y-106096169D01*
X119045866Y-106287186D01*
X119212813Y-106454133D01*
X119403828Y-106592914D01*
X119614195Y-106700102D01*
X119838744Y-106773063D01*
X119838750Y-106773065D01*
X119940000Y-106789101D01*
X119940000Y-106060000D01*
X118888655Y-106060000D01*
X116610500Y-106060000D01*
X116610500Y-106057204D01*
X116615188Y-106041238D01*
X116614546Y-106036773D01*
X116619585Y-106025738D01*
X116625668Y-105997777D01*
X116629422Y-105992761D01*
X116630185Y-105990165D01*
X116643216Y-105973993D01*
X116643571Y-105973217D01*
X116645586Y-105971052D01*
X116646819Y-105969523D01*
X118484523Y-104131819D01*
X118545846Y-104098334D01*
X118572204Y-104095500D01*
X118983818Y-104095500D01*
X119050857Y-104115185D01*
X119096612Y-104167989D01*
X119106556Y-104237147D01*
X119077531Y-104300703D01*
X119071499Y-104307181D01*
X119045866Y-104332813D01*
X118907083Y-104523830D01*
X118888654Y-104559999D01*
X118888655Y-104560000D01*
X120566000Y-104560000D01*
X120633039Y-104579685D01*
X120678794Y-104632489D01*
X120690000Y-104684000D01*
X120690000Y-104960000D01*
X120643922Y-104960000D01*
X120554905Y-104983852D01*
X120475095Y-105029930D01*
X120409930Y-105095095D01*
X120363852Y-105174905D01*
X120340000Y-105263922D01*
X120340000Y-105356078D01*
X120363852Y-105445095D01*
X120409930Y-105524905D01*
X120475095Y-105590070D01*
X120554905Y-105636148D01*
X120643922Y-105660000D01*
X120736078Y-105660000D01*
X120825095Y-105636148D01*
X120904905Y-105590070D01*
X120970070Y-105524905D01*
X121016148Y-105445095D01*
X121040000Y-105356078D01*
X121040000Y-105310000D01*
X121316000Y-105310000D01*
X121383039Y-105329685D01*
X121428794Y-105382489D01*
X121440000Y-105434000D01*
X121440000Y-106789100D01*
X121541249Y-106773065D01*
X121541255Y-106773063D01*
X121765804Y-106700102D01*
X121976171Y-106592914D01*
X122167186Y-106454133D01*
X122187819Y-106433501D01*
X122249142Y-106400016D01*
X122318834Y-106405000D01*
X122374767Y-106446872D01*
X122399184Y-106512336D01*
X122399500Y-106521182D01*
X122399500Y-107125500D01*
X122379815Y-107192539D01*
X122327011Y-107238294D01*
X122275500Y-107249500D01*
X121451903Y-107249500D01*
X121218631Y-107286446D01*
X120994003Y-107359433D01*
X120783566Y-107466657D01*
X120674550Y-107545862D01*
X120592490Y-107605483D01*
X120592488Y-107605485D01*
X120592487Y-107605485D01*
X120425485Y-107772487D01*
X120425485Y-107772488D01*
X120425483Y-107772490D01*
X120400693Y-107806611D01*
X120286657Y-107963566D01*
X120179433Y-108174003D01*
X120106446Y-108398631D01*
X120069500Y-108631902D01*
X120069500Y-108868097D01*
X120106446Y-109101368D01*
X120179433Y-109325996D01*
X120276585Y-109516666D01*
X120286657Y-109536433D01*
X120425483Y-109727510D01*
X120592490Y-109894517D01*
X120783567Y-110033343D01*
X120882991Y-110084002D01*
X120994003Y-110140566D01*
X120994005Y-110140566D01*
X120994008Y-110140568D01*
X121114412Y-110179689D01*
X121218631Y-110213553D01*
X121451903Y-110250500D01*
X121451908Y-110250500D01*
X122688097Y-110250500D01*
X122921368Y-110213553D01*
X122952794Y-110203342D01*
X123145992Y-110140568D01*
X123356433Y-110033343D01*
X123547510Y-109894517D01*
X123714517Y-109727510D01*
X123853343Y-109536433D01*
X123957513Y-109331988D01*
X123960566Y-109325996D01*
X123960566Y-109325995D01*
X123960568Y-109325992D01*
X124033553Y-109101368D01*
X124042038Y-109047794D01*
X124051154Y-109028562D01*
X124055679Y-109007764D01*
X124070225Y-108988332D01*
X124071967Y-108984659D01*
X124076811Y-108979529D01*
X124252138Y-108804202D01*
X124313458Y-108770720D01*
X124383150Y-108775704D01*
X124439083Y-108817576D01*
X124457747Y-108853567D01*
X124480128Y-108922449D01*
X124539054Y-109038097D01*
X124558768Y-109076788D01*
X124660586Y-109216928D01*
X126780586Y-111336928D01*
X126903072Y-111459414D01*
X127043212Y-111561232D01*
X127197555Y-111639873D01*
X127362299Y-111693402D01*
X127533389Y-111720500D01*
X128690750Y-111720500D01*
X128757789Y-111740185D01*
X128803544Y-111792989D01*
X128813488Y-111862147D01*
X128791068Y-111917386D01*
X128706657Y-112033566D01*
X128681188Y-112083553D01*
X128655705Y-112133567D01*
X128646417Y-112151795D01*
X128598442Y-112202591D01*
X128535932Y-112219500D01*
X124046611Y-112219500D01*
X123873389Y-112219500D01*
X123833728Y-112225781D01*
X123702302Y-112246597D01*
X123537552Y-112300128D01*
X123383211Y-112378768D01*
X123303256Y-112436859D01*
X123243072Y-112480586D01*
X123243070Y-112480588D01*
X123243069Y-112480588D01*
X122530477Y-113193181D01*
X122469154Y-113226666D01*
X122442796Y-113229500D01*
X121931903Y-113229500D01*
X121698631Y-113266446D01*
X121474003Y-113339433D01*
X121263566Y-113446657D01*
X121195663Y-113495992D01*
X121072490Y-113585483D01*
X121072488Y-113585485D01*
X121072487Y-113585485D01*
X121064792Y-113593181D01*
X121003469Y-113626666D01*
X120977111Y-113629500D01*
X120946611Y-113629500D01*
X120773389Y-113629500D01*
X120687844Y-113643049D01*
X120602298Y-113656598D01*
X120437549Y-113710128D01*
X120283211Y-113788768D01*
X120235683Y-113823300D01*
X120143072Y-113890586D01*
X120143070Y-113890588D01*
X120143069Y-113890588D01*
X116867803Y-117165853D01*
X116806480Y-117199338D01*
X116736788Y-117194354D01*
X116680855Y-117152482D01*
X116679805Y-117151059D01*
X116644517Y-117102490D01*
X116477512Y-116935485D01*
X116477510Y-116935483D01*
X116286433Y-116796657D01*
X116244508Y-116775295D01*
X116075996Y-116689433D01*
X115851368Y-116616446D01*
X115618097Y-116579500D01*
X115618092Y-116579500D01*
X115381908Y-116579500D01*
X115381903Y-116579500D01*
X115148631Y-116616446D01*
X114924003Y-116689433D01*
X114713566Y-116796657D01*
X114639365Y-116850568D01*
X114522490Y-116935483D01*
X114522488Y-116935485D01*
X114522487Y-116935485D01*
X114355485Y-117102487D01*
X114355485Y-117102488D01*
X114355483Y-117102490D01*
X114319162Y-117152482D01*
X114216657Y-117293566D01*
X114109433Y-117504003D01*
X114036446Y-117728631D01*
X113999500Y-117961902D01*
X113999500Y-119198097D01*
X114036446Y-119431368D01*
X114109433Y-119655996D01*
X114172791Y-119780342D01*
X114216657Y-119866433D01*
X114355483Y-120057510D01*
X114522490Y-120224517D01*
X114713567Y-120363343D01*
X114812991Y-120414002D01*
X114924003Y-120470566D01*
X114924005Y-120470566D01*
X114924008Y-120470568D01*
X114953037Y-120480000D01*
X115148631Y-120543553D01*
X115381903Y-120580500D01*
X115381908Y-120580500D01*
X115618097Y-120580500D01*
X115851368Y-120543553D01*
X116046963Y-120480000D01*
X121070898Y-120480000D01*
X121086934Y-120581247D01*
X121159897Y-120805802D01*
X121267085Y-121016171D01*
X121405866Y-121207186D01*
X121572813Y-121374133D01*
X121572819Y-121374138D01*
X121763827Y-121512914D01*
X121763832Y-121512917D01*
X121800000Y-121531344D01*
X121800000Y-121531343D01*
X123300000Y-121531343D01*
X123336167Y-121512917D01*
X123336172Y-121512914D01*
X123527180Y-121374138D01*
X123527186Y-121374133D01*
X123694133Y-121207186D01*
X123832914Y-121016171D01*
X123940102Y-120805802D01*
X124013065Y-120581247D01*
X124029102Y-120480000D01*
X123300000Y-120480000D01*
X123300000Y-121531343D01*
X121800000Y-121531343D01*
X121800000Y-120480000D01*
X121070898Y-120480000D01*
X116046963Y-120480000D01*
X116075992Y-120470568D01*
X116286433Y-120363343D01*
X116477510Y-120224517D01*
X116644517Y-120057510D01*
X116783343Y-119866433D01*
X116843583Y-119748204D01*
X116891558Y-119697409D01*
X116941417Y-119683922D01*
X122200000Y-119683922D01*
X122200000Y-119776078D01*
X122223852Y-119865095D01*
X122269930Y-119944905D01*
X122335095Y-120010070D01*
X122414905Y-120056148D01*
X122503922Y-120080000D01*
X122596078Y-120080000D01*
X122685095Y-120056148D01*
X122764905Y-120010070D01*
X122830070Y-119944905D01*
X122876148Y-119865095D01*
X122900000Y-119776078D01*
X122900000Y-119683922D01*
X122876148Y-119594905D01*
X122830070Y-119515095D01*
X122764905Y-119449930D01*
X122685095Y-119403852D01*
X122596078Y-119380000D01*
X122503922Y-119380000D01*
X122414905Y-119403852D01*
X122335095Y-119449930D01*
X122269930Y-119515095D01*
X122223852Y-119594905D01*
X122200000Y-119683922D01*
X116941417Y-119683922D01*
X116954068Y-119680500D01*
X117096610Y-119680500D01*
X117096611Y-119680500D01*
X117267701Y-119653402D01*
X117432445Y-119599873D01*
X117586788Y-119521232D01*
X117726928Y-119419414D01*
X118166342Y-118980000D01*
X121070898Y-118980000D01*
X121800000Y-118980000D01*
X123300000Y-118980000D01*
X124029102Y-118980000D01*
X124013065Y-118878752D01*
X123940102Y-118654197D01*
X123832914Y-118443828D01*
X123694133Y-118252813D01*
X123527186Y-118085866D01*
X123336169Y-117947083D01*
X123300000Y-117928654D01*
X123300000Y-118980000D01*
X121800000Y-118980000D01*
X121800000Y-117928655D01*
X121799999Y-117928654D01*
X121763830Y-117947083D01*
X121572813Y-118085866D01*
X121405866Y-118252813D01*
X121267085Y-118443828D01*
X121159897Y-118654197D01*
X121086934Y-118878752D01*
X121070898Y-118980000D01*
X118166342Y-118980000D01*
X121113488Y-116032852D01*
X121174809Y-115999369D01*
X121244501Y-116004353D01*
X121259064Y-116011448D01*
X121259226Y-116011131D01*
X121474003Y-116120566D01*
X121474005Y-116120566D01*
X121474008Y-116120568D01*
X121594412Y-116159689D01*
X121698631Y-116193553D01*
X121931903Y-116230500D01*
X121931908Y-116230500D01*
X123168097Y-116230500D01*
X123401368Y-116193553D01*
X123625992Y-116120568D01*
X123836433Y-116013343D01*
X124027510Y-115874517D01*
X124194517Y-115707510D01*
X124333343Y-115516433D01*
X124440568Y-115305992D01*
X124513553Y-115081368D01*
X124525725Y-115004517D01*
X124550500Y-114848097D01*
X124550500Y-114611901D01*
X124542897Y-114563897D01*
X124551852Y-114494604D01*
X124596848Y-114441152D01*
X124663600Y-114420513D01*
X124665370Y-114420500D01*
X128535932Y-114420500D01*
X128602971Y-114440185D01*
X128646416Y-114488203D01*
X128706657Y-114606433D01*
X128845483Y-114797510D01*
X129012490Y-114964517D01*
X129203567Y-115103343D01*
X129302991Y-115154002D01*
X129414003Y-115210566D01*
X129414005Y-115210566D01*
X129414008Y-115210568D01*
X129534412Y-115249689D01*
X129638631Y-115283553D01*
X129871903Y-115320500D01*
X129871908Y-115320500D01*
X130108097Y-115320500D01*
X130341368Y-115283553D01*
X130565992Y-115210568D01*
X130776433Y-115103343D01*
X130967510Y-114964517D01*
X131134517Y-114797510D01*
X131273343Y-114606433D01*
X131313202Y-114528204D01*
X131361177Y-114477409D01*
X131423687Y-114460500D01*
X131855932Y-114460500D01*
X131922971Y-114480185D01*
X131966416Y-114528203D01*
X132026657Y-114646433D01*
X132165483Y-114837510D01*
X132332490Y-115004517D01*
X132523567Y-115143343D01*
X132622991Y-115194002D01*
X132734003Y-115250566D01*
X132734005Y-115250566D01*
X132734008Y-115250568D01*
X132835525Y-115283553D01*
X132958631Y-115323553D01*
X133191903Y-115360500D01*
X133191908Y-115360500D01*
X133428097Y-115360500D01*
X133661368Y-115323553D01*
X133670764Y-115320500D01*
X133885992Y-115250568D01*
X134096433Y-115143343D01*
X134287510Y-115004517D01*
X134454517Y-114837510D01*
X134593343Y-114646433D01*
X134700568Y-114435992D01*
X134773553Y-114211368D01*
X134785251Y-114137510D01*
X134810199Y-113980000D01*
X139288655Y-113980000D01*
X139307083Y-114016169D01*
X139445866Y-114207186D01*
X139612813Y-114374133D01*
X139803828Y-114512914D01*
X140014195Y-114620102D01*
X140238744Y-114693063D01*
X140238750Y-114693065D01*
X140340000Y-114709101D01*
X140340000Y-114709100D01*
X141840000Y-114709100D01*
X141941249Y-114693065D01*
X141941255Y-114693063D01*
X142165804Y-114620102D01*
X142376171Y-114512914D01*
X142567186Y-114374133D01*
X142734133Y-114207186D01*
X142872916Y-114016169D01*
X142891345Y-113980000D01*
X141840000Y-113980000D01*
X141840000Y-114709100D01*
X140340000Y-114709100D01*
X140340000Y-113980000D01*
X139288655Y-113980000D01*
X134810199Y-113980000D01*
X134810500Y-113978097D01*
X134810500Y-113183922D01*
X140740000Y-113183922D01*
X140740000Y-113276078D01*
X140763852Y-113365095D01*
X140809930Y-113444905D01*
X140875095Y-113510070D01*
X140954905Y-113556148D01*
X141043922Y-113580000D01*
X141136078Y-113580000D01*
X141225095Y-113556148D01*
X141304905Y-113510070D01*
X141370070Y-113444905D01*
X141416148Y-113365095D01*
X141440000Y-113276078D01*
X141440000Y-113183922D01*
X141416148Y-113094905D01*
X141370070Y-113015095D01*
X141304905Y-112949930D01*
X141225095Y-112903852D01*
X141136078Y-112880000D01*
X141043922Y-112880000D01*
X140954905Y-112903852D01*
X140875095Y-112949930D01*
X140809930Y-113015095D01*
X140763852Y-113094905D01*
X140740000Y-113183922D01*
X134810500Y-113183922D01*
X134810500Y-112741902D01*
X134773553Y-112508631D01*
X134731357Y-112378768D01*
X134700568Y-112284008D01*
X134700566Y-112284005D01*
X134700566Y-112284003D01*
X134633202Y-112151795D01*
X134593343Y-112073567D01*
X134479869Y-111917384D01*
X134456390Y-111851579D01*
X134472215Y-111783525D01*
X134522321Y-111734831D01*
X134580188Y-111720500D01*
X139734063Y-111720500D01*
X139801102Y-111740185D01*
X139846857Y-111792989D01*
X139856801Y-111862147D01*
X139827776Y-111925703D01*
X139806949Y-111944818D01*
X139612814Y-112085866D01*
X139612813Y-112085866D01*
X139445866Y-112252813D01*
X139307083Y-112443830D01*
X139288654Y-112479999D01*
X139288655Y-112480000D01*
X142891345Y-112480000D01*
X142891345Y-112479999D01*
X142872916Y-112443830D01*
X142734133Y-112252813D01*
X142567186Y-112085866D01*
X142373051Y-111944818D01*
X142330386Y-111889488D01*
X142324407Y-111819874D01*
X142357013Y-111758080D01*
X142417852Y-111723722D01*
X142445937Y-111720500D01*
X144733212Y-111720500D01*
X144800251Y-111740185D01*
X144846006Y-111792989D01*
X144855950Y-111862147D01*
X144826925Y-111925703D01*
X144806098Y-111944818D01*
X144803567Y-111946657D01*
X144612490Y-112085483D01*
X144612488Y-112085485D01*
X144612487Y-112085485D01*
X144445485Y-112252487D01*
X144445485Y-112252488D01*
X144445483Y-112252490D01*
X144422584Y-112284008D01*
X144306657Y-112443566D01*
X144199433Y-112654003D01*
X144126446Y-112878631D01*
X144089500Y-113111902D01*
X144089500Y-113348097D01*
X144126446Y-113581368D01*
X144199433Y-113805996D01*
X144270990Y-113946433D01*
X144306657Y-114016433D01*
X144445483Y-114207510D01*
X144612490Y-114374517D01*
X144803567Y-114513343D01*
X144902785Y-114563897D01*
X145014003Y-114620566D01*
X145014005Y-114620566D01*
X145014008Y-114620568D01*
X145093612Y-114646433D01*
X145238631Y-114693553D01*
X145471903Y-114730500D01*
X145471908Y-114730500D01*
X146708097Y-114730500D01*
X146941368Y-114693553D01*
X147002881Y-114673566D01*
X147165992Y-114620568D01*
X147376433Y-114513343D01*
X147567510Y-114374517D01*
X147585842Y-114356184D01*
X147647162Y-114322697D01*
X147654083Y-114321396D01*
X147767701Y-114303402D01*
X147881061Y-114266568D01*
X147919379Y-114260500D01*
X148307111Y-114260500D01*
X148330086Y-114267246D01*
X148353906Y-114269669D01*
X148366248Y-114277864D01*
X148374150Y-114280185D01*
X148384362Y-114287504D01*
X148389839Y-114291866D01*
X148402490Y-114304517D01*
X148439343Y-114331292D01*
X148441492Y-114333004D01*
X148460071Y-114359437D01*
X148479792Y-114385013D01*
X148480034Y-114387841D01*
X148481669Y-114390166D01*
X148483007Y-114422448D01*
X148485771Y-114454626D01*
X148484445Y-114457138D01*
X148484563Y-114459976D01*
X148468242Y-114487847D01*
X148453165Y-114516421D01*
X148449803Y-114519333D01*
X148449256Y-114520269D01*
X148447971Y-114520921D01*
X148437130Y-114530315D01*
X148419365Y-114543222D01*
X148402488Y-114555484D01*
X148235485Y-114722487D01*
X148235485Y-114722488D01*
X148235483Y-114722490D01*
X148212697Y-114753852D01*
X148096657Y-114913566D01*
X147989433Y-115124003D01*
X147916446Y-115348631D01*
X147879500Y-115581902D01*
X147879500Y-115818097D01*
X147916446Y-116051368D01*
X147989433Y-116275996D01*
X148079820Y-116453388D01*
X148096657Y-116486433D01*
X148235483Y-116677510D01*
X148402490Y-116844517D01*
X148593567Y-116983343D01*
X148671031Y-117022813D01*
X148804003Y-117090566D01*
X148804005Y-117090566D01*
X148804008Y-117090568D01*
X148924412Y-117129689D01*
X149028631Y-117163553D01*
X149261903Y-117200500D01*
X149261908Y-117200500D01*
X150498097Y-117200500D01*
X150731368Y-117163553D01*
X150771230Y-117150601D01*
X150955992Y-117090568D01*
X151166433Y-116983343D01*
X151357510Y-116844517D01*
X151365208Y-116836819D01*
X151426531Y-116803334D01*
X151452889Y-116800500D01*
X156798818Y-116800500D01*
X156865857Y-116820185D01*
X156911612Y-116872989D01*
X156921556Y-116942147D01*
X156892531Y-117005703D01*
X156886499Y-117012181D01*
X156875866Y-117022813D01*
X156737083Y-117213830D01*
X156718654Y-117249999D01*
X156718655Y-117250000D01*
X160321345Y-117250000D01*
X160321345Y-117249999D01*
X160302916Y-117213830D01*
X160164133Y-117022813D01*
X159997183Y-116855863D01*
X159962446Y-116830625D01*
X159919781Y-116775295D01*
X159913803Y-116705681D01*
X159946410Y-116643887D01*
X159962439Y-116629997D01*
X159997510Y-116604517D01*
X160164517Y-116437510D01*
X160303343Y-116246433D01*
X160410568Y-116035992D01*
X160483553Y-115811368D01*
X160500002Y-115707512D01*
X160520500Y-115578097D01*
X160520500Y-115341902D01*
X160483553Y-115108631D01*
X160410566Y-114884003D01*
X160332097Y-114730000D01*
X160303343Y-114673567D01*
X160164517Y-114482490D01*
X159997510Y-114315483D01*
X159962872Y-114290317D01*
X159920207Y-114234989D01*
X159914228Y-114165375D01*
X159946833Y-114103580D01*
X159962873Y-114089682D01*
X159997510Y-114064517D01*
X160164517Y-113897510D01*
X160303343Y-113706433D01*
X160410568Y-113495992D01*
X160483553Y-113271368D01*
X160490633Y-113226666D01*
X160520500Y-113038097D01*
X160520500Y-112801902D01*
X160483553Y-112568631D01*
X160410566Y-112344003D01*
X160338512Y-112202591D01*
X160303343Y-112133567D01*
X160164517Y-111942490D01*
X159997510Y-111775483D01*
X159962872Y-111750317D01*
X159920207Y-111694989D01*
X159914228Y-111625375D01*
X159946833Y-111563580D01*
X159962873Y-111549682D01*
X159997510Y-111524517D01*
X160164517Y-111357510D01*
X160303343Y-111166433D01*
X160410568Y-110955992D01*
X160483553Y-110731368D01*
X160519897Y-110501902D01*
X160520500Y-110498097D01*
X160520500Y-110261902D01*
X160483553Y-110028631D01*
X160439975Y-109894514D01*
X160410568Y-109804008D01*
X160410566Y-109804005D01*
X160410566Y-109804003D01*
X160354002Y-109692991D01*
X160303343Y-109593567D01*
X160164517Y-109402490D01*
X159997510Y-109235483D01*
X159897746Y-109163000D01*
X159806431Y-109096655D01*
X159688204Y-109036415D01*
X159677140Y-109025966D01*
X159663297Y-109019644D01*
X159652255Y-109002463D01*
X159637409Y-108988441D01*
X159633167Y-108972761D01*
X159625523Y-108960866D01*
X159620500Y-108925931D01*
X159620500Y-108677204D01*
X159640185Y-108610165D01*
X159656819Y-108589523D01*
X161120842Y-107125500D01*
X162589414Y-105656928D01*
X162691232Y-105516788D01*
X162769873Y-105362445D01*
X162823402Y-105197701D01*
X162850500Y-105026611D01*
X162850500Y-104853389D01*
X162850500Y-102807204D01*
X162870185Y-102740165D01*
X162886819Y-102719523D01*
X164079523Y-101526819D01*
X164140846Y-101493334D01*
X164167204Y-101490500D01*
X164569575Y-101490500D01*
X164636614Y-101510185D01*
X164675382Y-101553034D01*
X164676612Y-101552281D01*
X164679152Y-101556426D01*
X164679156Y-101556432D01*
X164679157Y-101556433D01*
X164817983Y-101747510D01*
X164984990Y-101914517D01*
X165091270Y-101991734D01*
X165176068Y-102053344D01*
X165215622Y-102073498D01*
X165266417Y-102121472D01*
X165283212Y-102189293D01*
X165260674Y-102255428D01*
X165215621Y-102294467D01*
X165093566Y-102356657D01*
X165020835Y-102409500D01*
X164902490Y-102495483D01*
X164902488Y-102495485D01*
X164902487Y-102495485D01*
X164735485Y-102662487D01*
X164735485Y-102662488D01*
X164735483Y-102662490D01*
X164719427Y-102684589D01*
X164596657Y-102853566D01*
X164489433Y-103064003D01*
X164416446Y-103288631D01*
X164379500Y-103521902D01*
X164379500Y-103758097D01*
X164416446Y-103991368D01*
X164489433Y-104215996D01*
X164590723Y-104414787D01*
X164596657Y-104426433D01*
X164735483Y-104617510D01*
X164902490Y-104784517D01*
X165093567Y-104923343D01*
X165172484Y-104963553D01*
X165304003Y-105030566D01*
X165304005Y-105030566D01*
X165304008Y-105030568D01*
X165424412Y-105069689D01*
X165528631Y-105103553D01*
X165761903Y-105140500D01*
X165761908Y-105140500D01*
X167156610Y-105140500D01*
X167156611Y-105140500D01*
X167327701Y-105113402D01*
X167492445Y-105059873D01*
X167646788Y-104981232D01*
X167786928Y-104879414D01*
X169459414Y-103206928D01*
X169561232Y-103066788D01*
X169639873Y-102912445D01*
X169693402Y-102747701D01*
X169720500Y-102576611D01*
X169720500Y-102403389D01*
X169720500Y-97973389D01*
X169693402Y-97802299D01*
X169639873Y-97637555D01*
X169561232Y-97483212D01*
X169548542Y-97465746D01*
X169525063Y-97399941D01*
X169526387Y-97373470D01*
X169551714Y-97213566D01*
X169560500Y-97158096D01*
X169560500Y-96921902D01*
X169523553Y-96688631D01*
X169484253Y-96567679D01*
X169450568Y-96464008D01*
X169450566Y-96464005D01*
X169450566Y-96464003D01*
X169381199Y-96327864D01*
X169343343Y-96253567D01*
X169204517Y-96062490D01*
X169037510Y-95895483D01*
X168846433Y-95756657D01*
X168635996Y-95649433D01*
X168411368Y-95576446D01*
X168226835Y-95547219D01*
X168163700Y-95517290D01*
X168126769Y-95457978D01*
X168127767Y-95388115D01*
X168166377Y-95329883D01*
X168226836Y-95302273D01*
X168411246Y-95273066D01*
X168411247Y-95273065D01*
X168635802Y-95200102D01*
X168846171Y-95092914D01*
X169037186Y-94954133D01*
X169204133Y-94787186D01*
X169342916Y-94596169D01*
X169361345Y-94560000D01*
X165758655Y-94560000D01*
X165777083Y-94596169D01*
X165915866Y-94787186D01*
X166082813Y-94954133D01*
X166273828Y-95092914D01*
X166484197Y-95200102D01*
X166708752Y-95273065D01*
X166708753Y-95273066D01*
X166893163Y-95302273D01*
X166956298Y-95332202D01*
X166993230Y-95391513D01*
X166992232Y-95461376D01*
X166953623Y-95519609D01*
X166893164Y-95547219D01*
X166708631Y-95576446D01*
X166484003Y-95649433D01*
X166273566Y-95756657D01*
X166167955Y-95833389D01*
X166082490Y-95895483D01*
X166082488Y-95895485D01*
X166082487Y-95895485D01*
X165915485Y-96062487D01*
X165915485Y-96062488D01*
X165915483Y-96062490D01*
X165878053Y-96114008D01*
X165776657Y-96253566D01*
X165669433Y-96464003D01*
X165596446Y-96688631D01*
X165559500Y-96921902D01*
X165559500Y-97158097D01*
X165596446Y-97391368D01*
X165669433Y-97615996D01*
X165764360Y-97802299D01*
X165776657Y-97826433D01*
X165915483Y-98017510D01*
X165915485Y-98017512D01*
X165955792Y-98057819D01*
X165989277Y-98119142D01*
X165984293Y-98188834D01*
X165942421Y-98244767D01*
X165876957Y-98269184D01*
X165868111Y-98269500D01*
X165844403Y-98269500D01*
X165611131Y-98306446D01*
X165386503Y-98379433D01*
X165176066Y-98486657D01*
X165101042Y-98541166D01*
X164984990Y-98625483D01*
X164984988Y-98625485D01*
X164984987Y-98625485D01*
X164817985Y-98792487D01*
X164817985Y-98792488D01*
X164817983Y-98792490D01*
X164807843Y-98806447D01*
X164679157Y-98983566D01*
X164571932Y-99194007D01*
X164568744Y-99203819D01*
X164529305Y-99261494D01*
X164464947Y-99288692D01*
X164450813Y-99289500D01*
X163746611Y-99289500D01*
X163573389Y-99289500D01*
X163554530Y-99292487D01*
X163402302Y-99316597D01*
X163237552Y-99370128D01*
X163083211Y-99448768D01*
X163003825Y-99506446D01*
X162943072Y-99550586D01*
X162943070Y-99550588D01*
X162943069Y-99550588D01*
X160910588Y-101583069D01*
X160910588Y-101583070D01*
X160910586Y-101583072D01*
X160900469Y-101596997D01*
X160808768Y-101723211D01*
X160730128Y-101877552D01*
X160676597Y-102042302D01*
X160649500Y-102213389D01*
X160649500Y-104432796D01*
X160629815Y-104499835D01*
X160613181Y-104520477D01*
X157680588Y-107453069D01*
X157680588Y-107453070D01*
X157680586Y-107453072D01*
X157670716Y-107466657D01*
X157578768Y-107593211D01*
X157500128Y-107747552D01*
X157500127Y-107747554D01*
X157500127Y-107747555D01*
X157480939Y-107806610D01*
X157446597Y-107912302D01*
X157419500Y-108083389D01*
X157419500Y-108925931D01*
X157399815Y-108992970D01*
X157351796Y-109036415D01*
X157233568Y-109096655D01*
X157083477Y-109205704D01*
X157047473Y-109231863D01*
X157040906Y-109236634D01*
X156975099Y-109260114D01*
X156907045Y-109244289D01*
X156880339Y-109223997D01*
X154879427Y-107223085D01*
X154862712Y-107210941D01*
X154820047Y-107155610D01*
X154814069Y-107085997D01*
X154846676Y-107024202D01*
X154879303Y-107000140D01*
X154896788Y-106991232D01*
X155036928Y-106889414D01*
X156749523Y-105176819D01*
X156810846Y-105143334D01*
X156833245Y-105140925D01*
X156833242Y-105140882D01*
X156834765Y-105140762D01*
X156837204Y-105140500D01*
X156838097Y-105140500D01*
X157071368Y-105103553D01*
X157142388Y-105080477D01*
X157295992Y-105030568D01*
X157506433Y-104923343D01*
X157697510Y-104784517D01*
X157864517Y-104617510D01*
X158003343Y-104426433D01*
X158110568Y-104215992D01*
X158183553Y-103991368D01*
X158184708Y-103984075D01*
X158220500Y-103758097D01*
X158220500Y-103521902D01*
X158183553Y-103288631D01*
X158143539Y-103165483D01*
X158110568Y-103064008D01*
X158110566Y-103064005D01*
X158110566Y-103064003D01*
X158003342Y-102853566D01*
X157969658Y-102807204D01*
X157864517Y-102662490D01*
X157697510Y-102495483D01*
X157506433Y-102356657D01*
X157463460Y-102334761D01*
X157295996Y-102249433D01*
X157071368Y-102176446D01*
X156838097Y-102139500D01*
X156838092Y-102139500D01*
X156246204Y-102139500D01*
X156224958Y-102133261D01*
X156202870Y-102131682D01*
X156192086Y-102123609D01*
X156179165Y-102119815D01*
X156164665Y-102103081D01*
X156146937Y-102089810D01*
X156142229Y-102077189D01*
X156133410Y-102067011D01*
X156130258Y-102045093D01*
X156122520Y-102024346D01*
X156125382Y-102011185D01*
X156123466Y-101997853D01*
X156132665Y-101977709D01*
X156137372Y-101956073D01*
X156150640Y-101938347D01*
X156152491Y-101934297D01*
X156158523Y-101927819D01*
X156279523Y-101806819D01*
X156340846Y-101773334D01*
X156367204Y-101770500D01*
X156420597Y-101770500D01*
X156653868Y-101733553D01*
X156685697Y-101723211D01*
X156878492Y-101660568D01*
X157088933Y-101553343D01*
X157280010Y-101414517D01*
X157447017Y-101247510D01*
X157585843Y-101056433D01*
X157693068Y-100845992D01*
X157766053Y-100621368D01*
X157776722Y-100554008D01*
X157803000Y-100388097D01*
X157803000Y-100151902D01*
X157766053Y-99918631D01*
X157693066Y-99694003D01*
X157618209Y-99547089D01*
X157585843Y-99483567D01*
X157447017Y-99292490D01*
X157280010Y-99125483D01*
X157088933Y-98986657D01*
X157082867Y-98983566D01*
X156878496Y-98879433D01*
X156653868Y-98806446D01*
X156420597Y-98769500D01*
X156420592Y-98769500D01*
X155184408Y-98769500D01*
X155184403Y-98769500D01*
X154951131Y-98806446D01*
X154726503Y-98879433D01*
X154516066Y-98986657D01*
X154414505Y-99060446D01*
X154324990Y-99125483D01*
X154324988Y-99125485D01*
X154324987Y-99125485D01*
X154157985Y-99292487D01*
X154157985Y-99292488D01*
X154157983Y-99292490D01*
X154123893Y-99339411D01*
X154019157Y-99483566D01*
X153911933Y-99694003D01*
X153846717Y-99894716D01*
X153807279Y-99952391D01*
X153742920Y-99979589D01*
X153674074Y-99967674D01*
X153641105Y-99944078D01*
X153522512Y-99825485D01*
X153522510Y-99825483D01*
X153341551Y-99694008D01*
X153331431Y-99686655D01*
X153213204Y-99626415D01*
X153162409Y-99578441D01*
X153145500Y-99515931D01*
X153145500Y-97008389D01*
X153141024Y-96980127D01*
X153118402Y-96837299D01*
X153064873Y-96672555D01*
X152986232Y-96518212D01*
X152884414Y-96378072D01*
X152761928Y-96255586D01*
X149990593Y-93484251D01*
X149957108Y-93422928D01*
X149955801Y-93377172D01*
X149990500Y-93158097D01*
X149990500Y-92921902D01*
X149953553Y-92688631D01*
X149880566Y-92464003D01*
X149820667Y-92346446D01*
X149773343Y-92253567D01*
X149634517Y-92062490D01*
X149467510Y-91895483D01*
X149276433Y-91756657D01*
X149204853Y-91720185D01*
X149065996Y-91649433D01*
X148841368Y-91576446D01*
X148608097Y-91539500D01*
X148608092Y-91539500D01*
X147371908Y-91539500D01*
X147371903Y-91539500D01*
X147138631Y-91576446D01*
X146914003Y-91649433D01*
X146703566Y-91756657D01*
X146594550Y-91835862D01*
X146512490Y-91895483D01*
X146512488Y-91895485D01*
X146512487Y-91895485D01*
X146345482Y-92062490D01*
X146335443Y-92076309D01*
X146280113Y-92118974D01*
X146210499Y-92124952D01*
X146148705Y-92092345D01*
X146147445Y-92091103D01*
X144631930Y-90575588D01*
X144631928Y-90575586D01*
X144491788Y-90473768D01*
X144337445Y-90395127D01*
X144172701Y-90341598D01*
X144172699Y-90341597D01*
X144172698Y-90341597D01*
X144041271Y-90320781D01*
X144001611Y-90314500D01*
X144001610Y-90314500D01*
X141832204Y-90314500D01*
X141802763Y-90305855D01*
X141772777Y-90299332D01*
X141767761Y-90295577D01*
X141765165Y-90294815D01*
X141744523Y-90278181D01*
X141626819Y-90160477D01*
X141593334Y-90099154D01*
X141590500Y-90072796D01*
X141590500Y-89081902D01*
X141553553Y-88848631D01*
X141480566Y-88624003D01*
X141397066Y-88460127D01*
X141373343Y-88413567D01*
X141288931Y-88297385D01*
X141265452Y-88231579D01*
X141281277Y-88163525D01*
X141331383Y-88114830D01*
X141389250Y-88100500D01*
X143462796Y-88100500D01*
X143529835Y-88120185D01*
X143550477Y-88136819D01*
X144320586Y-88906928D01*
X144443072Y-89029414D01*
X144583212Y-89131232D01*
X144737555Y-89209873D01*
X144902299Y-89263402D01*
X145073389Y-89290500D01*
X153085932Y-89290500D01*
X153152971Y-89310185D01*
X153196416Y-89358203D01*
X153256657Y-89476433D01*
X153395483Y-89667510D01*
X153562490Y-89834517D01*
X153753567Y-89973343D01*
X153852991Y-90024002D01*
X153964003Y-90080566D01*
X153964005Y-90080566D01*
X153964008Y-90080568D01*
X154021210Y-90099154D01*
X154188631Y-90153553D01*
X154421903Y-90190500D01*
X154421908Y-90190500D01*
X154658097Y-90190500D01*
X154891368Y-90153553D01*
X155115992Y-90080568D01*
X155326433Y-89973343D01*
X155517510Y-89834517D01*
X155684517Y-89667510D01*
X155709682Y-89632872D01*
X155728086Y-89618681D01*
X155743376Y-89601177D01*
X155755234Y-89597746D01*
X155765011Y-89590207D01*
X155788167Y-89588218D01*
X155810493Y-89581759D01*
X155822325Y-89585284D01*
X155834625Y-89584228D01*
X155855180Y-89595073D01*
X155877454Y-89601710D01*
X155889617Y-89613243D01*
X155896420Y-89616833D01*
X155904035Y-89624929D01*
X155907336Y-89628770D01*
X155935483Y-89667510D01*
X155972177Y-89704204D01*
X155975226Y-89707751D01*
X155987765Y-89735499D01*
X156002357Y-89762222D01*
X156003664Y-89769178D01*
X156006598Y-89787701D01*
X156060127Y-89952445D01*
X156138768Y-90106788D01*
X156240586Y-90246928D01*
X156833072Y-90839414D01*
X156857168Y-90856921D01*
X156861745Y-90860246D01*
X156876541Y-90872883D01*
X157369535Y-91365877D01*
X157403020Y-91427200D01*
X157398036Y-91496892D01*
X157356164Y-91552825D01*
X157303323Y-91575159D01*
X157303360Y-91575312D01*
X157302439Y-91575532D01*
X157301266Y-91576029D01*
X157298634Y-91576446D01*
X157298631Y-91576446D01*
X157074003Y-91649433D01*
X156863566Y-91756657D01*
X156754550Y-91835862D01*
X156672490Y-91895483D01*
X156672488Y-91895485D01*
X156672487Y-91895485D01*
X156505485Y-92062487D01*
X156505485Y-92062488D01*
X156505483Y-92062490D01*
X156483792Y-92092345D01*
X156366657Y-92253566D01*
X156259433Y-92464003D01*
X156186446Y-92688631D01*
X156149500Y-92921902D01*
X156149500Y-93158097D01*
X156186446Y-93391368D01*
X156259433Y-93615996D01*
X156299433Y-93694499D01*
X156366657Y-93826433D01*
X156505483Y-94017510D01*
X156672490Y-94184517D01*
X156863567Y-94323343D01*
X157074008Y-94430568D01*
X157213818Y-94475995D01*
X157271494Y-94515433D01*
X157298692Y-94579791D01*
X157299500Y-94593926D01*
X157299500Y-95469828D01*
X157279815Y-95536867D01*
X157227011Y-95582622D01*
X157213821Y-95587757D01*
X157110454Y-95621344D01*
X157024005Y-95649433D01*
X156813566Y-95756657D01*
X156707955Y-95833389D01*
X156622490Y-95895483D01*
X156622488Y-95895485D01*
X156622487Y-95895485D01*
X156455485Y-96062487D01*
X156455485Y-96062488D01*
X156455483Y-96062490D01*
X156418053Y-96114008D01*
X156316657Y-96253566D01*
X156209433Y-96464003D01*
X156136446Y-96688631D01*
X156099500Y-96921902D01*
X156099500Y-97158097D01*
X156136446Y-97391368D01*
X156209433Y-97615996D01*
X156304360Y-97802299D01*
X156316657Y-97826433D01*
X156455483Y-98017510D01*
X156622490Y-98184517D01*
X156813567Y-98323343D01*
X156851057Y-98342445D01*
X157024003Y-98430566D01*
X157024005Y-98430566D01*
X157024008Y-98430568D01*
X157127067Y-98464054D01*
X157248631Y-98503553D01*
X157481903Y-98540500D01*
X157481908Y-98540500D01*
X158718097Y-98540500D01*
X158951368Y-98503553D01*
X159003368Y-98486657D01*
X159175992Y-98430568D01*
X159386433Y-98323343D01*
X159577510Y-98184517D01*
X159744517Y-98017510D01*
X159883343Y-97826433D01*
X159901907Y-97790000D01*
X160758655Y-97790000D01*
X160777083Y-97826169D01*
X160915866Y-98017186D01*
X161082813Y-98184133D01*
X161273828Y-98322914D01*
X161484195Y-98430102D01*
X161708744Y-98503063D01*
X161708750Y-98503065D01*
X161810000Y-98519101D01*
X161810000Y-98519100D01*
X163310000Y-98519100D01*
X163411249Y-98503065D01*
X163411255Y-98503063D01*
X163635804Y-98430102D01*
X163846171Y-98322914D01*
X164037186Y-98184133D01*
X164204133Y-98017186D01*
X164342916Y-97826169D01*
X164361345Y-97790000D01*
X163310000Y-97790000D01*
X163310000Y-98519100D01*
X161810000Y-98519100D01*
X161810000Y-97790000D01*
X160758655Y-97790000D01*
X159901907Y-97790000D01*
X159990568Y-97615992D01*
X160063553Y-97391368D01*
X160066389Y-97373463D01*
X160100500Y-97158097D01*
X160100500Y-96993922D01*
X162210000Y-96993922D01*
X162210000Y-97086078D01*
X162233852Y-97175095D01*
X162279930Y-97254905D01*
X162345095Y-97320070D01*
X162424905Y-97366148D01*
X162513922Y-97390000D01*
X162606078Y-97390000D01*
X162695095Y-97366148D01*
X162774905Y-97320070D01*
X162840070Y-97254905D01*
X162886148Y-97175095D01*
X162910000Y-97086078D01*
X162910000Y-96993922D01*
X162886148Y-96904905D01*
X162840070Y-96825095D01*
X162774905Y-96759930D01*
X162695095Y-96713852D01*
X162606078Y-96690000D01*
X162513922Y-96690000D01*
X162424905Y-96713852D01*
X162345095Y-96759930D01*
X162279930Y-96825095D01*
X162233852Y-96904905D01*
X162210000Y-96993922D01*
X160100500Y-96993922D01*
X160100500Y-96921902D01*
X160063553Y-96688631D01*
X160024253Y-96567679D01*
X159990568Y-96464008D01*
X159990566Y-96464005D01*
X159990566Y-96464003D01*
X159921199Y-96327864D01*
X159883343Y-96253567D01*
X159744517Y-96062490D01*
X159577510Y-95895483D01*
X159572723Y-95892005D01*
X159551612Y-95876666D01*
X159508948Y-95821335D01*
X159500500Y-95776350D01*
X159500500Y-94547204D01*
X159520185Y-94480165D01*
X159536819Y-94459523D01*
X160059523Y-93936819D01*
X160120846Y-93903334D01*
X160147204Y-93900500D01*
X160449223Y-93900500D01*
X160516262Y-93920185D01*
X160562017Y-93972989D01*
X160571696Y-94005102D01*
X160596446Y-94161368D01*
X160669433Y-94385996D01*
X160758093Y-94560000D01*
X160776657Y-94596433D01*
X160915483Y-94787510D01*
X161082490Y-94954517D01*
X161273567Y-95093343D01*
X161364660Y-95139757D01*
X161484003Y-95200566D01*
X161484005Y-95200566D01*
X161484008Y-95200568D01*
X161708632Y-95273553D01*
X161853445Y-95296488D01*
X161893164Y-95302780D01*
X161956299Y-95332709D01*
X161993230Y-95392021D01*
X161992232Y-95461883D01*
X161953622Y-95520116D01*
X161893164Y-95547726D01*
X161708752Y-95576934D01*
X161484197Y-95649897D01*
X161273828Y-95757085D01*
X161082813Y-95895866D01*
X160915866Y-96062813D01*
X160777083Y-96253830D01*
X160758654Y-96289999D01*
X160758655Y-96290000D01*
X164361345Y-96290000D01*
X164361345Y-96289999D01*
X164342916Y-96253830D01*
X164204133Y-96062813D01*
X164037186Y-95895866D01*
X163846171Y-95757085D01*
X163635802Y-95649897D01*
X163411247Y-95576934D01*
X163226835Y-95547726D01*
X163163700Y-95517797D01*
X163126769Y-95458485D01*
X163127767Y-95388623D01*
X163166377Y-95330390D01*
X163226835Y-95302780D01*
X163247973Y-95299432D01*
X163411368Y-95273553D01*
X163635992Y-95200568D01*
X163846433Y-95093343D01*
X164037510Y-94954517D01*
X164204517Y-94787510D01*
X164343343Y-94596433D01*
X164450568Y-94385992D01*
X164523553Y-94161368D01*
X164523770Y-94160000D01*
X164560500Y-93928097D01*
X164560500Y-93763922D01*
X167210000Y-93763922D01*
X167210000Y-93856078D01*
X167233852Y-93945095D01*
X167279930Y-94024905D01*
X167345095Y-94090070D01*
X167424905Y-94136148D01*
X167513922Y-94160000D01*
X167606078Y-94160000D01*
X167695095Y-94136148D01*
X167774905Y-94090070D01*
X167840070Y-94024905D01*
X167886148Y-93945095D01*
X167910000Y-93856078D01*
X167910000Y-93763922D01*
X167886148Y-93674905D01*
X167840070Y-93595095D01*
X167774905Y-93529930D01*
X167695095Y-93483852D01*
X167606078Y-93460000D01*
X167513922Y-93460000D01*
X167424905Y-93483852D01*
X167345095Y-93529930D01*
X167279930Y-93595095D01*
X167233852Y-93674905D01*
X167210000Y-93763922D01*
X164560500Y-93763922D01*
X164560500Y-93691902D01*
X164523553Y-93458631D01*
X164476016Y-93312328D01*
X164450568Y-93234008D01*
X164450566Y-93234005D01*
X164450566Y-93234003D01*
X164393433Y-93121875D01*
X164361906Y-93059999D01*
X165758654Y-93059999D01*
X165758655Y-93060000D01*
X166810000Y-93060000D01*
X166810000Y-92330897D01*
X166708752Y-92346934D01*
X166484197Y-92419897D01*
X166273828Y-92527085D01*
X166082813Y-92665866D01*
X165915866Y-92832813D01*
X165777083Y-93023830D01*
X165758654Y-93059999D01*
X164361906Y-93059999D01*
X164343343Y-93023567D01*
X164204517Y-92832490D01*
X164037510Y-92665483D01*
X163846433Y-92526657D01*
X163774535Y-92490023D01*
X163635996Y-92419433D01*
X163411368Y-92346446D01*
X163178097Y-92309500D01*
X163178092Y-92309500D01*
X163037204Y-92309500D01*
X163007763Y-92300855D01*
X162977777Y-92294332D01*
X162972761Y-92290577D01*
X162970165Y-92289815D01*
X162949523Y-92273181D01*
X162858523Y-92182181D01*
X162825038Y-92120858D01*
X162830022Y-92051166D01*
X162871894Y-91995233D01*
X162937358Y-91970816D01*
X162946204Y-91970500D01*
X167702796Y-91970500D01*
X167769835Y-91990185D01*
X167790477Y-92006819D01*
X168273681Y-92490023D01*
X168307166Y-92551346D01*
X168310000Y-92577704D01*
X168310000Y-93060000D01*
X168879903Y-93060000D01*
X168892904Y-93063121D01*
X168902789Y-93062130D01*
X168936197Y-93073515D01*
X168979346Y-93095500D01*
X168979348Y-93095501D01*
X169007548Y-93109870D01*
X169007551Y-93109870D01*
X169007555Y-93109873D01*
X169172299Y-93163403D01*
X169319996Y-93186795D01*
X169343389Y-93190500D01*
X169343390Y-93190500D01*
X169516611Y-93190500D01*
X170742796Y-93190500D01*
X170809835Y-93210185D01*
X170830477Y-93226819D01*
X171103181Y-93499523D01*
X171136666Y-93560846D01*
X171139500Y-93587204D01*
X171139500Y-104992796D01*
X171119815Y-105059835D01*
X171103181Y-105080477D01*
X169580477Y-106603181D01*
X169519154Y-106636666D01*
X169492796Y-106639500D01*
X164493389Y-106639500D01*
X164453728Y-106645781D01*
X164322302Y-106666597D01*
X164157552Y-106720128D01*
X164042465Y-106778768D01*
X164003210Y-106798769D01*
X164003207Y-106798770D01*
X163898232Y-106875040D01*
X163863072Y-106900586D01*
X163863070Y-106900588D01*
X163863069Y-106900588D01*
X163754441Y-107009216D01*
X163754425Y-107009232D01*
X163753072Y-107010586D01*
X163630586Y-107133072D01*
X163605155Y-107168073D01*
X163599794Y-107173778D01*
X163599153Y-107174153D01*
X163597114Y-107176542D01*
X162563072Y-108210586D01*
X162440588Y-108333069D01*
X162440588Y-108333070D01*
X162440586Y-108333072D01*
X162396859Y-108393256D01*
X162338768Y-108473211D01*
X162260128Y-108627552D01*
X162206597Y-108792302D01*
X162179500Y-108963389D01*
X162179500Y-117232796D01*
X162159815Y-117299835D01*
X162143181Y-117320477D01*
X160421818Y-119041839D01*
X160360495Y-119075324D01*
X160290803Y-119070340D01*
X160234870Y-119028468D01*
X160210453Y-118963004D01*
X160225305Y-118894731D01*
X160233819Y-118881272D01*
X160302916Y-118786169D01*
X160321345Y-118750000D01*
X159270000Y-118750000D01*
X159270000Y-119479100D01*
X159371249Y-119463065D01*
X159371255Y-119463063D01*
X159595804Y-119390102D01*
X159806171Y-119282914D01*
X159901272Y-119213819D01*
X159967078Y-119190339D01*
X160035132Y-119206164D01*
X160083827Y-119256269D01*
X160097703Y-119324747D01*
X160072354Y-119389857D01*
X160061839Y-119401818D01*
X159520477Y-119943181D01*
X159459154Y-119976666D01*
X159432796Y-119979500D01*
X156943385Y-119979500D01*
X156919993Y-119983204D01*
X156772304Y-120006596D01*
X156772302Y-120006596D01*
X156772299Y-120006597D01*
X156615609Y-120057510D01*
X156615608Y-120057509D01*
X156607554Y-120060127D01*
X156453213Y-120138767D01*
X156453212Y-120138768D01*
X156394240Y-120181613D01*
X156394239Y-120181613D01*
X156313075Y-120240582D01*
X156313068Y-120240587D01*
X155734249Y-120819406D01*
X155672926Y-120852891D01*
X155627170Y-120854198D01*
X155408097Y-120819500D01*
X155408092Y-120819500D01*
X155171908Y-120819500D01*
X155171903Y-120819500D01*
X154938631Y-120856446D01*
X154714003Y-120929433D01*
X154503566Y-121036657D01*
X154426978Y-121092302D01*
X154312490Y-121175483D01*
X154312488Y-121175485D01*
X154312487Y-121175485D01*
X154145485Y-121342487D01*
X154145485Y-121342488D01*
X154145483Y-121342490D01*
X154120063Y-121377478D01*
X154006657Y-121533566D01*
X153899433Y-121744003D01*
X153826446Y-121968631D01*
X153789500Y-122201902D01*
X153789500Y-123438097D01*
X153826446Y-123671368D01*
X153899433Y-123895996D01*
X153995387Y-124084315D01*
X154006657Y-124106433D01*
X154145483Y-124297510D01*
X154312490Y-124464517D01*
X154503567Y-124603343D01*
X154564045Y-124634158D01*
X154714003Y-124710566D01*
X154714005Y-124710566D01*
X154714008Y-124710568D01*
X154813429Y-124742872D01*
X154938631Y-124783553D01*
X155171903Y-124820500D01*
X155171908Y-124820500D01*
X155408097Y-124820500D01*
X155641368Y-124783553D01*
X155865992Y-124710568D01*
X156076433Y-124603343D01*
X156267510Y-124464517D01*
X156434517Y-124297510D01*
X156573343Y-124106433D01*
X156680568Y-123895992D01*
X156753553Y-123671368D01*
X156768631Y-123576169D01*
X156790500Y-123438097D01*
X156790500Y-122927204D01*
X156810185Y-122860165D01*
X156826819Y-122839523D01*
X157449524Y-122216819D01*
X157510847Y-122183334D01*
X157537205Y-122180500D01*
X160026610Y-122180500D01*
X160026611Y-122180500D01*
X160197701Y-122153402D01*
X160362445Y-122099873D01*
X160516788Y-122021232D01*
X160656928Y-121919414D01*
X161830510Y-120745831D01*
X161891831Y-120712348D01*
X161961523Y-120717332D01*
X162017456Y-120759204D01*
X162041873Y-120824668D01*
X162040663Y-120852907D01*
X162029500Y-120923389D01*
X162029500Y-120923394D01*
X162029500Y-121505931D01*
X162009815Y-121572970D01*
X161961796Y-121616415D01*
X161843568Y-121676655D01*
X161741931Y-121750500D01*
X161652490Y-121815483D01*
X161652488Y-121815485D01*
X161652487Y-121815485D01*
X161485485Y-121982487D01*
X161485485Y-121982488D01*
X161485483Y-121982490D01*
X161441656Y-122042813D01*
X161346657Y-122173566D01*
X161239433Y-122384003D01*
X161166446Y-122608631D01*
X161129500Y-122841902D01*
X161129500Y-123078097D01*
X161166446Y-123311368D01*
X161239433Y-123535996D01*
X161300118Y-123655095D01*
X161346657Y-123746433D01*
X161485483Y-123937510D01*
X161652490Y-124104517D01*
X161652493Y-124104519D01*
X161735988Y-124165182D01*
X161778654Y-124220512D01*
X161784633Y-124290125D01*
X161752027Y-124351920D01*
X161691188Y-124386278D01*
X161663103Y-124389500D01*
X161326611Y-124389500D01*
X161153389Y-124389500D01*
X161067844Y-124403049D01*
X160982298Y-124416598D01*
X160817549Y-124470128D01*
X160663211Y-124548768D01*
X160598475Y-124595802D01*
X160523072Y-124650586D01*
X160523070Y-124650588D01*
X160523069Y-124650588D01*
X158690588Y-126483069D01*
X158690588Y-126483070D01*
X158690586Y-126483072D01*
X158671114Y-126509873D01*
X158588768Y-126623211D01*
X158510128Y-126777552D01*
X158510127Y-126777554D01*
X158510127Y-126777555D01*
X158487436Y-126847391D01*
X158456597Y-126942302D01*
X158429500Y-127113389D01*
X158429500Y-132212795D01*
X158409815Y-132279834D01*
X158393181Y-132300476D01*
X157299771Y-133393885D01*
X157238448Y-133427370D01*
X157168756Y-133422386D01*
X157112823Y-133380514D01*
X157088406Y-133315050D01*
X157089617Y-133286805D01*
X157100500Y-133218096D01*
X157100500Y-132981902D01*
X157063553Y-132748631D01*
X157015450Y-132600586D01*
X156990568Y-132524008D01*
X156990566Y-132524005D01*
X156990566Y-132524003D01*
X156914251Y-132374228D01*
X156883343Y-132313567D01*
X156744517Y-132122490D01*
X156577510Y-131955483D01*
X156410304Y-131834000D01*
X156386431Y-131816655D01*
X156268204Y-131756415D01*
X156257140Y-131745966D01*
X156243297Y-131739644D01*
X156232255Y-131722463D01*
X156217409Y-131708441D01*
X156213167Y-131692761D01*
X156205523Y-131680866D01*
X156200500Y-131645931D01*
X156200500Y-131527204D01*
X156220185Y-131460165D01*
X156236819Y-131439523D01*
X156340103Y-131336239D01*
X156401426Y-131302754D01*
X156408387Y-131301447D01*
X156521368Y-131283553D01*
X156521374Y-131283551D01*
X156745992Y-131210568D01*
X156956433Y-131103343D01*
X157147510Y-130964517D01*
X157314517Y-130797510D01*
X157453343Y-130606433D01*
X157560568Y-130395992D01*
X157633553Y-130171368D01*
X157639030Y-130136788D01*
X157670500Y-129938097D01*
X157670500Y-129701902D01*
X157633553Y-129468631D01*
X157582870Y-129312647D01*
X157560568Y-129244008D01*
X157560566Y-129244005D01*
X157560566Y-129244003D01*
X157468685Y-129063678D01*
X157453343Y-129033567D01*
X157314517Y-128842490D01*
X157147510Y-128675483D01*
X156956433Y-128536657D01*
X156951397Y-128534091D01*
X156745996Y-128429433D01*
X156521368Y-128356446D01*
X156288097Y-128319500D01*
X156288092Y-128319500D01*
X155051908Y-128319500D01*
X155051903Y-128319500D01*
X154818631Y-128356446D01*
X154594003Y-128429433D01*
X154383566Y-128536657D01*
X154316869Y-128585116D01*
X154192490Y-128675483D01*
X154192488Y-128675485D01*
X154192487Y-128675485D01*
X154025485Y-128842487D01*
X154025485Y-128842488D01*
X154025483Y-128842490D01*
X153982805Y-128901231D01*
X153886657Y-129033566D01*
X153779433Y-129244003D01*
X153706446Y-129468631D01*
X153669500Y-129701902D01*
X153669500Y-129938097D01*
X153706446Y-130171368D01*
X153779433Y-130395996D01*
X153886657Y-130606433D01*
X153991629Y-130750914D01*
X154015109Y-130816721D01*
X154013784Y-130843198D01*
X153999500Y-130933384D01*
X153999500Y-131645931D01*
X153979815Y-131712970D01*
X153931796Y-131756415D01*
X153813568Y-131816655D01*
X153735237Y-131873567D01*
X153622490Y-131955483D01*
X153622488Y-131955485D01*
X153622487Y-131955485D01*
X153455485Y-132122487D01*
X153455485Y-132122488D01*
X153455483Y-132122490D01*
X153447228Y-132133852D01*
X153316657Y-132313566D01*
X153209433Y-132524003D01*
X153136446Y-132748631D01*
X153099500Y-132981902D01*
X153099500Y-133218097D01*
X153136446Y-133451368D01*
X153209433Y-133675996D01*
X153298093Y-133850000D01*
X153316657Y-133886433D01*
X153455483Y-134077510D01*
X153455485Y-134077512D01*
X153515792Y-134137819D01*
X153549277Y-134199142D01*
X153544293Y-134268834D01*
X153502421Y-134324767D01*
X153436957Y-134349184D01*
X153428111Y-134349500D01*
X151771182Y-134349500D01*
X151704143Y-134329815D01*
X151658388Y-134277011D01*
X151648444Y-134207853D01*
X151677469Y-134144297D01*
X151683501Y-134137819D01*
X151744133Y-134077186D01*
X151882916Y-133886169D01*
X151901345Y-133850000D01*
X148298655Y-133850000D01*
X148317083Y-133886169D01*
X148455866Y-134077186D01*
X148516499Y-134137819D01*
X148549984Y-134199142D01*
X148545000Y-134268834D01*
X148503128Y-134324767D01*
X148437664Y-134349184D01*
X148428818Y-134349500D01*
X147799487Y-134349500D01*
X147732448Y-134329815D01*
X147726612Y-134325825D01*
X147606788Y-134238768D01*
X147452445Y-134160127D01*
X147287701Y-134106598D01*
X147287699Y-134106597D01*
X147287698Y-134106597D01*
X147156271Y-134085781D01*
X147116611Y-134079500D01*
X146943389Y-134079500D01*
X146903728Y-134085781D01*
X146772302Y-134106597D01*
X146607552Y-134160128D01*
X146453211Y-134238768D01*
X146410321Y-134269930D01*
X146313072Y-134340586D01*
X146313070Y-134340588D01*
X146313069Y-134340588D01*
X146190588Y-134463069D01*
X146190588Y-134463070D01*
X146190586Y-134463072D01*
X146176511Y-134482445D01*
X146088768Y-134603211D01*
X146010128Y-134757552D01*
X145956597Y-134922302D01*
X145951189Y-134956447D01*
X145929500Y-135093389D01*
X145929500Y-135266611D01*
X145934788Y-135300000D01*
X145944201Y-135359433D01*
X145956598Y-135437701D01*
X146010127Y-135602445D01*
X146088768Y-135756788D01*
X146190586Y-135896928D01*
X146460586Y-136166928D01*
X146583072Y-136289414D01*
X146646068Y-136335183D01*
X146688732Y-136390512D01*
X146694711Y-136460125D01*
X146662105Y-136521920D01*
X146601266Y-136556278D01*
X146573181Y-136559500D01*
X140972889Y-136559500D01*
X140905850Y-136539815D01*
X140885208Y-136523181D01*
X140877512Y-136515485D01*
X140877510Y-136515483D01*
X140686433Y-136376657D01*
X140605034Y-136335182D01*
X140475996Y-136269433D01*
X140251368Y-136196446D01*
X140018097Y-136159500D01*
X140018092Y-136159500D01*
X138781908Y-136159500D01*
X138781903Y-136159500D01*
X138548631Y-136196446D01*
X138324003Y-136269433D01*
X138113566Y-136376657D01*
X138004550Y-136455862D01*
X137922490Y-136515483D01*
X137922488Y-136515485D01*
X137922487Y-136515485D01*
X137755485Y-136682487D01*
X137755485Y-136682488D01*
X137755483Y-136682490D01*
X137731652Y-136715291D01*
X137616657Y-136873566D01*
X137509433Y-137084003D01*
X137436446Y-137308631D01*
X137399500Y-137541902D01*
X137399500Y-137778097D01*
X137436446Y-138011368D01*
X137509433Y-138235996D01*
X137602274Y-138418205D01*
X137616657Y-138446433D01*
X137755483Y-138637510D01*
X137922490Y-138804517D01*
X138113567Y-138943343D01*
X138212991Y-138994002D01*
X138324003Y-139050566D01*
X138324005Y-139050566D01*
X138324008Y-139050568D01*
X138444412Y-139089689D01*
X138548631Y-139123553D01*
X138781903Y-139160500D01*
X138781908Y-139160500D01*
X140018097Y-139160500D01*
X140251368Y-139123553D01*
X140475992Y-139050568D01*
X140686433Y-138943343D01*
X140877510Y-138804517D01*
X140885208Y-138796819D01*
X140946531Y-138763334D01*
X140972889Y-138760500D01*
X157226610Y-138760500D01*
X157226611Y-138760500D01*
X157397701Y-138733402D01*
X157562445Y-138679873D01*
X157716788Y-138601232D01*
X157856928Y-138499414D01*
X161779523Y-134576819D01*
X161840846Y-134543334D01*
X161867204Y-134540500D01*
X172088869Y-134540500D01*
X172155908Y-134560185D01*
X172189502Y-134596268D01*
X172190888Y-134595231D01*
X172282452Y-134717544D01*
X172282455Y-134717547D01*
X172397664Y-134803793D01*
X172397671Y-134803797D01*
X172532517Y-134854091D01*
X172532516Y-134854091D01*
X172539444Y-134854835D01*
X172592127Y-134860500D01*
X176187872Y-134860499D01*
X176247483Y-134854091D01*
X176382331Y-134803796D01*
X176497546Y-134717546D01*
X176583796Y-134602331D01*
X176634091Y-134467483D01*
X176640500Y-134407873D01*
X176640499Y-130812128D01*
X176634091Y-130752517D01*
X176605214Y-130675095D01*
X176583797Y-130617671D01*
X176583793Y-130617664D01*
X176497547Y-130502455D01*
X176497544Y-130502452D01*
X176382335Y-130416206D01*
X176382328Y-130416202D01*
X176247482Y-130365908D01*
X176247483Y-130365908D01*
X176187883Y-130359501D01*
X176187881Y-130359500D01*
X176187873Y-130359500D01*
X176187864Y-130359500D01*
X172592129Y-130359500D01*
X172592123Y-130359501D01*
X172532516Y-130365908D01*
X172397671Y-130416202D01*
X172397664Y-130416206D01*
X172282455Y-130502452D01*
X172282452Y-130502455D01*
X172196206Y-130617664D01*
X172196202Y-130617671D01*
X172145908Y-130752517D01*
X172141071Y-130797511D01*
X172139501Y-130812123D01*
X172139500Y-130812135D01*
X172139500Y-132215500D01*
X172119815Y-132282539D01*
X172067011Y-132328294D01*
X172015500Y-132339500D01*
X161446611Y-132339500D01*
X161273389Y-132339500D01*
X161207101Y-132349999D01*
X161102298Y-132366598D01*
X160937546Y-132420129D01*
X160810794Y-132484713D01*
X160742125Y-132497609D01*
X160677385Y-132471332D01*
X160637128Y-132414226D01*
X160630500Y-132374228D01*
X160630500Y-127707204D01*
X160650185Y-127640165D01*
X160666819Y-127619523D01*
X160823353Y-127462989D01*
X161036995Y-127249346D01*
X161098316Y-127215863D01*
X161168007Y-127220847D01*
X161223941Y-127262718D01*
X161248358Y-127328183D01*
X161240112Y-127379106D01*
X161240938Y-127379375D01*
X161239433Y-127384004D01*
X161239432Y-127384008D01*
X161237323Y-127390500D01*
X161166446Y-127608631D01*
X161129500Y-127841902D01*
X161129500Y-128078097D01*
X161166446Y-128311368D01*
X161239433Y-128535996D01*
X161306666Y-128667947D01*
X161346657Y-128746433D01*
X161485483Y-128937510D01*
X161652490Y-129104517D01*
X161843567Y-129243343D01*
X161942991Y-129294002D01*
X162054003Y-129350566D01*
X162054005Y-129350566D01*
X162054008Y-129350568D01*
X162115734Y-129370624D01*
X162278631Y-129423553D01*
X162511903Y-129460500D01*
X162511908Y-129460500D01*
X163748097Y-129460500D01*
X163981368Y-129423553D01*
X164205992Y-129350568D01*
X164416433Y-129243343D01*
X164607510Y-129104517D01*
X164615208Y-129096819D01*
X164676531Y-129063334D01*
X164702889Y-129060500D01*
X166116610Y-129060500D01*
X166116611Y-129060500D01*
X166287701Y-129033402D01*
X166452445Y-128979873D01*
X166606788Y-128901232D01*
X166746928Y-128799414D01*
X167186342Y-128360000D01*
X172319398Y-128360000D01*
X172412644Y-128585116D01*
X172412648Y-128585126D01*
X172556841Y-128834876D01*
X172732402Y-129063671D01*
X172732408Y-129063678D01*
X172936321Y-129267591D01*
X172936328Y-129267597D01*
X173165123Y-129443158D01*
X173414873Y-129587351D01*
X173414883Y-129587355D01*
X173639999Y-129680601D01*
X173640000Y-129680601D01*
X175140000Y-129680601D01*
X175365116Y-129587355D01*
X175365126Y-129587351D01*
X175614876Y-129443158D01*
X175843671Y-129267597D01*
X175843678Y-129267591D01*
X176047591Y-129063678D01*
X176047597Y-129063671D01*
X176223158Y-128834876D01*
X176367351Y-128585126D01*
X176367355Y-128585116D01*
X176460602Y-128360000D01*
X175140000Y-128360000D01*
X175140000Y-129680601D01*
X173640000Y-129680601D01*
X173640000Y-128360000D01*
X172319398Y-128360000D01*
X167186342Y-128360000D01*
X167982420Y-127563922D01*
X174040000Y-127563922D01*
X174040000Y-127656078D01*
X174063852Y-127745095D01*
X174109930Y-127824905D01*
X174175095Y-127890070D01*
X174254905Y-127936148D01*
X174343922Y-127960000D01*
X174436078Y-127960000D01*
X174525095Y-127936148D01*
X174604905Y-127890070D01*
X174670070Y-127824905D01*
X174716148Y-127745095D01*
X174740000Y-127656078D01*
X174740000Y-127563922D01*
X174716148Y-127474905D01*
X174670070Y-127395095D01*
X174604905Y-127329930D01*
X174525095Y-127283852D01*
X174436078Y-127260000D01*
X174343922Y-127260000D01*
X174254905Y-127283852D01*
X174175095Y-127329930D01*
X174109930Y-127395095D01*
X174063852Y-127474905D01*
X174040000Y-127563922D01*
X167982420Y-127563922D01*
X168686343Y-126859999D01*
X172319398Y-126859999D01*
X172319398Y-126860000D01*
X173640000Y-126860000D01*
X175140000Y-126860000D01*
X176460602Y-126860000D01*
X176460601Y-126859999D01*
X176367355Y-126634883D01*
X176367351Y-126634873D01*
X176223158Y-126385123D01*
X176047597Y-126156328D01*
X176047591Y-126156321D01*
X175843678Y-125952408D01*
X175843671Y-125952402D01*
X175614876Y-125776841D01*
X175365133Y-125632652D01*
X175365121Y-125632647D01*
X175140000Y-125539397D01*
X175140000Y-126860000D01*
X173640000Y-126860000D01*
X173640000Y-125539397D01*
X173414878Y-125632647D01*
X173414866Y-125632652D01*
X173165123Y-125776841D01*
X172936328Y-125952402D01*
X172936321Y-125952408D01*
X172732408Y-126156321D01*
X172732402Y-126156328D01*
X172556841Y-126385123D01*
X172412648Y-126634873D01*
X172412644Y-126634883D01*
X172319398Y-126859999D01*
X168686343Y-126859999D01*
X169986819Y-125559523D01*
X173179523Y-122366818D01*
X173240846Y-122333333D01*
X173267204Y-122330499D01*
X176157871Y-122330499D01*
X176157872Y-122330499D01*
X176217483Y-122324091D01*
X176352331Y-122273796D01*
X176467546Y-122187546D01*
X176553796Y-122072331D01*
X176604091Y-121937483D01*
X176610500Y-121877873D01*
X176610499Y-118282128D01*
X176604091Y-118222517D01*
X176553796Y-118087669D01*
X176553795Y-118087668D01*
X176553793Y-118087664D01*
X176467547Y-117972455D01*
X176467544Y-117972452D01*
X176352335Y-117886206D01*
X176352328Y-117886202D01*
X176217482Y-117835908D01*
X176217483Y-117835908D01*
X176157883Y-117829501D01*
X176157881Y-117829500D01*
X176157873Y-117829500D01*
X176157864Y-117829500D01*
X172562129Y-117829500D01*
X172562120Y-117829501D01*
X172497752Y-117836420D01*
X172428992Y-117824012D01*
X172377856Y-117776400D01*
X172360500Y-117713130D01*
X172360500Y-116453388D01*
X172380185Y-116386349D01*
X172432989Y-116340594D01*
X172502147Y-116330650D01*
X172565703Y-116359675D01*
X172582876Y-116377902D01*
X172702402Y-116533671D01*
X172702408Y-116533678D01*
X172906321Y-116737591D01*
X172906328Y-116737597D01*
X173135123Y-116913158D01*
X173384873Y-117057351D01*
X173384883Y-117057355D01*
X173609999Y-117150601D01*
X173610000Y-117150601D01*
X175110000Y-117150601D01*
X175335116Y-117057355D01*
X175335126Y-117057351D01*
X175584876Y-116913158D01*
X175813671Y-116737597D01*
X175813678Y-116737591D01*
X176017591Y-116533678D01*
X176017597Y-116533671D01*
X176193158Y-116304876D01*
X176337351Y-116055126D01*
X176337355Y-116055116D01*
X176430602Y-115830000D01*
X175110000Y-115830000D01*
X175110000Y-117150601D01*
X173610000Y-117150601D01*
X173610000Y-115033922D01*
X174010000Y-115033922D01*
X174010000Y-115126078D01*
X174033852Y-115215095D01*
X174079930Y-115294905D01*
X174145095Y-115360070D01*
X174224905Y-115406148D01*
X174313922Y-115430000D01*
X174406078Y-115430000D01*
X174495095Y-115406148D01*
X174574905Y-115360070D01*
X174640070Y-115294905D01*
X174686148Y-115215095D01*
X174710000Y-115126078D01*
X174710000Y-115033922D01*
X174686148Y-114944905D01*
X174640070Y-114865095D01*
X174574905Y-114799930D01*
X174495095Y-114753852D01*
X174406078Y-114730000D01*
X174313922Y-114730000D01*
X174224905Y-114753852D01*
X174145095Y-114799930D01*
X174079930Y-114865095D01*
X174033852Y-114944905D01*
X174010000Y-115033922D01*
X173610000Y-115033922D01*
X173610000Y-114330000D01*
X175110000Y-114330000D01*
X176430602Y-114330000D01*
X176430601Y-114329999D01*
X176337355Y-114104883D01*
X176337351Y-114104873D01*
X176193158Y-113855123D01*
X176017597Y-113626328D01*
X176017591Y-113626321D01*
X175813678Y-113422408D01*
X175813671Y-113422402D01*
X175584876Y-113246841D01*
X175335133Y-113102652D01*
X175335121Y-113102647D01*
X175110000Y-113009397D01*
X175110000Y-114330000D01*
X173610000Y-114330000D01*
X173610000Y-113009397D01*
X173384878Y-113102647D01*
X173384866Y-113102652D01*
X173135123Y-113246841D01*
X172906328Y-113422402D01*
X172906321Y-113422408D01*
X172702408Y-113626321D01*
X172582876Y-113782098D01*
X172526448Y-113823300D01*
X172456701Y-113827455D01*
X172395781Y-113793242D01*
X172363029Y-113731525D01*
X172360500Y-113706611D01*
X172360500Y-111604500D01*
X172380185Y-111537461D01*
X172432989Y-111491706D01*
X172484500Y-111480500D01*
X173847289Y-111480500D01*
X173914328Y-111500185D01*
X173947605Y-111531612D01*
X173995483Y-111597510D01*
X174162490Y-111764517D01*
X174353567Y-111903343D01*
X174434966Y-111944818D01*
X174564003Y-112010566D01*
X174564005Y-112010566D01*
X174564008Y-112010568D01*
X174654021Y-112039815D01*
X174788631Y-112083553D01*
X175021903Y-112120500D01*
X175021908Y-112120500D01*
X175258097Y-112120500D01*
X175491368Y-112083553D01*
X175500499Y-112080586D01*
X175715992Y-112010568D01*
X175926433Y-111903343D01*
X176117510Y-111764517D01*
X176284517Y-111597510D01*
X176423343Y-111406433D01*
X176530568Y-111195992D01*
X176603553Y-110971368D01*
X176605988Y-110955992D01*
X176640500Y-110738097D01*
X176640500Y-109501902D01*
X176603553Y-109268631D01*
X176530566Y-109044003D01*
X176465572Y-108916447D01*
X176423343Y-108833567D01*
X176284517Y-108642490D01*
X176117510Y-108475483D01*
X175926433Y-108336657D01*
X175848186Y-108296788D01*
X175715996Y-108229433D01*
X175491368Y-108156446D01*
X175258097Y-108119500D01*
X175258092Y-108119500D01*
X175021908Y-108119500D01*
X175021903Y-108119500D01*
X174788631Y-108156446D01*
X174564003Y-108229433D01*
X174353566Y-108336657D01*
X174244550Y-108415862D01*
X174162490Y-108475483D01*
X174162488Y-108475485D01*
X174162487Y-108475485D01*
X173995485Y-108642487D01*
X173995485Y-108642488D01*
X173995483Y-108642490D01*
X173935862Y-108724550D01*
X173856657Y-108833566D01*
X173749433Y-109044005D01*
X173749432Y-109044007D01*
X173749432Y-109044008D01*
X173704813Y-109181333D01*
X173700756Y-109193818D01*
X173661318Y-109251494D01*
X173596960Y-109278692D01*
X173582825Y-109279500D01*
X167712889Y-109279500D01*
X167645850Y-109259815D01*
X167625208Y-109243181D01*
X167617512Y-109235485D01*
X167617510Y-109235483D01*
X167426433Y-109096657D01*
X167383898Y-109074984D01*
X167333103Y-109027010D01*
X167316308Y-108959189D01*
X167338845Y-108893055D01*
X167393560Y-108849603D01*
X167440194Y-108840500D01*
X170086610Y-108840500D01*
X170086611Y-108840500D01*
X170257701Y-108813402D01*
X170422445Y-108759873D01*
X170576788Y-108681232D01*
X170716928Y-108579414D01*
X173079414Y-106216928D01*
X173181232Y-106076788D01*
X173259873Y-105922446D01*
X173276914Y-105870000D01*
X173660898Y-105870000D01*
X173676934Y-105971247D01*
X173749897Y-106195802D01*
X173857085Y-106406171D01*
X173995866Y-106597186D01*
X174162813Y-106764133D01*
X174162819Y-106764138D01*
X174353827Y-106902914D01*
X174353832Y-106902917D01*
X174390000Y-106921344D01*
X174390000Y-106921343D01*
X175890000Y-106921343D01*
X175926167Y-106902917D01*
X175926172Y-106902914D01*
X176117180Y-106764138D01*
X176117186Y-106764133D01*
X176284133Y-106597186D01*
X176422914Y-106406171D01*
X176530102Y-106195802D01*
X176603065Y-105971247D01*
X176619102Y-105870000D01*
X175890000Y-105870000D01*
X175890000Y-106921343D01*
X174390000Y-106921343D01*
X174390000Y-105870000D01*
X173660898Y-105870000D01*
X173276914Y-105870000D01*
X173313402Y-105757701D01*
X173340500Y-105586611D01*
X173340500Y-105413390D01*
X173340500Y-105073922D01*
X174790000Y-105073922D01*
X174790000Y-105166078D01*
X174813852Y-105255095D01*
X174859930Y-105334905D01*
X174925095Y-105400070D01*
X175004905Y-105446148D01*
X175093922Y-105470000D01*
X175186078Y-105470000D01*
X175275095Y-105446148D01*
X175354905Y-105400070D01*
X175420070Y-105334905D01*
X175466148Y-105255095D01*
X175490000Y-105166078D01*
X175490000Y-105073922D01*
X175466148Y-104984905D01*
X175420070Y-104905095D01*
X175354905Y-104839930D01*
X175275095Y-104793852D01*
X175186078Y-104770000D01*
X175093922Y-104770000D01*
X175004905Y-104793852D01*
X174925095Y-104839930D01*
X174859930Y-104905095D01*
X174813852Y-104984905D01*
X174790000Y-105073922D01*
X173340500Y-105073922D01*
X173340500Y-104370000D01*
X173660898Y-104370000D01*
X174390000Y-104370000D01*
X175890000Y-104370000D01*
X176619102Y-104370000D01*
X176603065Y-104268752D01*
X176530102Y-104044197D01*
X176422914Y-103833828D01*
X176284133Y-103642813D01*
X176117186Y-103475866D01*
X175926169Y-103337083D01*
X175890000Y-103318654D01*
X175890000Y-104370000D01*
X174390000Y-104370000D01*
X174390000Y-103318655D01*
X174389999Y-103318654D01*
X174353830Y-103337083D01*
X174162813Y-103475866D01*
X173995866Y-103642813D01*
X173857085Y-103833828D01*
X173749897Y-104044197D01*
X173676934Y-104268752D01*
X173660898Y-104370000D01*
X173340500Y-104370000D01*
X173340500Y-92993389D01*
X173313402Y-92822299D01*
X173269971Y-92688632D01*
X173259873Y-92657554D01*
X173181232Y-92503212D01*
X173079414Y-92363072D01*
X171966928Y-91250586D01*
X171935149Y-91227497D01*
X171892484Y-91172167D01*
X171886506Y-91102553D01*
X171919113Y-91040759D01*
X171951742Y-91016695D01*
X172116169Y-90932916D01*
X172307186Y-90794133D01*
X172474133Y-90627186D01*
X172612916Y-90436169D01*
X172631345Y-90400000D01*
X169347704Y-90400000D01*
X169280665Y-90380315D01*
X169260023Y-90363681D01*
X168926930Y-90030588D01*
X168926928Y-90030586D01*
X168786788Y-89928768D01*
X168632445Y-89850127D01*
X168467701Y-89796598D01*
X168467699Y-89796597D01*
X168467698Y-89796597D01*
X168336271Y-89775781D01*
X168296611Y-89769500D01*
X168296610Y-89769500D01*
X160933781Y-89769500D01*
X160866742Y-89749815D01*
X160820987Y-89697011D01*
X160811043Y-89627853D01*
X160820756Y-89603922D01*
X170480000Y-89603922D01*
X170480000Y-89696078D01*
X170503852Y-89785095D01*
X170549930Y-89864905D01*
X170615095Y-89930070D01*
X170694905Y-89976148D01*
X170783922Y-90000000D01*
X170876078Y-90000000D01*
X170965095Y-89976148D01*
X171044905Y-89930070D01*
X171110070Y-89864905D01*
X171156148Y-89785095D01*
X171180000Y-89696078D01*
X171180000Y-89603922D01*
X171156148Y-89514905D01*
X171110070Y-89435095D01*
X171044905Y-89369930D01*
X170965095Y-89323852D01*
X170876078Y-89300000D01*
X170783922Y-89300000D01*
X170694905Y-89323852D01*
X170615095Y-89369930D01*
X170549930Y-89435095D01*
X170503852Y-89514905D01*
X170480000Y-89603922D01*
X160820756Y-89603922D01*
X160833463Y-89572614D01*
X160903343Y-89476433D01*
X161010568Y-89265992D01*
X161083553Y-89041368D01*
X161088119Y-89012539D01*
X161120500Y-88808097D01*
X161120500Y-88374500D01*
X161140185Y-88307461D01*
X161192989Y-88261706D01*
X161244500Y-88250500D01*
X169257111Y-88250500D01*
X169282233Y-88257876D01*
X169308167Y-88261499D01*
X169318206Y-88268439D01*
X169324150Y-88270185D01*
X169337935Y-88280460D01*
X169341478Y-88283505D01*
X169352490Y-88294517D01*
X169364132Y-88302975D01*
X169367963Y-88306268D01*
X169384325Y-88331504D01*
X169402688Y-88355315D01*
X169403134Y-88360513D01*
X169405974Y-88364893D01*
X169406095Y-88394966D01*
X169408670Y-88424928D01*
X169406234Y-88429543D01*
X169406256Y-88434762D01*
X169390099Y-88460127D01*
X169376067Y-88486724D01*
X169369573Y-88492352D01*
X169368719Y-88493693D01*
X169367236Y-88494377D01*
X169360031Y-88500622D01*
X169352813Y-88505866D01*
X169185866Y-88672813D01*
X169047083Y-88863830D01*
X169028654Y-88899999D01*
X169028655Y-88900000D01*
X172631345Y-88900000D01*
X172631345Y-88899999D01*
X172612916Y-88863830D01*
X172474133Y-88672813D01*
X172307183Y-88505863D01*
X172299973Y-88500625D01*
X172257308Y-88445294D01*
X172251330Y-88375680D01*
X172283937Y-88313886D01*
X172299970Y-88299994D01*
X172307510Y-88294517D01*
X172474517Y-88127510D01*
X172613343Y-87936433D01*
X172720568Y-87725992D01*
X172793553Y-87501368D01*
X172806348Y-87420586D01*
X172830500Y-87268097D01*
X172830500Y-87031902D01*
X172793553Y-86798631D01*
X172720566Y-86574003D01*
X172613342Y-86363566D01*
X172474517Y-86172490D01*
X172307510Y-86005483D01*
X172116433Y-85866657D01*
X171905996Y-85759433D01*
X171681368Y-85686446D01*
X171448097Y-85649500D01*
X171448092Y-85649500D01*
X170211908Y-85649500D01*
X170211903Y-85649500D01*
X169978631Y-85686446D01*
X169754003Y-85759433D01*
X169543566Y-85866657D01*
X169434550Y-85945862D01*
X169352490Y-86005483D01*
X169352488Y-86005485D01*
X169352487Y-86005485D01*
X169344792Y-86013181D01*
X169283469Y-86046666D01*
X169257111Y-86049500D01*
X160746611Y-86049500D01*
X160573389Y-86049500D01*
X160533728Y-86055781D01*
X160402302Y-86076597D01*
X160237552Y-86130128D01*
X160083209Y-86208769D01*
X160082941Y-86208965D01*
X160082819Y-86209008D01*
X160079057Y-86211314D01*
X160078572Y-86210523D01*
X160017132Y-86232437D01*
X159976215Y-86227148D01*
X159976111Y-86227585D01*
X159972044Y-86226608D01*
X159971751Y-86226571D01*
X159971369Y-86226447D01*
X159738097Y-86189500D01*
X159738092Y-86189500D01*
X159501908Y-86189500D01*
X159501903Y-86189500D01*
X159268631Y-86226446D01*
X159044003Y-86299433D01*
X158833566Y-86406657D01*
X158724550Y-86485862D01*
X158642490Y-86545483D01*
X158642488Y-86545485D01*
X158642487Y-86545485D01*
X158475484Y-86712488D01*
X158450318Y-86747127D01*
X158394987Y-86789792D01*
X158325374Y-86795771D01*
X158263579Y-86763165D01*
X158249682Y-86747127D01*
X158224517Y-86712490D01*
X158057510Y-86545483D01*
X157866433Y-86406657D01*
X157655996Y-86299433D01*
X157431368Y-86226446D01*
X157198097Y-86189500D01*
X157198092Y-86189500D01*
X156961908Y-86189500D01*
X156961903Y-86189500D01*
X156728631Y-86226446D01*
X156504003Y-86299433D01*
X156293566Y-86406657D01*
X156184550Y-86485862D01*
X156102490Y-86545483D01*
X156102488Y-86545485D01*
X156102487Y-86545485D01*
X155935484Y-86712488D01*
X155910318Y-86747127D01*
X155854987Y-86789792D01*
X155785374Y-86795771D01*
X155723579Y-86763165D01*
X155709682Y-86747127D01*
X155684517Y-86712490D01*
X155517510Y-86545483D01*
X155326433Y-86406657D01*
X155115996Y-86299433D01*
X154891368Y-86226446D01*
X154658097Y-86189500D01*
X154658092Y-86189500D01*
X154421908Y-86189500D01*
X154421903Y-86189500D01*
X154188631Y-86226446D01*
X153964003Y-86299433D01*
X153753566Y-86406657D01*
X153644550Y-86485862D01*
X153562490Y-86545483D01*
X153562488Y-86545485D01*
X153562487Y-86545485D01*
X153395485Y-86712487D01*
X153395485Y-86712488D01*
X153395483Y-86712490D01*
X153339320Y-86789792D01*
X153256657Y-86903566D01*
X153196417Y-87021795D01*
X153148442Y-87072591D01*
X153085932Y-87089500D01*
X145667204Y-87089500D01*
X145600165Y-87069815D01*
X145579523Y-87053181D01*
X144686930Y-86160588D01*
X144686928Y-86160586D01*
X144546788Y-86058768D01*
X144392445Y-85980127D01*
X144227701Y-85926598D01*
X144227699Y-85926597D01*
X144227698Y-85926597D01*
X144096271Y-85905781D01*
X144056611Y-85899500D01*
X138546610Y-85899500D01*
X138373389Y-85899500D01*
X138287844Y-85913049D01*
X138202298Y-85926598D01*
X138037549Y-85980128D01*
X137883211Y-86058768D01*
X137803256Y-86116859D01*
X137743072Y-86160586D01*
X137743070Y-86160588D01*
X137743069Y-86160588D01*
X136710588Y-87193069D01*
X136710588Y-87193070D01*
X136710586Y-87193072D01*
X136666859Y-87253256D01*
X136608768Y-87333211D01*
X136530128Y-87487552D01*
X136476597Y-87652302D01*
X136449500Y-87823389D01*
X136449500Y-88127111D01*
X136442753Y-88150086D01*
X136440331Y-88173906D01*
X136432135Y-88186248D01*
X136429815Y-88194150D01*
X136422496Y-88204362D01*
X136418133Y-88209839D01*
X136405483Y-88222490D01*
X136378707Y-88259343D01*
X136376996Y-88261492D01*
X136350562Y-88280071D01*
X136324987Y-88299792D01*
X136322158Y-88300034D01*
X136319834Y-88301669D01*
X136287551Y-88303007D01*
X136255374Y-88305771D01*
X136252861Y-88304445D01*
X136250024Y-88304563D01*
X136222152Y-88288242D01*
X136193579Y-88273165D01*
X136190666Y-88269803D01*
X136189731Y-88269256D01*
X136189078Y-88267971D01*
X136179682Y-88257127D01*
X136154517Y-88222490D01*
X135987510Y-88055483D01*
X135796433Y-87916657D01*
X135757181Y-87896657D01*
X135585996Y-87809433D01*
X135361368Y-87736446D01*
X135128097Y-87699500D01*
X135128092Y-87699500D01*
X134891908Y-87699500D01*
X134891903Y-87699500D01*
X134658631Y-87736446D01*
X134434003Y-87809433D01*
X134223566Y-87916657D01*
X134114550Y-87995862D01*
X134032490Y-88055483D01*
X134032488Y-88055485D01*
X134032487Y-88055485D01*
X133865485Y-88222487D01*
X133865485Y-88222488D01*
X133865483Y-88222490D01*
X133822115Y-88282181D01*
X133726657Y-88413566D01*
X133676607Y-88511795D01*
X133628632Y-88562591D01*
X133566122Y-88579500D01*
X131674068Y-88579500D01*
X131607029Y-88559815D01*
X131563583Y-88511795D01*
X131560562Y-88505866D01*
X131503343Y-88393567D01*
X131364517Y-88202490D01*
X131197510Y-88035483D01*
X131006433Y-87896657D01*
X130795996Y-87789433D01*
X130571368Y-87716446D01*
X130338097Y-87679500D01*
X130338092Y-87679500D01*
X130101908Y-87679500D01*
X130101903Y-87679500D01*
X129868631Y-87716446D01*
X129644003Y-87789433D01*
X129433566Y-87896657D01*
X129406039Y-87916657D01*
X129242490Y-88035483D01*
X129242488Y-88035485D01*
X129242487Y-88035485D01*
X129075484Y-88202488D01*
X129068467Y-88212147D01*
X129054349Y-88231579D01*
X129050318Y-88237127D01*
X129030003Y-88252791D01*
X129012363Y-88271418D01*
X129002790Y-88273774D01*
X128994987Y-88279792D01*
X128969431Y-88281986D01*
X128944519Y-88288120D01*
X128935193Y-88284927D01*
X128925374Y-88285771D01*
X128902685Y-88273799D01*
X128878415Y-88265491D01*
X128868626Y-88255828D01*
X128863579Y-88253165D01*
X128852789Y-88241222D01*
X128851197Y-88239212D01*
X128824517Y-88202490D01*
X128812985Y-88190958D01*
X128808533Y-88185336D01*
X128798019Y-88159328D01*
X128784578Y-88134713D01*
X128783278Y-88127794D01*
X128763402Y-88002299D01*
X128758611Y-87987555D01*
X128735575Y-87916657D01*
X128709873Y-87837555D01*
X128709871Y-87837552D01*
X128709871Y-87837550D01*
X128639531Y-87699500D01*
X128631232Y-87683212D01*
X128529414Y-87543072D01*
X128406928Y-87420586D01*
X127116928Y-86130586D01*
X126976788Y-86028768D01*
X126822445Y-85950127D01*
X126657701Y-85896598D01*
X126657699Y-85896597D01*
X126657698Y-85896597D01*
X126513697Y-85873790D01*
X126486611Y-85869500D01*
X113913389Y-85869500D01*
X113913388Y-85869500D01*
X113886290Y-85873791D01*
X113886289Y-85873790D01*
X113742305Y-85896596D01*
X113742303Y-85896596D01*
X113742300Y-85896597D01*
X113659927Y-85923362D01*
X113577550Y-85950128D01*
X113423211Y-86028768D01*
X113381921Y-86058768D01*
X113381920Y-86058768D01*
X113283079Y-86130579D01*
X113283074Y-86130583D01*
X111720588Y-87693069D01*
X111720588Y-87693070D01*
X111720586Y-87693072D01*
X111715916Y-87699500D01*
X111618768Y-87833211D01*
X111540128Y-87987552D01*
X111486597Y-88152302D01*
X111459500Y-88323389D01*
X111459500Y-88945500D01*
X111439815Y-89012539D01*
X111387011Y-89058294D01*
X111335500Y-89069500D01*
X110762129Y-89069500D01*
X110762123Y-89069501D01*
X110702516Y-89075908D01*
X110567671Y-89126202D01*
X110567664Y-89126206D01*
X110452455Y-89212452D01*
X110452452Y-89212455D01*
X110366206Y-89327664D01*
X110366202Y-89327671D01*
X110315908Y-89462517D01*
X110312438Y-89494798D01*
X110309501Y-89522123D01*
X110309500Y-89522135D01*
X110309500Y-93117870D01*
X110309501Y-93117876D01*
X110315908Y-93177483D01*
X110366202Y-93312328D01*
X110366206Y-93312335D01*
X110452452Y-93427544D01*
X110452455Y-93427547D01*
X110567664Y-93513793D01*
X110567671Y-93513797D01*
X110702517Y-93564091D01*
X110702516Y-93564091D01*
X110709444Y-93564835D01*
X110762127Y-93570500D01*
X114298000Y-93570499D01*
X114365039Y-93590184D01*
X114410794Y-93642988D01*
X114422000Y-93694499D01*
X114422000Y-94771368D01*
X114402315Y-94838407D01*
X114349511Y-94884162D01*
X114280353Y-94894106D01*
X114216797Y-94865081D01*
X114210319Y-94859049D01*
X114013678Y-94662408D01*
X114013671Y-94662402D01*
X113784876Y-94486841D01*
X113535133Y-94342652D01*
X113535121Y-94342647D01*
X113310000Y-94249397D01*
X113310000Y-98390601D01*
X113535116Y-98297355D01*
X113535126Y-98297351D01*
X113784876Y-98153158D01*
X114013671Y-97977597D01*
X114013678Y-97977591D01*
X114210319Y-97780951D01*
X114271642Y-97747466D01*
X114341334Y-97752450D01*
X114397267Y-97794322D01*
X114421684Y-97859786D01*
X114422000Y-97868632D01*
X114422000Y-100057111D01*
X114402315Y-100124150D01*
X114385681Y-100144792D01*
X114377985Y-100152487D01*
X114377985Y-100152488D01*
X114377983Y-100152490D01*
X114344607Y-100198428D01*
X114239157Y-100343566D01*
X114131933Y-100554003D01*
X114058946Y-100778631D01*
X114022000Y-101011902D01*
X114022000Y-102248097D01*
X114058946Y-102481367D01*
X114065714Y-102502196D01*
X114067708Y-102572037D01*
X114035463Y-102628193D01*
X112335477Y-104328181D01*
X112274154Y-104361666D01*
X112247796Y-104364500D01*
X110561611Y-104364500D01*
X110388389Y-104364500D01*
X110366190Y-104368016D01*
X110217302Y-104391597D01*
X110052552Y-104445128D01*
X109898211Y-104523768D01*
X109848344Y-104559999D01*
X109758072Y-104625586D01*
X109758070Y-104625588D01*
X109758069Y-104625588D01*
X108240588Y-106143069D01*
X108240588Y-106143070D01*
X108240586Y-106143072D01*
X108202275Y-106195802D01*
X108138768Y-106283211D01*
X108060128Y-106437552D01*
X108006597Y-106602302D01*
X107990877Y-106701556D01*
X107979500Y-106773389D01*
X106670500Y-106773389D01*
X106670500Y-102380000D01*
X108721155Y-102380000D01*
X108739583Y-102416169D01*
X108878366Y-102607186D01*
X109045313Y-102774133D01*
X109236328Y-102912914D01*
X109446695Y-103020102D01*
X109671244Y-103093063D01*
X109671250Y-103093065D01*
X109772500Y-103109101D01*
X109772500Y-103109100D01*
X111272500Y-103109100D01*
X111373749Y-103093065D01*
X111373755Y-103093063D01*
X111598304Y-103020102D01*
X111808671Y-102912914D01*
X111999686Y-102774133D01*
X112166633Y-102607186D01*
X112305416Y-102416169D01*
X112323845Y-102380000D01*
X111272500Y-102380000D01*
X111272500Y-103109100D01*
X109772500Y-103109100D01*
X109772500Y-102380000D01*
X108721155Y-102380000D01*
X106670500Y-102380000D01*
X106670500Y-101583922D01*
X110172500Y-101583922D01*
X110172500Y-101676078D01*
X110196352Y-101765095D01*
X110242430Y-101844905D01*
X110307595Y-101910070D01*
X110387405Y-101956148D01*
X110476422Y-101980000D01*
X110568578Y-101980000D01*
X110657595Y-101956148D01*
X110737405Y-101910070D01*
X110802570Y-101844905D01*
X110848648Y-101765095D01*
X110872500Y-101676078D01*
X110872500Y-101583922D01*
X110848648Y-101494905D01*
X110802570Y-101415095D01*
X110737405Y-101349930D01*
X110657595Y-101303852D01*
X110568578Y-101280000D01*
X110476422Y-101280000D01*
X110387405Y-101303852D01*
X110307595Y-101349930D01*
X110242430Y-101415095D01*
X110196352Y-101494905D01*
X110172500Y-101583922D01*
X106670500Y-101583922D01*
X106670500Y-100879999D01*
X108721154Y-100879999D01*
X108721155Y-100880000D01*
X109772500Y-100880000D01*
X111272500Y-100880000D01*
X112323845Y-100880000D01*
X112323845Y-100879999D01*
X112305416Y-100843830D01*
X112166633Y-100652813D01*
X111999686Y-100485866D01*
X111808671Y-100347085D01*
X111598302Y-100239897D01*
X111373747Y-100166934D01*
X111272500Y-100150897D01*
X111272500Y-100880000D01*
X109772500Y-100880000D01*
X109772500Y-100150897D01*
X109671252Y-100166934D01*
X109446697Y-100239897D01*
X109236328Y-100347085D01*
X109045313Y-100485866D01*
X108878366Y-100652813D01*
X108739583Y-100843830D01*
X108721154Y-100879999D01*
X106670500Y-100879999D01*
X106670500Y-97070000D01*
X110489398Y-97070000D01*
X110582644Y-97295116D01*
X110582648Y-97295126D01*
X110726841Y-97544876D01*
X110902402Y-97773671D01*
X110902408Y-97773678D01*
X111106321Y-97977591D01*
X111106328Y-97977597D01*
X111335123Y-98153158D01*
X111584873Y-98297351D01*
X111584883Y-98297355D01*
X111809999Y-98390601D01*
X111810000Y-98390601D01*
X111810000Y-97070000D01*
X110489398Y-97070000D01*
X106670500Y-97070000D01*
X106670500Y-96273922D01*
X112210000Y-96273922D01*
X112210000Y-96366078D01*
X112233852Y-96455095D01*
X112279930Y-96534905D01*
X112345095Y-96600070D01*
X112424905Y-96646148D01*
X112513922Y-96670000D01*
X112606078Y-96670000D01*
X112695095Y-96646148D01*
X112774905Y-96600070D01*
X112840070Y-96534905D01*
X112886148Y-96455095D01*
X112910000Y-96366078D01*
X112910000Y-96273922D01*
X112886148Y-96184905D01*
X112840070Y-96105095D01*
X112774905Y-96039930D01*
X112695095Y-95993852D01*
X112606078Y-95970000D01*
X112513922Y-95970000D01*
X112424905Y-95993852D01*
X112345095Y-96039930D01*
X112279930Y-96105095D01*
X112233852Y-96184905D01*
X112210000Y-96273922D01*
X106670500Y-96273922D01*
X106670500Y-95569999D01*
X110489398Y-95569999D01*
X110489398Y-95570000D01*
X111810000Y-95570000D01*
X111810000Y-94249397D01*
X111584878Y-94342647D01*
X111584866Y-94342652D01*
X111335123Y-94486841D01*
X111106328Y-94662402D01*
X111106321Y-94662408D01*
X110902408Y-94866321D01*
X110902402Y-94866328D01*
X110726841Y-95095123D01*
X110582648Y-95344873D01*
X110582644Y-95344883D01*
X110489398Y-95569999D01*
X106670500Y-95569999D01*
X106670500Y-84734500D01*
X106690185Y-84667461D01*
X106742989Y-84621706D01*
X106794500Y-84610500D01*
X179545500Y-84610500D01*
X179612539Y-84630185D01*
G37*
%TD.AperFunction*%
%TD*%
M02*
