M48
; DRILL file KiCad 10.0.1 date 2026-05-16T10:39:16
; FORMAT={-:-/ absolute / metric / decimal}
; #@! TF.CreationDate,2026-05-16T10:39:16-03:00
; #@! TF.GenerationSoftware,Kicad,Pcbnew,10.0.1
; #@! TF.FileFunction,Plated,1,2,PTH
FMAT,2
METRIC
; #@! TA.AperFunction,Plated,PTH,ComponentDrill
T1C0.700
; #@! TA.AperFunction,Plated,PTH,ViaDrill
T2C1.000
%
G90
G05
T1
X35.2Y-148.12
X35.2Y-158.28
X35.52Y-141.4
X35.64Y-144.8
X35.8Y-176.0
X37.27Y-135.2
X37.45Y-137.76
X37.6Y-122.04
X37.6Y-132.2
X39.32Y-156.8
X39.32Y-174.58
X41.13Y-135.2
X41.13Y-137.74
X41.23Y-127.2
X41.23Y-130.6
X41.86Y-156.8
X41.86Y-174.58
X43.67Y-135.2
X43.67Y-137.74
X43.9Y-121.8
X44.0Y-147.8
X44.0Y-152.8
X44.4Y-156.8
X44.4Y-174.58
X45.68Y-141.4
X45.8Y-144.8
X46.78Y-179.6
X46.94Y-156.8
X46.94Y-174.58
X48.9Y-121.8
X49.32Y-179.6
X49.48Y-156.8
X49.48Y-174.58
X51.0Y-136.59
X51.0Y-144.21
X51.39Y-127.2
X51.39Y-130.6
X51.86Y-179.6
X52.02Y-156.8
X52.02Y-174.58
X52.2Y-123.4
X52.4Y-146.9
X52.4Y-151.9
X54.4Y-136.59
X54.4Y-144.21
X54.4Y-179.6
X54.56Y-156.8
X54.56Y-174.58
X55.26Y-132.8
X56.135Y-127.75
X56.94Y-179.6
X57.1Y-156.8
X57.1Y-174.58
X57.8Y-132.8
X57.8Y-152.0
X58.675Y-127.75
X58.79Y-139.79
X58.79Y-142.33
X58.79Y-144.87
X58.79Y-147.41
X59.64Y-156.8
X59.64Y-174.58
X61.72Y-151.8
X62.18Y-156.8
X62.18Y-174.58
X63.48Y-130.26
X63.48Y-135.14
X64.72Y-156.8
X64.72Y-174.58
X66.4Y-121.9
X66.4Y-126.9
X66.41Y-139.79
X66.41Y-142.33
X66.41Y-144.87
X66.41Y-147.41
X67.26Y-156.8
X67.26Y-174.58
X67.37Y-130.26
X67.37Y-135.14
X69.8Y-156.8
X69.8Y-174.58
X70.87Y-130.26
X70.87Y-135.14
X71.88Y-151.8
X71.93Y-126.7
X72.34Y-156.8
X72.34Y-174.58
X73.4Y-141.12
X73.4Y-143.66
X73.4Y-146.2
X74.88Y-156.8
X74.88Y-174.58
X75.71Y-134.6
X77.42Y-156.8
X77.42Y-174.58
X77.8Y-142.12
X77.8Y-152.28
X79.4Y-122.2
X79.96Y-156.8
X79.96Y-174.58
X80.71Y-134.6
X82.09Y-126.7
X82.5Y-156.8
X82.5Y-174.58
X83.7Y-138.8
X84.4Y-122.2
X85.0Y-145.8
X85.0Y-150.8
X85.04Y-156.8
X85.04Y-174.58
X87.58Y-156.8
X87.58Y-174.58
X88.7Y-138.8
X89.23Y-125.8
X89.52Y-130.2
X89.52Y-134.0
X91.703Y-159.0
X91.8Y-164.6
X92.2Y-140.69
X92.2Y-143.23
X92.2Y-145.77
X92.2Y-148.31
X94.325Y-170.6
X94.325Y-177.8
X96.703Y-159.0
X96.865Y-170.6
X96.865Y-177.8
X97.92Y-151.6
X99.39Y-125.8
X99.68Y-130.2
X99.68Y-134.0
X99.82Y-140.69
X99.82Y-143.23
X99.82Y-145.77
X99.82Y-148.31
X100.32Y-172.6
X100.32Y-176.0
X100.4Y-163.6
X100.4Y-169.2
X102.94Y-163.6
X103.31Y-126.32
X103.31Y-128.86
X103.31Y-131.4
X103.32Y-158.2
X106.01Y-138.42
X106.01Y-148.58
X108.06Y-135.0
X108.08Y-151.6
X110.48Y-172.6
X110.48Y-176.0
X110.56Y-169.2
X110.6Y-135.0
X111.11Y-124.4
X111.11Y-129.4
X111.3Y-151.8
X111.6Y-139.5
X111.6Y-144.5
X111.9Y-163.6
X113.14Y-135.0
X113.48Y-158.2
X114.632Y-176.2
X116.3Y-151.8
X116.8Y-146.4
X116.9Y-163.6
X117.12Y-158.6
X117.8Y-128.92
X117.8Y-139.08
X118.2Y-168.8
X119.632Y-176.2
X119.92Y-149.4
X123.0Y-167.0
X123.2Y-141.1
X123.2Y-146.1
X123.4Y-131.35
X123.4Y-135.34
X123.4Y-137.88
X123.4Y-162.6
X123.4Y-171.6
X123.46Y-154.2
X126.0Y-154.2
X127.28Y-158.6
X127.8Y-131.2
X127.8Y-163.4
X127.8Y-168.4
X128.8Y-135.52
X128.8Y-145.68
X130.08Y-149.4
T2
X47.6Y-162.2
X125.11Y-177.2
X127.4Y-123.6
M30
