M48
; DRILL file KiCad 10.0.1 date 2026-05-13T19:12:59
; FORMAT={-:-/ absolute / metric / decimal}
; #@! TF.CreationDate,2026-05-13T19:12:59-03:00
; #@! TF.GenerationSoftware,Kicad,Pcbnew,10.0.1
; #@! TF.FileFunction,Plated,1,2,PTH
FMAT,2
METRIC
; #@! TA.AperFunction,Plated,PTH,ComponentDrill
T1C0.700
; #@! TA.AperFunction,Plated,PTH,ViaDrill
T2C4.000
%
G90
G05
T1
X72.6Y-145.72
X72.6Y-155.88
X72.92Y-139.0
X73.04Y-142.4
X74.67Y-132.8
X74.85Y-135.36
X75.0Y-119.64
X75.0Y-129.8
X76.72Y-154.4
X76.72Y-172.18
X78.53Y-132.8
X78.53Y-135.34
X78.63Y-124.8
X78.63Y-128.2
X79.26Y-154.4
X79.26Y-172.18
X81.07Y-132.8
X81.07Y-135.34
X81.3Y-119.4
X81.4Y-145.4
X81.4Y-150.4
X81.8Y-154.4
X81.8Y-172.18
X83.08Y-139.0
X83.2Y-142.4
X84.18Y-177.2
X84.34Y-154.4
X84.34Y-172.18
X86.3Y-119.4
X86.72Y-177.2
X86.88Y-154.4
X86.88Y-172.18
X88.4Y-134.19
X88.4Y-141.81
X88.79Y-124.8
X88.79Y-128.2
X89.26Y-177.2
X89.42Y-154.4
X89.42Y-172.18
X89.8Y-144.5
X89.8Y-149.5
X91.8Y-134.19
X91.8Y-141.81
X91.8Y-177.2
X91.96Y-154.4
X91.96Y-172.18
X93.335Y-122.6
X93.335Y-129.4
X94.34Y-177.2
X94.5Y-154.4
X94.5Y-172.18
X95.875Y-122.6
X95.875Y-129.4
X96.19Y-137.39
X96.19Y-139.93
X96.19Y-142.47
X96.19Y-145.01
X97.04Y-154.4
X97.04Y-172.18
X99.12Y-149.4
X99.58Y-154.4
X99.58Y-172.18
X100.88Y-127.86
X100.88Y-132.74
X102.12Y-154.4
X102.12Y-172.18
X103.8Y-119.5
X103.8Y-124.5
X103.81Y-137.39
X103.81Y-139.93
X103.81Y-142.47
X103.81Y-145.01
X104.66Y-154.4
X104.66Y-172.18
X104.77Y-127.86
X104.77Y-132.74
X107.2Y-154.4
X107.2Y-172.18
X108.27Y-127.86
X108.27Y-132.74
X109.28Y-149.4
X109.33Y-124.3
X109.74Y-154.4
X109.74Y-172.18
X110.8Y-138.72
X110.8Y-141.26
X110.8Y-143.8
X112.28Y-154.4
X112.28Y-172.18
X113.11Y-132.2
X114.82Y-154.4
X114.82Y-172.18
X115.2Y-139.72
X115.2Y-149.88
X116.8Y-119.8
X117.36Y-154.4
X117.36Y-172.18
X118.11Y-132.2
X119.49Y-124.3
X119.9Y-154.4
X119.9Y-172.18
X121.1Y-136.4
X121.8Y-119.8
X122.4Y-143.4
X122.4Y-148.4
X122.44Y-154.4
X122.44Y-172.18
X124.98Y-154.4
X124.98Y-172.18
X126.1Y-136.4
X126.63Y-123.4
X126.92Y-127.8
X126.92Y-131.6
X129.102Y-156.6
X129.6Y-138.29
X129.6Y-140.83
X129.6Y-143.37
X129.6Y-145.91
X131.725Y-168.2
X131.725Y-175.4
X134.102Y-156.6
X134.265Y-168.2
X134.265Y-175.4
X135.32Y-150.0
X136.79Y-123.4
X137.08Y-127.8
X137.08Y-131.6
X137.22Y-138.29
X137.22Y-140.83
X137.22Y-143.37
X137.22Y-145.91
X137.72Y-171.6
X137.72Y-175.2
X137.8Y-161.2
X137.8Y-168.0
X140.34Y-161.2
X140.71Y-123.92
X140.71Y-126.46
X140.71Y-129.0
X140.92Y-155.0
X143.41Y-136.02
X143.41Y-146.18
X145.48Y-150.0
X147.88Y-171.6
X147.88Y-175.2
X147.96Y-168.0
X148.37Y-142.8
X148.51Y-122.0
X148.51Y-127.0
X150.8Y-146.5
X150.8Y-151.5
X150.91Y-142.8
X151.08Y-155.0
X151.3Y-163.0
X152.032Y-173.8
X153.45Y-142.8
X154.52Y-157.2
X155.4Y-129.52
X155.4Y-139.68
X156.3Y-163.0
X157.032Y-173.8
X158.9Y-150.2
X159.2Y-129.01
X159.2Y-133.0
X159.2Y-135.54
X160.4Y-139.7
X160.4Y-144.7
X163.9Y-150.2
X164.167Y-162.85
X164.167Y-167.85
X164.68Y-157.2
X166.0Y-134.52
X166.0Y-144.68
T2
X85.0Y-159.8
X162.51Y-174.8
X164.91Y-121.4
M30
